<?xml version="1.0" encoding="utf-8"?>
<!-- Svg Vector Icons : http://www.onlinewebfonts.com/icon -->
<!DOCTYPE svg PUBLIC "-//W3C//DTD SVG 1.1//EN" "http://www.w3.org/Graphics/SVG/1.1/DTD/svg11.dtd">
<svg version="1.1" xmlns="http://www.w3.org/2000/svg" xmlns:xlink="http://www.w3.org/1999/xlink" x="0px" y="0px" viewBox="-250 -250 1500 1500" enable-background="new 0 0 1000 1000" xml:space="preserve">
<metadata> Svg Vector Icons : http://www.onlinewebfonts.com/icon </metadata>
<g><path fill="rgba(0%, 0%, 0%, 0.3)" d="M990,233.6v296.7c0,0-63.5,12.5-76.6,14.2c-13,1.6-54,14.9-83.7-13.7c-45.8-43.9-208.5-205.7-208.5-205.7s-28.1-27.5-73.1-3.7c-41.3,21.8-102.6,53.7-128.2,66.2c-48.4,25.8-88.5-15.1-88.5-46.2c0-24.1,15.1-40.5,36.6-52.6c58.4-35.4,181.4-104.5,232.7-131.7c31.2-16.6,53.6-18,96.4,18c52.7,44.3,99.5,84.7,99.5,84.7s15.3,12.8,39.7,7.6C896.1,254.6,990,233.6,990,233.6z M342.4,736.3c7.9-20.2,5.2-42.9-9.9-58.4c-13.6-13.9-33.4-17.6-52.3-13.2c5.3-18.7,2.4-38.7-11.3-52.8c-13.6-13.9-33.4-17.6-52.3-13.2c5.2-18.7,2.3-38.7-11.3-52.7c-21.4-21.9-58.4-21-82.7,2.2C98.5,571.3,83,613.3,104.6,638c21.5,24.6,46.3,9.6,65.1,5.3c-5.2,18.7-21,36.1-1.6,60.6c19.3,24.5,46.3,9.6,65.2,5.4c-5.3,18.6-20.3,37.8-1.7,60.5c18.8,22.8,49.6,10.6,69.9,4.3c-7.8,20.2-24.6,41.9-3.1,66.3c21.5,24.5,71.3,13.2,95.6-10c24.2-23.2,26.6-59.9,5.2-81.9C384.6,733.4,362.6,729.9,342.4,736.3z M786,581.9c-175.7-175.7-93.1-93-187.7-187.8c0,0-28.4-28.3-65.9-11.9c-26.3,11.5-60.2,27.2-85.6,39.2c-28,14.7-48.1,19.2-57.6,19.2c-54.1-0.4-98-43.9-98-97.9c0-35.1,18.6-65.6,46.4-82.9c39.1-27,128.9-74.8,128.9-74.8s-27.4-34.7-87.4-34.7c-60,0-185.3,82.1-185.3,82.1s-35.5,22.8-86.2,2.3l-97.7-34V540c0,0,27.9,8.1,52.9,18.3c5.7-16.1,14.8-31,27.5-43.4c41.6-39.6,110.5-40,148.3-1.1c11.4,11.8,19.3,26,23.4,41.6c15.2,4.7,29,13,40.1,24.5c11.4,11.8,19.3,26,23.4,41.5c15.2,4.7,29,13.1,40.1,24.5c12.5,12.9,20.9,28.5,24.8,45.5c15.9,4.6,30.3,13.3,41.9,25.1c22.7,23.3,30.8,55,25.9,85.6c0,0,0.1,0,0.2,0.1c0.4,0.5,14.1,15.8,22.6,24.4c16.8,16.8,44.1,16.8,60.9,0c16.7-16.8,16.8-44.1,0-60.9c-0.6-0.6-60.5-63.2-55.6-68.1c4.8-4.8,81,74.5,82.5,76c16.7,16.7,44.1,16.7,60.9,0c16.8-16.8,16.7-44.1,0-60.9c-0.8-0.8-4.3-4.1-5.5-5.4c0,0-75.6-67.3-69.8-73.1c5.8-5.8,99.7,81.8,99.9,81.8c16.9,15.2,42.9,15.1,59.1-1.2c15.8-15.8,16.1-40.8,2.1-57.6c-0.3-0.9-71.6-75.4-66-81c5.6-5.7,76.2,66.9,76.3,67.1c16.7,16.7,44.1,16.7,60.9,0c16.7-16.7,16.7-44.1,0-61C786.5,582.2,786.2,582.1,786,581.9z"/></g>
</svg>