<?xml version="1.0" encoding="iso-8859-1"?>
<!-- Generator: Adobe Illustrator 19.0.0, SVG Export Plug-In . SVG Version: 6.00 Build 0)  -->
<svg version="1.1" id="Capa_1" xmlns="http://www.w3.org/2000/svg" xmlns:xlink="http://www.w3.org/1999/xlink" x="0px" y="0px"
	 viewBox="0 0 512 512" style="enable-background:new 0 0 512 512;" xml:space="preserve">
<path style="fill:#6d9347;" d="M408.193,135.283C408.193,51.23,340.053,8.455,256,8.455S103.807,51.23,103.807,135.283
	S137.627,372.029,256,372.029C365.918,372.029,408.193,219.336,408.193,135.283z"/>
<path d="M256,380.484c-127.073,0-160.649-160.391-160.649-245.201C95.351,53.103,158.41,0,256,0s160.649,53.103,160.649,135.283
	c0,39.659-9.398,100.858-35.77,153.673C350.977,348.836,307.797,380.484,256,380.484z M256,16.91
	c-66.31,0-143.738,31.001-143.738,118.373c0,91.768,38.281,228.29,143.738,228.29c107.542,0,143.738-156.772,143.738-228.29
	C399.738,47.911,322.306,16.91,256,16.91z"/>
<polygon style="fill:#6d9347;" points="289.821,422.76 213.724,422.76 230.634,372.029 272.91,372.029 "/>
<path d="M289.821,431.215h-76.097c-2.718,0-5.272-1.306-6.861-3.513c-1.59-2.203-2.021-5.035-1.163-7.618l16.91-50.731
	c1.154-3.45,4.384-5.779,8.024-5.779h42.276c3.64,0,6.87,2.329,8.02,5.779l16.91,50.731c0.858,2.579,0.427,5.411-1.163,7.618
	S292.535,431.215,289.821,431.215z M225.456,414.304h52.634l-11.275-33.821h-30.088L225.456,414.304z"/>
<path d="M325.062,512c-0.786-1.175-18.995-29.428-0.985-83.461c3.179-9.533,2.613-17.464-1.729-24.249
	c-10.176-15.904-39.042-22.504-49.924-23.806h-41.79v-16.91h42.276c0.313,0,0.621,0.017,0.934,0.055
	c1.869,0.207,46.009,5.386,62.746,31.551c7.17,11.203,8.358,24.228,3.53,38.712c-15.173,45.519-1.078,68.589-0.934,68.813
	L325.062,512z"/>
<path d="M137.636,135.283c-0.313,0-0.626-0.017-0.943-0.051c-4.642-0.516-7.986-4.697-7.47-9.335
	c9.123-82.117,121.353-91.684,126.126-92.052c4.667-0.338,8.717,3.124,9.072,7.775c0.364,4.655-3.116,8.722-7.77,9.085
	c-1.032,0.08-103.048,8.865-110.624,77.056C145.55,132.087,141.889,135.283,137.636,135.283z"/>
<g>
</g>
<g>
</g>
<g>
</g>
<g>
</g>
<g>
</g>
<g>
</g>
<g>
</g>
<g>
</g>
<g>
</g>
<g>
</g>
<g>
</g>
<g>
</g>
<g>
</g>
<g>
</g>
<g>
</g>
</svg>
