<svg xmlns="http://www.w3.org/2000/svg" viewBox="0 0 512 512"><path d="M408.193 135.283C408.193 51.23 340.053 8.455 256 8.455S103.807 51.23 103.807 135.283 137.627 372.029 256 372.029c109.918 0 152.193-152.693 152.193-236.746z" fill="rgba(94.1%, 28.4%, 10.2%, 1)"/><path d="M256 380.484c-127.073 0-160.649-160.391-160.649-245.201C95.351 53.103 158.41 0 256 0s160.649 53.103 160.649 135.283c0 39.659-9.398 100.858-35.77 153.673-29.902 59.88-73.082 91.528-124.879 91.528zm0-363.574c-66.31 0-143.738 31.001-143.738 118.373 0 91.768 38.281 228.29 143.738 228.29 107.542 0 143.738-156.772 143.738-228.29C399.738 47.911 322.306 16.91 256 16.91z"/><path fill="#a5182f" d="M289.821 422.76h-76.097l16.91-50.731h42.276z"/><path d="M289.821 431.215h-76.097a8.454 8.454 0 0 1-6.861-3.513 8.455 8.455 0 0 1-1.163-7.618l16.91-50.731a8.462 8.462 0 0 1 8.024-5.779h42.276c3.64 0 6.87 2.329 8.02 5.779l16.91 50.731a8.459 8.459 0 0 1-8.019 11.131zm-64.365-16.911h52.634l-11.275-33.821h-30.088l-11.271 33.821z"/><path d="M325.062 512c-.786-1.175-18.995-29.428-.985-83.461 3.179-9.533 2.613-17.464-1.729-24.249-10.176-15.904-39.042-22.504-49.924-23.806h-41.79v-16.91h42.276a7.7 7.7 0 0 1 .934.055c1.869.207 46.009 5.386 62.746 31.551 7.17 11.203 8.358 24.228 3.53 38.712-15.173 45.519-1.078 68.589-.934 68.813L325.062 512zM137.636 135.283c-.313 0-.626-.017-.943-.051-4.642-.516-7.986-4.697-7.47-9.335 9.123-82.117 121.353-91.684 126.126-92.052 4.667-.338 8.717 3.124 9.072 7.775a8.452 8.452 0 0 1-7.77 9.085c-1.032.08-103.048 8.865-110.624 77.056-.477 4.326-4.138 7.522-8.391 7.522z"/></svg>