<svg xmlns="http://www.w3.org/2000/svg" viewBox="0 0 313.344 313.344" width="512" height="512"><path d="M294.144 114.176C280.32 48.128 220.928 0 152.832 0 85.248 0 25.856 48.128 11.52 114.176c-2.048 8.704 0 17.92 5.632 25.088 6.144 6.656 14.336 10.752 23.04 10.752h225.792c8.704 0 16.896-4.096 22.528-10.752 5.632-7.168 7.68-15.872 5.632-25.088zm-12.8 18.432c-3.584 4.608-8.704 7.168-14.848 7.168H40.192c-5.632 0-11.264-2.56-14.848-7.168-3.584-4.608-5.12-10.24-3.584-16.384C35.072 54.784 90.368 10.24 153.344 10.24s118.272 44.544 131.584 105.984c1.024 5.632 0 11.776-3.584 16.384zM289.024 226.816c-6.144-7.168-14.336-11.264-23.04-11.264H40.192c-8.704 0-16.896 4.096-22.528 10.752-5.632 7.168-7.68 15.872-5.632 25.088 12.288 56.32 55.808 61.952 109.056 61.952h49.664c59.392 0 110.592 0 123.904-61.44 2.048-8.704 0-17.92-5.632-25.088zm-4.608 22.528c-11.264 53.248-54.272 53.248-113.664 53.248h-29.184c-60.416 1.024-107.52 1.536-119.808-53.76-1.024-5.632 0-11.776 4.096-16.384 3.584-4.608 8.704-7.168 14.848-7.168h225.792c5.632 0 11.264 2.56 14.848 7.168 3.072 5.12 4.608 11.264 3.072 16.896zM305.92 169.472c-4.608 0-6.656-2.048-10.24-4.608-3.584-3.072-8.192-7.168-16.896-7.168s-13.312 4.096-16.896 7.168c-3.072 2.56-5.12 4.608-10.24 4.608-4.608 0-6.656-2.048-10.24-4.608-3.584-3.072-8.192-7.168-16.896-7.168s-13.312 4.096-16.896 7.168c-3.072 2.56-5.12 4.608-10.24 4.608-4.608 0-6.656-2.048-10.24-4.608-3.584-3.072-8.192-7.168-16.896-7.168s-13.312 4.096-16.896 7.168c-3.072 2.56-5.12 4.608-10.24 4.608s-6.656-2.048-10.24-4.608c-3.584-3.072-8.192-7.168-16.896-7.168s-13.312 4.096-16.896 7.168c-3.072 2.56-5.12 4.608-10.24 4.608-4.608 0-6.656-2.048-10.24-4.608-3.584-3.072-8.192-7.168-16.896-7.168s-13.312 4.096-16.896 7.168c-3.072 2.56-5.12 4.608-10.24 4.608-4.608 0-6.656-2.048-10.24-4.608-3.584-3.072-8.192-7.168-16.896-7.168-3.072 0-5.12 2.048-5.12 5.12s3.072 5.12 5.632 5.12c4.608 0 6.656 2.048 10.24 4.608 3.584 3.072 8.192 7.168 16.896 7.168s13.312-4.096 16.896-7.168c3.072-2.56 5.12-4.608 9.728-4.608s6.656 2.048 10.24 4.608c3.584 3.072 8.192 7.168 16.896 7.168s13.312-4.096 16.896-7.168c3.072-2.56 5.12-4.608 10.24-4.608s6.656 2.048 10.24 4.608c3.584 3.072 8.192 7.168 16.896 7.168s13.312-4.096 16.896-7.168c3.072-2.56 5.12-4.608 10.24-4.608 4.608 0 6.656 2.048 10.24 4.608 3.584 3.072 8.192 7.168 16.896 7.168s13.312-4.096 16.896-7.168c3.072-2.56 5.12-4.608 10.24-4.608 4.608 0 6.656 2.048 10.24 4.608 3.584 3.072 8.192 7.168 16.896 7.168s13.312-4.096 16.896-7.168c3.072-2.56 5.12-4.608 10.24-4.608s6.656 2.048 10.24 4.608c3.584 3.072 8.192 7.168 16.896 7.168 3.072 0 5.12-2.048 5.12-5.12s-2.048-5.12-5.12-5.12zM302.336 190.464H7.936c-3.072 0-5.12 2.048-5.12 5.12s2.048 5.12 5.12 5.12h294.4c3.072 0 5.12-2.048 5.12-5.12s-2.048-5.12-5.12-5.12z" data-original="#000000" class="active-path" data-old_color="#f31270" fill="#f31270"/><circle cx="92.007" cy="65.022" r="5.632" data-original="#000000" class="active-path" data-old_color="#f31270" fill="#f31270"/><circle cx="133.462" cy="65.008" r="5.632" data-original="#000000" class="active-path" data-old_color="#f31270" fill="#f31270"/><circle cx="173.438" cy="66.544" r="5.632" data-original="#000000" class="active-path" data-old_color="#f31270" fill="#f31270"/><circle cx="135.537" cy="31.985" r="5.632" data-original="#000000" class="active-path" data-old_color="#f31270" fill="#f31270"/><circle cx="175.117" cy="33.191" r="5.632" data-original="#000000" class="active-path" data-old_color="#f31270" fill="#f31270"/><circle cx="214.898" cy="66.479" r="5.632" data-original="#000000" class="active-path" data-old_color="#f31270" fill="#f31270"/><circle cx="112.484" cy="48.584" r="5.632" data-original="#000000" class="active-path" data-old_color="#f31270" fill="#f31270"/><circle cx="152.455" cy="50.11" r="5.632" data-original="#000000" class="active-path" data-old_color="#f31270" fill="#f31270"/><circle cx="193.915" cy="50.107" r="5.632" data-original="#000000" class="active-path" data-old_color="#f31270" fill="#f31270"/></svg>