<?xml version="1.0"?>
<svg xmlns="http://www.w3.org/2000/svg" xmlns:xlink="http://www.w3.org/1999/xlink" version="1.1" id="Capa_1" x="0px" y="0px" viewBox="0 0 313.344 313.344" style="enable-background:new 0 0 313.344 313.344;" xml:space="preserve" width="512px" height="512px"><g><g>
	<g>
		<path d="M294.144,114.176C280.32,48.128,220.928,0,152.832,0C85.248,0,25.856,48.128,11.52,114.176    c-2.048,8.704,0,17.92,5.632,25.088c6.144,6.656,14.336,10.752,23.04,10.752h225.792c8.704,0,16.896-4.096,22.528-10.752    C294.144,132.096,296.192,123.392,294.144,114.176z M281.344,132.608c-3.584,4.608-8.704,7.168-14.848,7.168H40.192    c-5.632,0-11.264-2.56-14.848-7.168c-3.584-4.608-5.12-10.24-3.584-16.384C35.072,54.784,90.368,10.24,153.344,10.24    s118.272,44.544,131.584,105.984C285.952,121.856,284.928,128,281.344,132.608z" data-original="#000000" class="active-path" data-old_color="#f31270" fill="#f31270"/>
	</g>
</g><g>
	<g>
		<path d="M289.024,226.816c-6.144-7.168-14.336-11.264-23.04-11.264H40.192c-8.704,0-16.896,4.096-22.528,10.752    c-5.632,7.168-7.68,15.872-5.632,25.088c12.288,56.32,55.808,61.952,109.056,61.952c6.656,0,13.824,0,20.48,0h11.776    c6.144,0,11.776,0,17.408,0c59.392,0,110.592,0,123.904-61.44C296.704,243.2,294.656,233.984,289.024,226.816z M284.416,249.344    c-11.264,53.248-54.272,53.248-113.664,53.248c-5.632,0-11.776,0-17.408,0h-11.776c-60.416,1.024-107.52,1.536-119.808-53.76    c-1.024-5.632,0-11.776,4.096-16.384c3.584-4.608,8.704-7.168,14.848-7.168h225.792c5.632,0,11.264,2.56,14.848,7.168    C284.416,237.568,285.952,243.712,284.416,249.344z" data-original="#000000" class="active-path" data-old_color="#f31270" fill="#f31270"/>
	</g>
</g><g>
	<g>
		<path d="M305.92,169.472c-4.608,0-6.656-2.048-10.24-4.608c-3.584-3.072-8.192-7.168-16.896-7.168s-13.312,4.096-16.896,7.168    c-3.072,2.56-5.12,4.608-10.24,4.608c-4.608,0-6.656-2.048-10.24-4.608c-3.584-3.072-8.192-7.168-16.896-7.168    s-13.312,4.096-16.896,7.168c-3.072,2.56-5.12,4.608-10.24,4.608c-4.608,0-6.656-2.048-10.24-4.608    c-3.584-3.072-8.192-7.168-16.896-7.168c-8.704,0-13.312,4.096-16.896,7.168c-3.072,2.56-5.12,4.608-10.24,4.608    s-6.656-2.048-10.24-4.608c-3.584-3.072-8.192-7.168-16.896-7.168c-8.704,0-13.312,4.096-16.896,7.168    c-3.072,2.56-5.12,4.608-10.24,4.608c-4.608,0-6.656-2.048-10.24-4.608c-3.584-3.072-8.192-7.168-16.896-7.168    s-13.312,4.096-16.896,7.168c-3.072,2.56-5.12,4.608-10.24,4.608c-4.608,0-6.656-2.048-10.24-4.608    c-3.584-3.072-8.192-7.168-16.896-7.168c-3.072,0-5.12,2.048-5.12,5.12c0,3.072,3.072,5.12,5.632,5.12    c4.608,0,6.656,2.048,10.24,4.608c3.584,3.072,8.192,7.168,16.896,7.168c8.704,0,13.312-4.096,16.896-7.168    c3.072-2.56,5.12-4.608,9.728-4.608c4.608,0,6.656,2.048,10.24,4.608c3.584,3.072,8.192,7.168,16.896,7.168    c8.704,0,13.312-4.096,16.896-7.168c3.072-2.56,5.12-4.608,10.24-4.608c5.12,0,6.656,2.048,10.24,4.608    c3.584,3.072,8.192,7.168,16.896,7.168c8.704,0,13.312-4.096,16.896-7.168c3.072-2.56,5.12-4.608,10.24-4.608    c4.608,0,6.656,2.048,10.24,4.608c3.584,3.072,8.192,7.168,16.896,7.168s13.312-4.096,16.896-7.168    c3.072-2.56,5.12-4.608,10.24-4.608c4.608,0,6.656,2.048,10.24,4.608c3.584,3.072,8.192,7.168,16.896,7.168    s13.312-4.096,16.896-7.168c3.072-2.56,5.12-4.608,10.24-4.608s6.656,2.048,10.24,4.608c3.584,3.072,8.192,7.168,16.896,7.168    c3.072,0,5.12-2.048,5.12-5.12C311.04,171.52,308.992,169.472,305.92,169.472z" data-original="#000000" class="active-path" data-old_color="#f31270" fill="#f31270"/>
	</g>
</g><g>
	<g>
		<path d="M302.336,190.464H7.936c-3.072,0-5.12,2.048-5.12,5.12c0,3.072,2.048,5.12,5.12,5.12h294.4c3.072,0,5.12-2.048,5.12-5.12    C307.456,192.512,305.408,190.464,302.336,190.464z" data-original="#000000" class="active-path" data-old_color="#f31270" fill="#f31270"/>
	</g>
</g><g>
	<g>
		<circle cx="92.007" cy="65.022" r="5.632" data-original="#000000" class="active-path" data-old_color="#f31270" fill="#f31270"/>
	</g>
</g><g>
	<g>
		<circle cx="133.462" cy="65.008" r="5.632" data-original="#000000" class="active-path" data-old_color="#f31270" fill="#f31270"/>
	</g>
</g><g>
	<g>
		<circle cx="173.438" cy="66.544" r="5.632" data-original="#000000" class="active-path" data-old_color="#f31270" fill="#f31270"/>
	</g>
</g><g>
	<g>
		<circle cx="135.537" cy="31.985" r="5.632" data-original="#000000" class="active-path" data-old_color="#f31270" fill="#f31270"/>
	</g>
</g><g>
	<g>
		<circle cx="175.117" cy="33.191" r="5.632" data-original="#000000" class="active-path" data-old_color="#f31270" fill="#f31270"/>
	</g>
</g><g>
	<g>
		<circle cx="214.898" cy="66.479" r="5.632" data-original="#000000" class="active-path" data-old_color="#f31270" fill="#f31270"/>
	</g>
</g><g>
	<g>
		<circle cx="112.484" cy="48.584" r="5.632" data-original="#000000" class="active-path" data-old_color="#f31270" fill="#f31270"/>
	</g>
</g><g>
	<g>
		<circle cx="152.455" cy="50.11" r="5.632" data-original="#000000" class="active-path" data-old_color="#f31270" fill="#f31270"/>
	</g>
</g><g>
	<g>
		<circle cx="193.915" cy="50.107" r="5.632" data-original="#000000" class="active-path" data-old_color="#f31270" fill="#f31270"/>
	</g>
</g></g> </svg>
