<svg xmlns="http://www.w3.org/2000/svg" viewBox="0 0 367.104 367.104" width="512" height="512"><path d="M351.772 46.592c-2.56-8.192-9.728-14.336-17.92-16.384C331.804 7.168 314.396.512 313.884.512c-.512 0-1.024-.512-1.536-.512h-148.48c-1.024 0-1.536 0-2.048.512s-12.8 6.656-14.336 29.184c-5.12.512-10.24 3.072-13.312 7.168-3.072 4.096-6.144 10.752-5.632 19.968 0 2.56 2.56 4.608 5.12 4.608h11.776v25.6l2.56 44.544H46.62c-1.024 0-1.536 0-2.048.512-1.536.512-11.776 6.656-13.312 26.624-4.608.512-9.216 3.072-11.776 6.656-2.56 3.584-5.632 10.24-5.12 18.432 0 2.56 2.56 4.608 5.12 4.608h10.752v23.04l11.776 151.04c0 2.56 2.56 4.608 5.12 4.608h138.24c2.56 0 5.12-2.048 5.12-4.608l4.096-48.64h121.344c2.56 0 5.12-2.048 5.12-4.608l13.824-221.696v-25.6h12.8c2.56 0 5.12-2.048 5.12-4.608 0-3.584 0-7.168-1.024-10.752zM181.276 356.864H51.74L40.476 216.576H192.54l-11.264 140.288zm11.264-150.016H39.964V189.44H192.54v17.408zm-167.936-28.16c0-2.56 1.024-4.608 2.56-7.168 1.024-1.536 3.072-2.56 5.12-2.56h3.584c3.072 0 5.12-2.048 5.12-5.12 0-14.336 5.12-20.48 7.168-22.016h132.608c2.56 1.024 11.264 6.656 11.264 22.016 0 3.072 2.048 5.12 5.12 5.12 5.12 0 9.728 3.584 11.264 8.192 0 .512.512 1.024.512 1.536H24.604zm286.72 124.928H195.612l7.68-91.648V188.928h10.752c2.56 0 5.12-2.048 5.12-4.608 0-3.584 0-6.656-1.024-9.728-2.048-7.68-8.704-13.312-16.384-15.36-2.048-20.992-17.92-27.136-18.432-27.136s-1.024-.512-1.536-.512h-23.552l-2.56-39.936h168.448l-12.8 211.968zM324.636 81.92h-168.96V61.952h168.96V81.92zM138.268 51.712c.512-3.072 1.536-6.144 3.584-8.704 1.024-2.048 3.584-3.072 5.632-3.072h4.096c3.072 0 5.12-2.048 5.12-5.12 0-16.384 6.144-23.04 8.192-24.576h145.92c2.56 1.536 12.8 7.168 12.8 24.576 0 3.072 2.048 5.12 5.12 5.12 6.144 0 11.264 4.096 12.8 9.216 0 1.024.512 1.536.512 2.56H138.268z" data-original="#000000" class="active-path" data-old_color="#4e12f3" fill="#4e12f3"/></svg>