<?xml version="1.0"?>
<svg xmlns="http://www.w3.org/2000/svg" xmlns:xlink="http://www.w3.org/1999/xlink" version="1.1" id="Capa_1" x="0px" y="0px" viewBox="0 0 367.104 367.104" style="enable-background:new 0 0 367.104 367.104;" xml:space="preserve" width="512px" height="512px" class=""><g><g>
	<g>
		<path d="M351.772,46.592c-2.56-8.192-9.728-14.336-17.92-16.384c-2.048-23.04-19.456-29.696-19.968-29.696    c-0.512,0-1.024-0.512-1.536-0.512h-148.48c-1.024,0-1.536,0-2.048,0.512c-0.512,0.512-12.8,6.656-14.336,29.184    c-5.12,0.512-10.24,3.072-13.312,7.168c-3.072,4.096-6.144,10.752-5.632,19.968c0,2.56,2.56,4.608,5.12,4.608h11.776v23.04    c0,0.512,0,0.512,0,1.024c0,0.512,0,1.024,0,1.536l2.56,44.544H46.62c-1.024,0-1.536,0-2.048,0.512    c-1.536,0.512-11.776,6.656-13.312,26.624c-4.608,0.512-9.216,3.072-11.776,6.656c-2.56,3.584-5.632,10.24-5.12,18.432    c0,2.56,2.56,4.608,5.12,4.608h10.752v20.48c0,0.512,0,0.512,0,1.024s0,1.024,0,1.536l11.776,151.04c0,2.56,2.56,4.608,5.12,4.608    h138.24c2.56,0,5.12-2.048,5.12-4.608l4.096-48.64h121.344c2.56,0,5.12-2.048,5.12-4.608l13.824-221.696c0-0.512,0-1.024,0-1.536    c0-0.512,0-0.512,0-1.024v-23.04h12.8c2.56,0,5.12-2.048,5.12-4.608C352.796,53.76,352.796,50.176,351.772,46.592z     M181.276,356.864H51.74L40.476,216.576H192.54L181.276,356.864z M192.54,206.848H39.964V189.44H192.54V206.848z M24.604,178.688    c0-2.56,1.024-4.608,2.56-7.168c1.024-1.536,3.072-2.56,5.12-2.56h3.584c3.072,0,5.12-2.048,5.12-5.12    c0-14.336,5.12-20.48,7.168-22.016h132.608c2.56,1.024,11.264,6.656,11.264,22.016c0,3.072,2.048,5.12,5.12,5.12    c5.12,0,9.728,3.584,11.264,8.192c0,0.512,0.512,1.024,0.512,1.536H24.604z M311.324,303.616H195.612l7.68-91.648    c0-0.512,0-1.024,0-1.536c0-0.512,0-0.512,0-1.024v-20.48h10.752c2.56,0,5.12-2.048,5.12-4.608c0-3.584,0-6.656-1.024-9.728    c-2.048-7.68-8.704-13.312-16.384-15.36c-2.048-20.992-17.92-27.136-18.432-27.136s-1.024-0.512-1.536-0.512h-23.552l-2.56-39.936    h168.448L311.324,303.616z M324.636,81.92h-168.96V61.952h168.96V81.92z M138.268,51.712c0.512-3.072,1.536-6.144,3.584-8.704    c1.024-2.048,3.584-3.072,5.632-3.072h4.096c3.072,0,5.12-2.048,5.12-5.12c0-16.384,6.144-23.04,8.192-24.576h145.92    c2.56,1.536,12.8,7.168,12.8,24.576c0,3.072,2.048,5.12,5.12,5.12c6.144,0,11.264,4.096,12.8,9.216    c0,1.024,0.512,1.536,0.512,2.56C342.044,51.712,138.268,51.712,138.268,51.712z" data-original="#000000" class="active-path" data-old_color="#4e12f3" fill="#4e12f3"/>
	</g>
</g></g> </svg>
