<?xml version="1.0" encoding="utf-8"?>
<!-- Svg Vector Icons : http://www.onlinewebfonts.com/icon -->
<!DOCTYPE svg PUBLIC "-//W3C//DTD SVG 1.1//EN" "http://www.w3.org/Graphics/SVG/1.1/DTD/svg11.dtd">
<svg version="1.1" xmlns="http://www.w3.org/2000/svg" xmlns:xlink="http://www.w3.org/1999/xlink" x="0px" y="0px" viewBox="-250 -250 1500 1500" enable-background="new 0 0 1000 1000" xml:space="preserve">
<g><g transform="translate(0.000000,511.000000) scale(0.100000,-0.100000)"><path d="M3474.2,4981.1c-388.8-82.5-1011.3-349.5-1374.6-589.1C1306.4,3867.7,731,3137.2,393.3,2222.2c-86.4-231.7-168.9-549.8-168.9-650c0-208.1,214-335.8,386.8-229.8c88.4,53,117.8,106,153.2,274.9c157.1,746.2,648,1551.3,1256.7,2057.9c447.7,375.1,1015.2,661.8,1537.5,781.5c111.9,23.6,225.8,58.9,251.4,76.6c161,104.1,155.1,326-9.8,435.9C3723.6,5020.4,3666.7,5022.3,3474.2,4981.1z" fill="rgba(0%, 0%, 0%, 0.3)"/><path d="M7676.4,4468.6c-55-21.6-133.5-58.9-176.7-88.4c-104.1-64.8-1543.4-1515.9-1594.5-1604.3c-78.5-135.5-110-269-100.1-439.9c13.8-241.5,70.7-343.6,347.6-626.4l225.8-231.7L4941.1,42.5L3505.7-1394.9l-221.9,219.9c-312.2,312.2-518.4,404.5-787.4,355.4c-267.1-47.1-272.9-53-1107.5-885.6c-803.1-803.1-834.6-840.4-891.5-1064.3c-33.4-137.5-13.7-335.8,51.1-483c51.1-113.9,110-182.6,557.7-634.3c528.2-534.1,650-636.2,887.6-750.1c257.2-121.8,418.3-153.2,763.9-153.2c274.9,0,320.1,3.9,479.1,53c200.3,60.9,412.4,161,542,257.2c49.1,37.3,1349,1327.4,2888.5,2870.8c2945.5,2947.4,2855.1,2853.2,2984.7,3157.5c100.2,229.7,123.7,369.2,123.7,687.3c0,316.1-19.6,434-119.8,677.5c-113.9,274.9-168.9,343.6-728.5,907.2c-636.2,642.1-673.5,667.6-975.9,677.5C7815.8,4503.9,7751.1,4496.1,7676.4,4468.6z M8236.1,3765.6l206.2-204.2L7592,2711.1l-848.3-848.3L6537.5,2071l-206.2,208.1v106v104.1l732.4,732.4c500.7,502.7,748.2,738.3,789.4,750.1C7971,4005.2,8020.1,3979.6,8236.1,3765.6z M8970.5,3029.2c210.1-227.8,325.9-510.5,325.9-793.3c0-174.8-39.3-331.9-129.6-520.4c-70.7-143.3-131.6-208.1-2912.1-2986.7C3493.9-4032,3411.4-4112.5,3268.1-4181.3c-292.6-143.3-573.4-166.9-867.9-74.6c-151.2,49.1-379,194.4-506.6,324l-88.4,90.3L5310.3-336.4c1928.3,1928.3,3511,3505.1,3518.8,3505.1C8835,3168.7,8899.8,3105.8,8970.5,3029.2z M2914.6-1553.9l206.2-206.2l-850.3-850.3l-848.3-848.3l-206.2,208.1l-206.2,208.1v106v104.1l722.6,724.6c396.7,398.6,748.1,736.4,779.6,752.1C2629.9-1300.6,2688.8-1328.1,2914.6-1553.9z" fill="rgba(0%, 0%, 0%, 0.3)"/><path d="M3857.2,3404.3C3217,3245.2,2622,2832.9,2252.9,2290.9c-218-318.1-426.1-803.1-451.6-1054.5c-19.6-180.7,82.5-306.3,249.4-306.3c123.7,0,218,62.8,249.4,166.9c13.7,43.2,47.1,157.1,76.6,255.3c102.1,347.6,312.2,693.2,585.2,962.2c278.8,272.9,640.2,477.2,1007.4,571.4c218,55,267.1,80.5,312.2,168.9c68.7,131.6,2,300.4-143.4,361.3C4059.4,3449.4,4039.8,3449.4,3857.2,3404.3z" fill="rgba(0%, 0%, 0%, 0.3)"/></g></g>
</svg>