<svg xmlns="http://www.w3.org/2000/svg" viewBox="0 0 394.752 394.752" width="512" height="512"><path d="M173.568 41.472c11.264 0 20.48-9.216 20.48-20.48 0-11.264-9.216-20.48-20.48-20.48-3.072 0-5.12 2.048-5.12 5.12s2.048 5.12 5.12 5.12c5.632 0 10.24 4.608 10.24 10.24s-4.608 10.24-10.24 10.24c-11.264 0-20.48 9.216-20.48 20.48-.512 11.264 8.704 20.48 20.48 20.48 3.072 0 5.12-2.048 5.12-5.12s-2.048-5.12-5.12-5.12c-5.632 0-10.24-4.608-10.24-10.24 0-5.632 4.608-10.24 10.24-10.24zM214.016 40.96c11.264 0 20.48-9.216 20.48-20.48 0-11.264-9.216-20.48-20.48-20.48-3.072 0-5.12 2.048-5.12 5.12s2.048 5.12 5.12 5.12c5.632 0 10.24 4.608 10.24 10.24 0 5.632-4.608 10.24-10.24 10.24-11.264 0-20.48 9.216-20.48 20.48s9.216 20.48 20.48 20.48c3.072 0 5.12-2.048 5.12-5.12s-2.048-5.12-5.12-5.12c-5.632 0-10.24-4.608-10.24-10.24s4.608-10.24 10.24-10.24zM385.024 267.776h-43.008v-48.128h26.624c3.072 0 5.12-2.048 5.12-5.12v-58.88c0-3.072-2.048-5.12-5.12-5.12h-13.312V97.28c0-3.072-2.048-5.12-5.12-5.12H23.04c-3.072 0-5.12 2.048-5.12 5.12v58.368c0 3.072 2.048 5.12 5.12 5.12h13.312v48.128H9.728c-3.072 0-5.12 2.048-5.12 5.12v58.368c0 3.072 2.048 5.12 5.12 5.12h43.008v48.128H31.232c-3.072 0-5.12 2.048-5.12 5.12v58.88c0 3.072 2.048 5.12 5.12 5.12H358.4c3.072 0 5.12-2.048 5.12-5.12v-53.248h21.504c3.072 0 5.12-2.048 5.12-5.12v-58.368c0-3.072-2.56-5.12-5.12-5.12zM363.52 160.768v48.128H46.592v-48.128H363.52zm-335.36-10.24V102.4h316.416v48.128H28.16zM14.848 267.776v-48.128h316.416v48.128H14.848zM353.28 384.512H36.352v-48.128H353.28v48.128zm26.624-58.368H358.4 63.488v-48.128h316.416v48.128z" data-original="#000000" class="active-path" data-old_color="#eff312" fill="#eff312"/></svg>