<?xml version="1.0"?>
<svg xmlns="http://www.w3.org/2000/svg" xmlns:xlink="http://www.w3.org/1999/xlink" version="1.1" id="Capa_1" x="0px" y="0px" viewBox="0 0 394.752 394.752" style="enable-background:new 0 0 394.752 394.752;" xml:space="preserve" width="512px" height="512px" class=""><g><g>
	<g>
		<path d="M173.568,41.472c11.264,0,20.48-9.216,20.48-20.48c0-11.264-9.216-20.48-20.48-20.48c-3.072,0-5.12,2.048-5.12,5.12    s2.048,5.12,5.12,5.12c5.632,0,10.24,4.608,10.24,10.24s-4.608,10.24-10.24,10.24c-11.264,0-20.48,9.216-20.48,20.48    c-0.512,11.264,8.704,20.48,20.48,20.48c3.072,0,5.12-2.048,5.12-5.12s-2.048-5.12-5.12-5.12c-5.632,0-10.24-4.608-10.24-10.24    C163.328,46.08,167.936,41.472,173.568,41.472z" data-original="#000000" class="active-path" data-old_color="#eff312" fill="#eff312"/>
	</g>
</g><g>
	<g>
		<path d="M214.016,40.96c11.264,0,20.48-9.216,20.48-20.48c0-11.264-9.216-20.48-20.48-20.48c-3.072,0-5.12,2.048-5.12,5.12    c0,3.072,2.048,5.12,5.12,5.12c5.632,0,10.24,4.608,10.24,10.24c0,5.632-4.608,10.24-10.24,10.24    c-11.264,0-20.48,9.216-20.48,20.48s9.216,20.48,20.48,20.48c3.072,0,5.12-2.048,5.12-5.12c0-3.072-2.048-5.12-5.12-5.12    c-5.632,0-10.24-4.608-10.24-10.24S208.384,40.96,214.016,40.96z" data-original="#000000" class="active-path" data-old_color="#eff312" fill="#eff312"/>
	</g>
</g><g>
	<g>
		<path d="M385.024,267.776h-43.008v-48.128h26.624c3.072,0,5.12-2.048,5.12-5.12v-58.88c0-3.072-2.048-5.12-5.12-5.12h-13.312    V97.28c0-3.072-2.048-5.12-5.12-5.12H23.04c-3.072,0-5.12,2.048-5.12,5.12v58.368c0,3.072,2.048,5.12,5.12,5.12h13.312v48.128    H9.728c-3.072,0-5.12,2.048-5.12,5.12v58.368c0,3.072,2.048,5.12,5.12,5.12h43.008v48.128H31.232c-3.072,0-5.12,2.048-5.12,5.12    v58.88c0,3.072,2.048,5.12,5.12,5.12H358.4c3.072,0,5.12-2.048,5.12-5.12v-53.248h21.504c3.072,0,5.12-2.048,5.12-5.12v-58.368    C390.144,269.824,387.584,267.776,385.024,267.776z M363.52,160.768v48.128H46.592v-48.128h303.104H363.52z M28.16,150.528V102.4    h316.416v48.128H41.472H28.16z M14.848,267.776L14.848,267.776v-48.128h316.416v48.128H14.848z M353.28,384.512H36.352v-48.128    h20.992c0,0,0,0,0.512,0H353.28V384.512z M379.904,326.144H358.4c0,0,0,0-0.512,0h-294.4v-48.128h316.416V326.144z" data-original="#000000" class="active-path" data-old_color="#eff312" fill="#eff312"/>
	</g>
</g></g> </svg>
