<svg xmlns="http://www.w3.org/2000/svg" xmlns:xlink="http://www.w3.org/1999/xlink" viewBox="0 0 800 800"><style>.st0{fill:none}.st1{fill:#57167d}.st2{fill:#ca6569}.st3{fill:#72191c}.st4{fill:#5d1617}.st5{fill:#c02a23}.st6{fill:#c44645}.st7{fill:#621949}.st8{fill:#a01127}.st9{fill:#084c5d}.st10{fill:#be0411}.st11{opacity:.4}.st12{opacity:6e-2}.st13{clip-path:url(#SVGID_2_)}</style><g id="Objects_1_"><path class="st0" d="M800 10.2V0h-93.9l.4 3.1-1.8 5.2-.3-2.6c-2.1 4.7-7.1 14.9-9.6 22.5-1.1 3.3-1.5 5.9-1.6 7.5 1.8 1.9 8.2 4 8.2 4l14.5 2.4s7.8 1.1 12.1 2.9c1.5.7 2.3 1.6 2.7 2.4v-.1s1.7 2.3 1.9 5.7c.2 3.4-4.5 7.4-4.5 7.4s-7 6-11.2 8c-1.5.7-3 1.8-4.2 2.8 1.5.1 4.9.4 4.9.4s5.4.2 10.3.3c4.9 0 8.8 2.1 10.6 3 .4.2.7.6.9 1v-.1l2.3 5.5v.1l.4.2.2 4.7-1.7-1.6c-.1.2-.2.3-.3.5-.1.2-.3.4-.4.6.7.2 1.3.4 1.9.6 1.5.9 2.2 2 2.4 3l1.9 4.7s-.5 2.6-1.6 4.5c0 .1-.1.2-.2.2.4.2.8.5 1.1.9v.1l1.6 5.1s.5.8-2.1 3.5c-2.6 2.6-5.9 3.8-5.9 3.8s-.5-3.7-.7-5.2c2.5-.5 4.2-2.2 5.3-3.8-.6-.2-1.5-.3-2.5-.3l-.1 1.1-2.3-.1c-1 .8-2 1.5-2.8 2.1-3 2.2-6.6 2.2-6.6 2.2l-1.8-5.2s.9-2.4 4.4-3.3c.8-.2 1.8-.5 2.9-.8l.3-2.9 5.3.3c.5-.4.8-.7 1.1-.9 1-.9 1.7-2.5 2.1-3.9-1.5-.4-5.9-1.5-8.4-1.2-1.1.9-2.5 1.9-4 3-5 3.5-9.4 2.6-9.4 2.6L721 94l-2.6-.6 1.7-1.5-.4-.9h.1l-.4-.9s.8-1.5 5.7-3c2.2-.7 5.1-1.2 7.9-1.5 1.6-1.2 3.4-2.8 4.6-4.1.5-.6.8-1.3 1.1-2.1-2.8-1.4-9-2.6-14.8-2.7l-.5.4-1.9-.4h-1c-7.6.4-11.4-1.8-11.6-1.9l-1.7-4.9s3.7-4.7 7.5-6.6c3.9-1.8 11.2-8.1 13.1-9.7.9-.7 1.5-2.1 1.9-3.4l-7.3-2.5-14-2.3s-10.1-2.3-13.1-4.5c-1.5-1.1-2.2-2.5-2.5-3.6-5.4-8.6 7.9-32.2 7.9-32.2l3.3-1.3-.2-1.8.7-2.1H586.1V8S567-2.9 558.8 10.7l-2-10.9h-46.1l-.8 1.2-.5-1h-6l-.9 6.9S490.7-2 484 6.4l-.3-6.4h-55.8l-.3 2.2-4 2 .6-4.2h-36.4l-.5 4.5-1.8-2.3.9-2.2h-16.7c-.5.9-.9 1.4-.9 1.4.1-.4 0-.8-.1-1.4h-85l2 1.6 1.5 3.3-4.4-3.6-.5-1.3h-36.4l-1.6 4.3s.1 0 .1.1c1.6.9 2.2 2 2.4 3l1.9 4.7s-.5 2.6-1.6 4.5c0 .1-.1.2-.2.2.4.2.8.5 1.1.9v.1l1.6 5.1s.5.8-2.1 3.5c-2.6 2.6-5.9 3.8-5.9 3.8s-.5-3.7-.7-5.2c2.5-.5 4.2-2.2 5.3-3.8-.7-.2-2-.4-3.2-.2-.2 0-.5.1-.8.2-1.3 1-2.6 2-3.7 2.8-3 2.2-6.6 2.2-6.6 2.2l-1.8-5.2s.9-2.4 4.4-3.3c1.6-.4 3.8-1.2 6.1-1.6 1.6-1.2 2.9-2.3 3.5-2.9 1-.9 1.7-2.5 2.1-3.9-1.5-.4-5.9-1.5-8.4-1.2-1.1.9-2.5 1.9-4 3-5 3.5-9.4 2.6-9.4 2.6l-2-4.9h.1l-.4-.9s.8-1.5 5.7-3c2.2-.7 5.1-1.2 7.9-1.5.5-.4 1.1-.9 1.6-1.3l.8-2.1h-68.4l-.9 6.9S157-2 150.3 6.4l-.1-6.4H88.7l-1.6 3.9L84.6 0H33.4l.5.7-2.1-.7H0v26.4c4.2.4 6.5 3.7 6.5 3.7-1.3-.5-3.9-.1-6.5.6v12.6l1.5.2 2 4-3.5-.3v28.5l3.5.9L0 80.3v22l2.9.9 4.3 5.3-7.2-2.3v142.9l8.9.1s5.5-.7 7.1-1.8c-.2-1.2-.6-3.2-1.6-5.7-2.9-7.1-8.9-17.3-9.8-19.3l3.8 1.8s12.2 18.9 7.7 24.4c-.2.8-.8 1.7-2.1 2.3-2.6 1.2-11.4 1.6-11.4 1.6H0v13.9c2.4 1.9 4.3 4.1 4.3 4.1l-1.4 3.3c-.1 0-1 .3-2.8.5V305c1.7-.4 3.5-.5 5.5-.3l9.2 8.9s-9.7 2.8-14.7 9.5v94.5c1.7-.4 3.6-.6 5.7-.4l9.2 8.9S5 429 .1 435.8V800h800V316.6l-4.9-.7 3-6 1.9 1.1V133.8l-2.2 1.9-4-.9 3.2-2.8 3 .7v-18.6l-.2.7-.7-6.2.9-2.7V76.4l-.5-2.2.5.2V13.5l-.3.2-4.1-1 3.2-2.8 1.1.3zm-76.8 25l-4.1-1 3.2-2.8 4.1 1-3.2 2.8zm-1.1-15.3l-3.6-5.7 6.8-3.8 3.6 5.7-6.8 3.8zm19.4 22.2l-1.4-6 1.1-5.7 1.4 6-1.1 5.7zM6.2 356.1L3 360.5l1.2-6.1 3.2-4.4-1.2 6.1zm791.6-165.6l-.8 3.4-1.1-.6-.2-4.8 2.1 2zm-8.4-10.3l-1.3-6.1 1.2-5.7 1.3 6.1-1.2 5.7zm1.5 119.5l-2.5 3.3-1.3-4.1 2.5-3.3 1.3 4.1zm-2.5-266.6l2.1 5.8-3.7-3.2-2.1-5.8 3.7 3.2zM788 283l-6.1-1.2-4.8-3.3 6.1 1.2 4.8 3.3zm-6 37.5l-2.5 3.3-1.3-4.1 2.5-3.3 1.3 4.1zm-3.3-118.4l3.7-2.6.1 7-3.7 2.6-.1-7zm-4-82.8l-1.1-7 8.2-.9 1.1 7-8.2.9zm3.2-98.9l4.1 1-3.2 2.8-4.1-1 3.2-2.8zm-5.7 38.9l6.7.3-.8 7.8-6.7-.3.8-7.8zm2.1 19.2l3.1 4.5-3.9-1.1-3.1-4.5 3.9 1.1zm-1.3 30.2l-3.2 2.8-4.1-1 3.2-2.8 4.1 1zm-13 85.7l.1 7-3.7 2.6-.1-7 3.7-2.6zm-2.5-30.4l4.7 1.9 1.4 6.7-4.7-1.9-1.4-6.7zm4.5 122.3l3.5-.6-4.5 3.3-3.5.6 4.5-3.3zm2.9-130l.8-7.8 6.7.3-.8 7.8-6.7-.3zm-2.6-154l4.6 3.1 1.4 5-6.7-.3.7-7.8zm-7.5 50.3l-2-3 4.9 2.8 2 3-4.9-2.8zm.4-31.8l4.1 1-3.2 2.8-4.1-1 3.2-2.8zm-1.3 195.9l-4.9-2.8-2-3 4.9 2.8 2 3zm-14.5 20l1.3 4.1-2.5 3.3-1.3-4.1 2.5-3.3zm-2.3-23.3l.8-3.3 1 .6.2 4.7-2-2zm1.6 46.7l2.7 2.1-1 .7-4.4-1.7 2.7-1.1zm3.4 35.5l6.8 3.9-3 6-6.8-3.9 3-6zm5.6-119.8l3.6 5.7-6.8 3.8-3.6-5.7 6.8-3.8zm-8.7-52.6l4 .9-3.2 2.8-4-.9 3.2-2.8zm4.9 34l1.1 7-8.2.9-1.1-7 8.2-.9zM730 146.9l4.1 1-3.2 2.8-4.1-1 3.2-2.8zm.4 146.6l-5.3 1 2.6-3.1 5.3-1-2.6 3.1zm2.5 73.4l-3.8 5-1.9-6.2 3.8-5 1.9 6.2zm-12.4-114l3-6 6.8 3.9-3 6-6.8-3.9zm3.5 65.4l-3.6 3.5-6.7-1.5 3.6-3.5 6.7 1.5zm3.3-132.4l.9-5.7 3.1-3.4-.9 5.8-3.1 3.3zm-7.1-63.6l6 1.4-4.7 4.2-6-1.4 4.7-4.2zm-3.9 115.5l2.7 4.5-3.4 3.1-2.7-4.5 3.4-3.1zm-5.7-17.6l1.9 6-3.7 4.9-1.9-6 3.7-4.9zm2.2 132.8l-2.7 1.1-2.8-2.1 1-.7 4.5 1.7zm-6.1-300.1l2.1 5.8-3.7-3.2-2.1-5.8 3.7 3.2zm-2 219.7l1.3 4.1-2.5 3.3-1.3-4.1 2.5-3.3zM706 371l6.2.5-4.4 2-6.2-.5 4.4-2zm-1.9 22.4l1.3 4.1-2.5 3.3-1.3-4.1 2.5-3.3zm-5.4-209.3l1.9 6-3.7 4.9-1.9-6 3.7-4.9zm-5.7 93.1l6.9 1.9-2.6 7.9-6.9-1.9 2.6-7.9zm-2.1 28.5l-4-3.7 5.9 1.9 4 3.7-5.9-1.9zm4.9 30.5l-6.6.9-.7-7.8 3.5-.5.7-.9.2.8 2.2-.3.7 7.8zm-5.6-193.1l-3.6 4.4-3.3 1.5 3.6-4.4 3.3-1.5zm-34.5 103.7l-6.7-1.5 3.6-3.5 6.7 1.5-3.6 3.5zm3.2 47.7l-3 6-6.8-3.9 3-6 6.8 3.9zm-13.7-71.9l6.6-.9.7 7.8-6.6.9-.7-7.8zm.5 121.3l-4.9-3.2-1.8-4.2 4.9 3.2 1.8 4.2zm5.9-137.2l4.9 3.2 1.8 4.2-4.9-3.2-1.8-4.2zm-12.8-26.1l8.7-12s23.8 2.6 21.3 21.3l-9.3 8.8c.1-.1-5.1-21.5-20.7-18.1zm15.4-80.3l5.4 2.1-6.2.4-5.4-2.1 6.2-.4zm-2.6-31.8l6.2-.5 5.5 2-6.2.5-5.5-2zm3.4 71.8l2.7 7.3-6.2 2.6-2.7-7.3 6.2-2.6zm-2.2 20.7l2.9 3.6-5.5-1.8-2.9-3.6 5.5 1.8zm30.8 89.4l-1.1 8.5s-11.8-8.9-18.5-.5l-.6-10c.1.1 13.5-8.7 20.2 2zM678 138.7l-7-1-2-4 7 1 2 4zm-.4-26.4l7 1 2 4-7-1-2-4zm4.7 112l2.5-3.3 1.3 4.1-2.5 3.3-1.3-4.1zm2-65.1l-3.2-1.3.8-.9 4.7.5-2.3 1.7zm.9-73.9l-7.5-1.9 3.8-4 5.1-.6-1.4 6.5zm1.4-25.9l-8.3-2.6-4.3-5.3 8.3 2.6 4.3 5.3zm-10.6-43l3.2 1.3-.8 1-4.8-.5 2.4-1.8zm-4.9 79.2l3.2 1.3-.8 1-4.8-.5 2.4-1.8zm-4.5-56.4l-6.2 2.6-2.7-7.3 6.2-2.6 2.7 7.3zm-16.4-34l7.7 2.9-2.2 6.8L648 12l2.2-6.8zm-9 121.8l6.8-.3-2.6 4.4-6.8.3 2.6-4.4zm-4.3 16.8l-.4 8.3h-7.1l.4-8.3h7.1zm-6.1-111.3l2.9 3.6-5.5-1.8-2.9-3.6 5.5 1.8zm3.7 44.7l-1.4 6.6-7.5-1.9 1.3-6.6 7.6 1.9zm-8.5 37.2l7.5 1.9-1.3 6.6-7.5-1.9 1.3-6.6zm-9.8 103.4l-3.5.6 4.6-3.3 3.5-.6-4.6 3.3zm.4 33.7l-6.5-2.8-.8-4.4 6.5 2.8.8 4.4zm-5.6-67.3l7-4.4 4.1 5.8-7 4.4-4.1-5.8zm8.9 21.3l2.6-1.1 2.7 2.1-1 .7-4.3-1.7zM621.1 6l3.3-1.5-3.6 4.4-3.3 1.5 3.6-4.4zM619 152.1l2.3 3.6-1.6 3.9-2.3-3.6 1.6-3.9zm-3.6-61.2l-2.3-3.6 1.5-3.8 2.3 3.6-1.5 3.8zM590.9 368l-3.5.6 4.6-3.3 3.5-.6-4.6 3.3zm2.2 68.8l1.9 6.2-3.8 5-1.9-6.2 3.8-5zm-5.5-289l-2.5 3.9-3.8-3.6 2.5-3.9 3.8 3.6zm-2.8-36.4l1.6-3.9 2.3 3.6-1.6 3.9-2.3-3.6zm1.3 125.2l-7 4.4-4.1-5.8 7-4.4 4.1 5.8zm4.2 46.6l.7 7.8-6.6.9-.7-7.8 6.6-.9zm2.8 61.2l-2.8-2.1 1-.7 4.5 1.7-2.7 1.1zm2.4-201.1l1.5-3.8 2.3 3.6-1.5 3.8-2.3-3.6zm2 18.1l-2.3 5.7-3.4-5.3 2.3-5.7 3.4 5.3zm-.3-53.9h-7.1l.4-8.3h7.1l-.4 8.3zm-6.8-25.7l-4.8-2.6 6.2.3 4.8 2.6-6.2-.3zm2-63.5l2 4-7-1-2-4 7 1zm-7.2 30.4l2.7 7.3-3.3 1.4-.4 1.1-.4-.7-2 .9-2.7-7.3 6.1-2.7zm-15.7 87.5l7.5 1.9-1.3 6.6-7.5-1.9 1.3-6.6zm-14.3-31l1.6-3.7 4.9-2.4-1.6 3.7-4.9 2.4zm4.7 29l-2.3 1.8-3.2-1.3.8-.9 4.7.4zm2.4 17.1l2.3 3.6-1.6 3.9-2.3-3.6 1.6-3.9zm1-75.7l-6.8.3 2.6-4.4 6.8-.3-2.6 4.4zm-5.1-36.1l2.3-1.8 3.2 1.3-.8 1-4.7-.5zm-.5-21.1l6.1-1.1-3.8 3.1-6.1 1.1 3.8-3.1zm-2.8 190.1l6.8 3.9-3 6-6.8-3.9 3-6zm0 128.5l6.7 4.9-3.9 6-6.7-4.9 3.9-6zm-7.8-31.8l.2-8.3 7.1-.2-.2 8.3-7.1.2zm-2.3-246.9l6.9 3.6-2.8 6.1-6.9-3.6 2.8-6.1zm.6 89.4l2.3 3.6-1.6 3.9-2.3-3.6 1.6-3.9zm-7.9-47l1.4-6.6 7.5 1.9-1.3 6.6-7.6-1.9zm0-75.1L541 31l-2.4 5.8-3.5-5.4 2.4-5.8zm-9 88.3l3.3-1.5-3.6 4.4-3.3 1.5 3.6-4.4zm4.6 104.5l-6.1-1.2-4.8-3.3 6.1 1.2 4.8 3.3zm-6-55.1l-3.8 3.1-6.1 1.1 3.8-3.1 6.1-1.1zm-8.9 86.3l-6.6.9-.7-7.8 6.6-.9.7 7.8zm-1.8-167l-6.1 1.1 3.8-3.1 6.1-1.1-3.8 3.1zm.7-65.1l3.5 5.4-2.4 5.8-3.5-5.4 2.4-5.8zm-4.8 56l-3.2-1.3.8-1 4.8.5-2.4 1.8zm-1.2-30.1l.5 7.8-6.7.7-.5-7.8 6.7-.7zm-.9 83l5.5 2-6.2.5-5.5-2 6.2-.5zm-4.1 19l-1.6 3.9-2.3-3.6 1.6-3.9 2.3 3.6zm-4.6-60.2l2.3 3.6-1.6 3.9-2.3-3.6 1.6-3.9zm-3.1 22.4l2.3 3.6-1.6 3.9-2.3-3.6 1.6-3.9zm6.8 241.9s-11.8-8.9-18.5-.5l-.6-10s13.5-8.8 20.1 1.9l-1 8.6zm2.2 29.8l-.7 3.5-1.4-5.5.8-3.5 1.3 5.5zm-31.3-146.5l-6.2-.5 4.4-2 6.2.5-4.4 2zm7.1 128.4l-5 5-4.4-.9 5-5 4.4.9zm-8.4 75.2l2.1 3.6-4.3-.3-2.1-3.6 4.3.3zm5.1 27.9l3.4-1.3c-.7 2-5.9 12.3-8.3 19.6-1.4 4.3-1.4 7.3-1.4 7.3-4.2-6.8 6.3-25.6 6.3-25.6zm1.2-57.5l1.6-6.5 7.5 2.2-1.6 6.5-7.5-2.2zm8.5 113.6l1.4 2.6-1.8 3-.8-.9 1.2-4.7zm.7-134.5l-4.4-.9 5-5 4.4.9-5 5zm8 136.4l-.2-6.2 2.5 4.2.2 6.2-2.5-4.2zm1.3 52.9l-3.8 1.7-3.5-2.1 3.9-1.7 3.4 2.1zm-1.8-157.5l-4.6.2 4.7-3.4 4.6-.2-4.7 3.4zm-7.7-131.2l4.6-3.3 3.5-.6-4.6 3.3-3.5.6zm10.4 19.1l-2.8-2.1 1-.7 4.5 1.7-2.7 1.1zm-4.7-43.4l-2.8-2.1 1-.7 4.5 1.7-2.7 1.1zm-1.4-199.4l2.3 3.6-1.6 3.9-2.3-3.6 1.6-3.9zm2.1 125.6s-21.2 6.2-17 21.6l-12.4-8.2s1.5-23.9 20.2-22.3l9.2 8.9zm-30.9-31.7l6.2.3 4.8 2.6-6.2-.3-4.8-2.6zm19.1-10l-2.7-7.3 6.2-2.6 2.7 7.3-6.2 2.6zm3.9-49.7l-1.3 6.6-7.5-1.9 3.8-4 5-.7zm-15.8-67l7.5 1.9-1.3 6.6-7.5-1.9 1.3-6.6zm1.1 20.6l4.3 5.3-8.3-2.7-4.3-5.3 8.3 2.7zm-2.4 70.1l.5 7.8-6.7.7-.5-7.8 6.7-.7zm-3.9 277l1.9 4.7-3.8 5.7-1.9-4.7 3.8-5.7zm-35 73.5l-4.4-5 6.1-4.9 4.4 5-6.1 4.9zm1.6 85.7L433 563l-3.2 4.4 1.2-6.1 3.2-4.4zM405 174.1l-3.6 2.3-3.9-1.6 3.6-2.3 3.9 1.6zm-2.7-32.6l4.4 3.6 1.5 3.3-4.4-3.6-1.5-3.3zm6.4 188.8l-1.6 6.5-7.5-2.2 1.6-6.5 7.5 2.2zm-9.5-22.9l.3 1.2-3.3 3.5v-2.9l3-1.8zm1.8 104.7l-3.9 4.8-5 2.3 3.9-4.8 5-2.3zm-7.2 38.1l2 3.5-1 5.4-2-3.5 1-5.4zm3.7 72.2l2.1 3.6-4.3-.3-2.1-3.6 4.3.3zm9.6 39.3l.9 3.5 1 .6-.8.3.6 2.1-7.6 1.6-1.7-6.5 7.6-1.6zm1.9 51.1l2.7-5.2-.4 6.2-2.7 5.2.4-6.2zm20.8-281.3l-6.8.2 7.1-5.1 6.8-.2-7.1 5.1zm1.6 20l-3.3 5.2-4.9 3.2 3.3-5.2 4.9-3.2zm-7 32.4l-6.1 4.9-4.4-5 6.1-4.9 4.4 5zm-4.9 18.4l-4.2-.3-2.1-3.5 4.2.3 2.1 3.5zm-8.2-193.9l-.7-6.7 7.8-.5.7 6.7-7.8.5zm-.1 218.9l4.3-5.7 6.4 5.3-4.3 5.7-6.4-5.3zm8.4 8.5l2.1 3.6-4.3-.3-2.1-3.6 4.3.3zm1.2 39.8l-2.9 1.7-.3-1.2 3.2-3.4v2.9zm2.9 158.9l1.7 6.5-7.6 1.6-1.7-6.5 7.6-1.6zM425 496l-2.1-3.6 4.3.3 2.1 3.6-4.3-.3zm15.2-14.7l2.1 3.6-4.3-.3-2.1-3.6 4.3.3zm-13.8-182.7l8.7-12s23.8 2.6 21.3 21.3l-9.3 8.8c0-.1-5.2-21.5-20.7-18.1zM448 273l-3 6-6.8-3.9 3-6 6.8 3.9zm-10.4-145.1l3.6-2.3 3.9 1.6-3.6 2.3-3.9-1.6zm9 79.8l.3-6.2 2.6-4.8-.3 6.2-2.6 4.8zm-1.5-95.1l-3.9-1.6 3.6-2.3 3.9 1.6-3.6 2.3zM438 92l-3.9-2.5 3.6-3.8 3.9 2.5L438 92zm1.2 76.7l-3.6 2.3-3.9-1.6 3.6-2.3 3.9 1.6zm-5.2 13.7l2.6 6.2-7.3 2.7-2.6-6.2 7.3-2.7zm19 60.6l3-6 6.8 3.9-3 6-6.8-3.9zm-6.2 139.1l3.4-5.2 4.9-3.1-3.4 5.2-4.9 3.1zm3 81l-5.2.9-1.6-4.3 5.2-.9 1.6 4.3zm1.6 95.3l8.1 1.6-1 7.1-8.1-1.6 1-7.1zm9.9 104.7l3.6 2.1-3.9 1.8-3.6-2.1 3.9-1.8zm.6-199.3l-3.1-5.3 6.3.5 3.1 5.3-6.3-.5zm-.7-381.5l2.3 3.6-1.5 3.8-2.3-3.6 1.5-3.8zm-6.9 69.9l-1.1-6.1 3.1 3.8 1.1 6.1-3.1-3.8zm-2.6-70.7l-5.7-2.3 5.3-3.4 5.7 2.3-5.3 3.4zm-.7-61l3.6-2.9-1.8 5.5-3.6 2.9 1.8-5.5zm-5.4 31.4l3.9 1.6-3.6 2.3-3.9-1.6 3.6-2.3zm-3.6-8l-8.3-.4v-7.1l8.3.4v7.1zm-4.5-28.3l2.6 6.2-7.3 2.7-2.6-6.2 7.3-2.7zM433 73.9l3.8 1.5-3.6 2.3-3.8-1.5 3.6-2.3zm-5 22.3l6.6 1.3-1.9 7.5-6.6-1.4 1.9-7.4zm-9.1 170.3l-4.1-5.8 7-4.4 4.1 5.8-7 4.4zm5.2-153.1l1.8 2.3-1.3 3.2-.9-.8.4-4.7zm-.4 116.4l1.9 6.2-3.8 5-1.9-6.2 3.8-5zm-2.7-202l.3 6.8-4.4-2.6-.3-6.8 4.4 2.6zm-2.7 129.7l.5 6.2-2 5.5-.5-6.2 2-5.5zM406.2 39.8l6.6 1.3-1.9 7.5-6.6-1.4 1.9-7.4zm-1.3 46.4l-3.6 2.3-3.9-1.6 3.6-2.3 3.9 1.6zm-12.6-72.5l.4 6.2-2.1 5.4-.4-6.2 2.1-5.4zm5.1 62.4v7.1l-8.3-.4v-7.1l8.3.4zm-4.6 37.1l2.4 4.9-3.7-1.6-2.4-4.9 3.7 1.6zm-6.8 13.7l6.6 1.3-1.9 7.5-6.6-1.4 1.9-7.4zm7.5 59.2l-1.9 7.5-4-3.8-.6-5.1 6.5 1.4zm-4.1 67.9l4 3.7-5.9-1.9-4-3.7 5.9 1.9zm-7.3 206.6l4.4 5-6.1 4.9-4.4-5 6.1-4.9zm-4.9-102.3l4.7-3.4 4.6-.2-4.7 3.4-4.6.2zm9.9 132.8l-1.4-5.5.8-3.5 1.4 5.5-.8 3.5zm2.5 13.4l-3.3 5.2-4.9 3.2 3.3-5.2 4.9-3.2zm-9.8 27.2l7.5 2.2-1.6 6.5-7.5-2.2 1.6-6.5zm6.3 25.1l5-2.3-3.9 4.8-5 2.3 3.9-4.8zm-10.3-227.9l-4.1-5.8 7-4.4 4.1 5.8-7 4.4zM353.5 541l3.4-5.8 6.5 4.3-3.4 5.8-6.5-4.3zm3.5 62l-1.8 3-.8-.9 1.2-4.6 1.4 2.5zm-8.4-511.4l-7.3 2.7-2.6-6.2 7.3-2.7 1.4 3.3 1.1.4-.7.4.8 2.1zm3.3 29.9l6.1 2.8-3.6 6.9-6.1-2.8 3.6-6.9zm-3-57.4l1.9-7.5 6.6 1.3-1.9 7.5-6.6-1.3zm-5.6 204.4l4.1 5.8-7 4.4-4.1-5.8 7-4.4zm-.1-65.1l-5.3 4.3 2.6-8.3 5.3-4.3-2.6 8.3zm-2.1-41.7l.7 6.7-7.8.5-.7-6.7 7.8-.5zm2 68.4l-1.1 8.5s-11.8-8.9-18.5-.5l-.6-10c.1 0 13.6-8.7 20.2 2zm-16.2 195.8l3.2 5.4-6.4-.5-3.2-5.4 6.4.5zm-.1-20.9l2.7-5.5.2 4.9-2.7 5.5-.2-4.9zm2.7-289.9l-1.8-2.3 1.3-3.2 1 .8-.5 4.7zm-1.2-44.3l-1.4-1.2.8-7.1 2.7 3.5-2.1 4.8zm.1 123.5l-1.9 7.5-6.6-1.3 1.9-7.5 6.6 1.3zm-4.2 326.5l2.1 3.5-4.2-.3-2.1-3.5 4.2.3zm.1-38.6l4.3.3 2.1 3.6-4.3-.3-2.1-3.6zm6.4-159.8l3.9-4.8 5-2.3-3.9 4.8-5 2.3zm6.6 18.6l7.6 3.2-2.4 6.7-7.6-3.2 2.4-6.7zm6.3 130.4v2.9l-3 1.8-.3-1.2 3.3-3.5zm-1-89.3l5-5 4.4.9-5 5-4.4-.9zm4.7 31.7l-3.3 3.5v-2.9l3-1.8.3 1.2zm.4 203.6l3.6 2.1-3.9 1.8-3.6-2.1 3.9-1.8zm-1.1-100.1l-1-5.4 2.6-4.5 4.4 5-6 4.9zm2-23.7l-2.1-3.6 4.3.3 2.1 3.6-4.3-.3zm2-11.5l-.2-4.9 2.7-5.5.2 4.9-2.7 5.5zm2.1-303.2l3.6-2.3 3.9 1.6-3.6 2.3-3.9-1.6zm8.9-20.3l1.8 2.3-1.3 3.2-1-.8.5-4.7zm-.4-51.2l4.4 2.6.3 6.8-4.4-2.6-.3-6.8zm3.2 113.7l4.1 5.8-7 4.4-4.1-5.8 7-4.4zm11.6-7.4l-3.8-1.5 3.6-2.3 3.8 1.5-3.6 2.3zm1.2 86.6l-.7 3.5-1.4-5.5.8-3.5 1.3 5.5zm-6.7-141.1l-1.1-6.1 3.1 3.8 1.1 6.1-3.1-3.8zm1.2-76.3l-2.6 4.8.3-6.2 2.6-4.8-.3 6.2zm-1.5 177.9l4.1 5.8-7 4.4-4.1-5.8 7-4.4zm4.5 147l-.8-.1-.5 2.1-7.5-2.2 1.6-6.5 7.5 2.2-.8 3.5.5 1zm-5-26.7l-.4-1.8 4.9-5.3.1 4.4-4.6 2.7zm-12.2-84.2l-3.3 3.5v-2.9l3-1.8.3 1.2zm4.5 356.3l3.5 2.1-3.8 1.7-3.5-2.1 3.8-1.7zm2.3-50.9l-.2-6.2 2.5 4.2.2 6.2-2.5-4.2zm.5-92.8l-2.1-3.6 4.3.3 2.1 3.6-4.3-.3zm6.1 104.2l3.6 2.1-3.9 1.8-3.6-2.1 3.9-1.8zm1.2-173.2l-1.9-4.7 3.8-5.7 1.9 4.7-3.8 5.7zm6.8-267.1l-3.9-1.6 3.6-2.3 3.9 1.6-3.6 2.3zm2-115.5l-3.6 2.3-3.8-1.5 3.6-2.3 3.8 1.5zm-7.2-17.8l-1.9 7.5-6.6-1.4 1.9-7.5 6.6 1.4zM369.4 1c-.3 4.6-4.1 9.4-9.2 13.7l.1 1.4-2 5.5-.4-5.1C347.7 24.8 334.2 31 334.2 31l-6.3-1.7c3.1-2.2 21-11.3 31.9-19.3 6.5-4.7 9.6-9 9.6-9zm-40.3 5.7l2.6 6.2-7.3 2.7-2.6-6.2 7.3-2.7zm-6.7 35.7l3.6-2.9-1.8 5.5-3.6 2.9 1.8-5.5zm-1.5 89.9l5.8 2.4-5.4 3.5-5.8-2.4 5.4-3.5zm-2.2 22.8l-5.4 3.5-5.8-2.4 5.4-3.5 5.8 2.4zm-15.2 166.2l-4.4-.9 5-5 4.4.9-5 5zm6.2 72.9l-4.3-.3-2.1-3.6 4.3.3 2.1 3.6zm-1.5 43.3l3.2 5.4-6.4-.5-3.2-5.4 6.4.5zm1.5 115l1.7 6.5-7.6 1.6-1.7-6.5 7.6-1.6zm1.7-171.3l-.3-6.8 3.8-7.8.3 6.8-3.8 7.8zm-3.2-300.3l4-2-1 7-4 2 1-7zm2.1 32.4l1.1 6.1-3.1-3.8-1.1-6.1 3.1 3.8zM299 271.8l-3.6-2.9 7.2-1.9 3.6 2.9-7.2 1.9zm-.9-256.4l6.8 2.2-2.9 7.7-6.8-2.2 2.9-7.7zm.7 37.1l1.5 3.3-4.4-3.6-1.5-3.3 4.4 3.6zm-14.1 113.7l-3.8-2.4 6.4-2.8 3.8 2.4-6.4 2.8zm6 138.4l-2.7-4.2-.3-6.2 2.7 4.2.3 6.2zm-10.1-67.5l5.5 2.7-4.9.2-5.5-2.7 4.9-.2zm-3.1-47.2l3.1 3.8 1.1 6.1-3.1-3.8-1.1-6.1zm3.2-71.9l3.6-2.3 3.9 1.6-3.6 2.3-3.9-1.6zm5.6-62l2.1 6.8-8 2-2.1-6.8 8-2zm-6.2 41.3l1.6 8.5-4.4-5.3-1.6-8.5 4.4 5.3zm-5.8 181.4l6.7 2.3-3.2 7.2-6.7-2.3 3.2-7.2zm-11.6-102.3l6.6 1.4-1.9 7.5-6.6-1.3 1.9-7.6zm-6.2-30.6l5.4-3.5 5.8 2.4-5.4 3.5-5.8-2.4zM267.1 9.9l1 .8-.5 4.8-1.8-2.3 1.3-3.3zm-5 31.1l2.6-4.8-.3 6.2-2.6 4.8.3-6.2zm.7 75.3l-1.9 7.5-4-3.8-.6-5.1 6.5 1.4zM261 236.5l4.9 6.1-5 4.4-4.9-6 5-4.5zM250.9 92.7l2.7 3.5-2 4.8-1.4-1.2.7-7.1zm-7.3 51.4l6.8 2.2-2.9 7.7-6.8-2.2 2.9-7.7zm-7.1-86.5l4-2-1 7-4 2 1-7zm-3.4 59l2.6-4.8-.3 6.2-2.6 4.8.3-6.2zm14 73.5l-1.1 8.5s-11.8-8.9-18.5-.5l-.6-10c.1 0 13.6-8.7 20.2 2zm-10.5 69.6l-1.8 2.9-.8-.9 1.2-4.5 1.4 2.5zm-2.9-41.8l-.5 6.4-5.4 3.2.5-6.4 5.4-3.2zm-40.8 9.7l2.3 5-4.8-3.9-2.3-5 4.8 3.9zm-8.6-40.4l1.4-6.6 7.5 1.9-1.4 6.6-7.5-1.9zm6.8 65.5l4.3-1.3-2 6.7-4.3 1.3 2-6.7zm2.5 126.5l1.4 2.5-1.8 2.9-.8-.9 1.2-4.5zm3.3 54.7l3.6 2.1-3.9 1.8-3.6-2.1 3.9-1.8zm.1-64l3-7.2 6.3 2.3-3 7.2-6.3-2.3zm14.1-16.2l3.4 3.1-4.2 3.2-3.3-3 4.1-3.3zM209 271l2-6.8 4.3-1.3-2 6.7-4.3 1.4zm-5.1-99.8l-6.1 1.1 3.8-3.1 6.1-1.1-3.8 3.1zM203 294l-.7 6.8-3.9-3.2.7-6.8 3.9 3.2zm.3 175.6l3.2-4.4-1.2 6.1-3.2 4.4 1.2-6.1zm1.5-74.1l3.9-1.8 3.6 2.1-3.9 1.8-3.6-2.1zm6.1-16.3l3.9-1.8 3.6 2.1-3.9 1.8-3.6-2.1zm4.3-86.8l-1.7-6.5 7.6-1.6 1.7 6.5-7.6 1.6zm8.7 29.1l3.6 2.1-3.9 1.8-3.6-2.1 3.9-1.8zm1.4-65.8l1 3.5-3.8-4.2-1-3.4 3.8 4.1zm-6-185.4l2.3 3.6-1.5 3.8-2.3-3.6 1.5-3.8zm-3-31.8l-6.7.7-.5-7.8 6.7-.7.5 7.8zM210.7.7l4.8 2.6-6.2-.3-4.8-2.6 6.2.3zm.5 106l4.3 5.3-8.3-2.6-4.3-5.3 8.3 2.6zm-1.5 16.7l-1.4 6.6-7.5-1.9 1.3-6.6 7.6 1.9zm-12-61.1l-5.1.6 1.3-6.6 7.5 1.9-3.7 4.1zm-1.2-49.1l2.7 7.3-6.2 2.6-2.7-7.3 6.2-2.6zM186 89.7l2.3 3.6-1.6 3.9-2.3-3.6 1.6-3.9zm-4-44.9l2.3 3.6-1.6 3.9-2.3-3.6 1.6-3.9zm-1.3 191.4c-2.6 1.2-11.4 1.6-11.4 1.6l-12.2-.2-6.4.9c.4 1 .9 2 1.7 2.7 1.8 1.4 8.3 6.9 11.7 8.8 3.4 1.8 6.8 5.8 6.8 5.8l-1.4 3.3c-.1.1-3.5 1.2-10.1-.1-5.8-1.1-13-1.2-15.9-.4.2.6.5 1.2 1 1.7 1.1 1.2 2.7 2.5 4.2 3.6 2.5.5 5 1.3 7 2.1 4.3 1.7 5 2.9 5 2.9l-.3.6h.1l-1.6 3.3s-3.8.1-8.3-3.2c-1.4-1-2.6-1.9-3.6-2.7-2.2-.6-6-.3-7.3-.3.4 1 1 2.3 1.9 3.1.4.3 1 .9 1.8 1.5l1.9-3.6-.3 4.8c1.9.6 3.8 1.4 5.1 1.9 3.1 1.2 3.9 3 3.9 3l-1.4 3.6s-3.2-.5-5.9-2.5c-.9-.7-2-1.5-3.1-2.3l-1 1.8c.6.4 1.2.7 2 .9-.1 1.1-.5 3.7-.5 3.7s-2.9-1.3-5.3-3.6-1.9-2.8-1.9-2.8l1.3-3.5c.3-.2.6-.4 1-.5l-.2-.2c-1-1.5-1.5-3.5-1.5-3.5l1.5-3.2c.2-.7.7-1.5 2-1.9.4-.1 1-.2 1.6-.2-.1-.2-.3-.3-.4-.5-1.3-1.7-1.2-3-1.2-3l1.9-3.7v.1c.2-.3.5-.5.8-.6 1.6-.4 5-1.4 9.2-.8 4.3.6 9 1.2 9 1.2s3.1.3 4.3.3c-1.1-.9-2.4-1.9-3.7-2.6-3.7-2-10-7.3-10-7.3s-4.2-3.5-4.1-5.9 1.5-3.9 1.5-3.9c.3-.6 1-1.1 2.3-1.4 3.7-.8 10.5-.6 10.5-.6l12.6.1s5.5-.7 7.1-1.8c-.2-1.2-.6-3.2-1.6-5.7-2.9-7.1-8.9-17.3-9.8-19.3l3.8 1.8s12.2 18.9 7.7 24.4c0 .8-.5 1.8-1.8 2.3zm.7 185.8l-.4 6.2-2.7 5.2.4-6.2 2.7-5.2zm-4.7-146.2l-.6 6.2-2.8 5.1.6-6.2 2.8-5.1zm-4 62.5l-1 7.1-8.1-1.6 1-7.1 8.1 1.6zm-51.6-198.7l6.1-1.1-3.8 3.1-6.1 1.1 3.8-3.1zm-3.7-18.8l.8-1 4.8.5-2.3 1.8-3.3-1.3zm14.3 68.2l-3.8 4-5.1.6 1.3-6.6 7.6 2zm-2.3-91l2.8-6.1 6.9 3.6-2.8 6.1-6.9-3.6zm-3.6 71.2l-2.3-3.6 1.6-3.9 2.3 3.6-1.6 3.9zm0 45.3l4.8 2.6-6.2-.3-4.8-2.6 6.2.3zm6.4 31.9l5.9-3.5-3.8 7.8-5.9 3.5 3.8-7.8zm0 117.6l3.9 3.2-.7 6.8-3.9-3.2.7-6.8zm4 50.6l.2 6.2-2.5-4.2-.2-6.2 2.5 4.2zm.6 85.2l2.7-5.2-.4 6.2-2.7 5.2.4-6.2zm-.2-70.1l3.9-1.8 3.6 2.1-3.9 1.8-3.6-2.1zm6.4-84l1.2-6.1 3.2-4.4-1.2 6.1-3.2 4.4zm2.1-41.5l3-7.2 6.3 2.3-3 7.2-6.3-2.3zm10.3 11.6l3.5 2.1-3.8 1.7-3.5-2.1 3.8-1.7zm-15.3-186.9l2.4-5.8 3.5 5.4-2.4 5.8-3.5-5.4zm21.8 73.5l-2.2 6.8-7.7-2.9 2.2-6.8 7.7 2.9zm-1.3-65.4l2.4-5.8 3.5 5.4-2.4 5.8-3.5-5.4zm-6.9 56.4l-3.5-5.4 2.4-5.8 3.5 5.4-2.4 5.8zm17.6-104.7l-4.8-.5 2.3-1.8 3.2 1.3-.7 1zm4.9 19.3l.5 7.8-6.7.7-.5-7.8 6.7-.7zm-5 50.7l2.8 6.4-2.4 3.8-2.8-6.4 2.4-3.8zm10-87.8l-1.6 3.9-2.3-3.6 1.6-3.9 2.3 3.6zm-4.6-60.2l2.3 3.6-1.6 3.9-2.3-3.6 1.6-3.9zm-5 20.4l5.5 2-6.2.5-5.5-2 6.2-.5zm-18.7 12l3.3-1.5-3.6 4.4-3.3 1.5 3.6-4.4zM135 4.8l2.3 3.6-1.6 3.9-2.3-3.6 1.6-3.9zm8.7 54.5l-1.4 6.6-7.5-1.9 1.3-6.6 7.6 1.9zm-3.5 13.3s7-4.2 10-4.7c3-.4 4.8 1.8 4.8 1.8-.1 0-.2 0-.3-.1 3.1 1.3 5.7 5.3 7.8 9.6l2.3-1.9 6.1-1.1-3.8 3.1-4.2.8c2.7 5.9 4.3 12 4.3 12l-1.6 3.4c-.9-2-4.2-12.9-7.6-19.8-1.6-3.3-3.3-5.3-3.8-6-2.3.2-6.4 2.2-6.4 2.2l-9.6 6.6s-5.1 3.7-8.5 5c-3.4 1.3-4.6-1.6-4.6-1.6L131 79l9.2-6.4zM123.6 24l3.2 1.3-.8.9-4.7-.5 2.3-1.7zm2.4 30.7l-1.6 3.7-4.9 2.4 1.6-3.7 4.9-2.4zm-7.9-53.5l2.3 3.6-1.6 3.9-2.3-3.7 1.6-3.8zm-.2 83.1l6.8-.3-2.6 4.4-6.8.3 2.6-4.4zM83.2 405l-5.9 2.6-5.4-3.2 5.9-2.6 5.4 3.2zm-4.7-46.8l2.5 4.2.2 6.2-2.5-4.2-.2-6.2zm4.4 27.2l5.9-2.6 5.4 3.2-5.9 2.6-5.4-3.2zm-1.2-48.6l2-6.8 4.3-1.3-2 6.7-4.3 1.4zm12.7 150.5l.2 6.2-2.5-4.2-.2-6.2 2.5 4.2zm-.3-240.2l1.8-3 .8.9-1.2 4.6-1.4-2.5zm-.4-108.5l2 4-7-1-2-4 7 1zm-9.1-60.7l6.2.3 4.8 2.6-6.2-.3-4.8-2.6zm14.1 422.8l3.6 2.1-3.9 1.8-3.6-2.1 3.9-1.8zm1-133.7l-1.4-2.6 1.8-3 .8.9-1.2 4.7zm8.7-194.5l-8.5 1.6 5.3-4.4 8.5-1.6-5.3 4.4zm.4 25.8l-1.2 1.4-7.1-.8 3.5-2.7 4.8 2.1zm-3.4-183l7.5 1.9-1.4 6.6-7.5-1.9 1.4-6.6zm-9.4 96l-2.7-7.3 3.3-1.4.4-1.1.4.7 2-.9 2.7 7.3-6.1 2.7zm.1-103l3.8 3.6-2.5 3.9-3.8-3.6 2.5-3.9zM94 45l2.3 3.6-1.6 3.9-2.3-3.6L94 45zm-2.9 7.4l-.4 8.3h-7.1l.4-8.3h7.1zM83.4 13l2.3 3.6-1.5 3.8-2.3-3.6 1.5-3.8zm-.2 250.7l6.4 3.2-4 7.2-6.4-3.2 4-7.2zm-4.6-142.2l-1.2 1.4-7.1-.8 3.5-2.7 4.8 2.1zM72 101l-7.5-1.9 1.3-6.6 7.5 1.9L72 101zm-6.3-32l2.3 3.6-1.5 3.8-2.3-3.6 1.5-3.8zm5 92.4l2 8-6.8 2.1-2-8 6.8-2.1zm-.2 49l2 4-7-1-2-4 7 1zm-10.4-56.5l-3.3 1.5 3.6-4.4 3.3-1.5-3.6 4.4zM61.4.4L63.7 4l-1.6 3.9-2.3-3.6L61.4.4zm-6.2 45.2l-7.5-1.9L49 37l7.5 1.9-1.3 6.7zm.3 32.5l-1.4 6.6-7.5-1.9 1.4-6.6 7.5 1.9zM44.6 7.9h7.1l-.4 8.3h-7.1l.4-8.3zm-8.9 21l6.8-.3-2.6 4.4-6.8.3 2.6-4.4zM29.6 9.7l2.7 7.3-6.2 2.6-2.7-7.3 6.2-2.6zM5.1 25.3l-1.9-4 7 1 2 4-7.1-1zm1.2 4.2c8 2.6 13.8 16.8 17.1 27.9l4.3-.2 5.4 2.1-6.1.3-3.3-1.3c2.1 7.1 3.1 12.6 3.1 12.6l-3.1 5.7c-1.3-3.5-5.8-23.2-10.9-35.7-3.1-7.3-6.5-11.4-6.5-11.4zm16.9 122.3l2.2-6.8 7.7 2.9-2.2 6.8-7.7-2.9zm.1 30.5l-2.3 1.8-3.2-1.3.8-1 4.7.5zm6.3-90.8l-6.2.5-5.5-2 6.2-.5 5.5 2zm-16.8 71l-3.6 4.4-3.2 1.5 3.6-4.4 3.2-1.5zM6.9 63l.8-1 4.8.5-2.3 1.8L6.9 63zm-4.2 78.2l4.8.5-2.3 1.8-3.2-1.3.7-1zm9.5 72l-7.7-2.9 2.2-6.8 7.7 2.9-2.2 6.8zm2.4-92.4l6.2-2.6 2.7 7.3-6.2 2.6-2.7-7.3zm-.5 182.5l2-6.8 4.3-1.3-2 6.7-4.3 1.4zm7.4 228.2l6.7 2.3L25 541l-6.7-2.3 3.2-7.2zM27 663l-6.3-2.3 3-7.2 6.3 2.3-3 7.2zm3.9-192.8l-7.6 1.6-1.7-6.5 7.6-1.6.9 3.5 1 .6-.7.3.5 2.1zm-2.5-80.3l-5.4-3.2 5.9-2.6 5.4 3.2-5.9 2.6zM30.5 247l-6.4-3.2 4-7.2 6.4 3.2-4 7.2zm7.1 192.6l-.3-6.2 2.7 4.2.3 6.2-2.7-4.2zM29.8 121l-2.7-14.6s18.2-15.5 30.1-.9v12.8S38 107.4 29.8 121zm19.1 66.7l-4.8-2.6 6.2.3 4.8 2.6-6.2-.3zm5.3 67l-1.2 4.6-1.4-2.6 1.8-3 .8 1zm-3.9-127.2l-2.9-3.6 5.5 1.8 2.9 3.6-5.5-1.8zM44 283.9l3.2-4.4-1.2 6.1-3.2 4.4 1.2-6.1zm1 124.2l7.2-1.9 3.6 2.9-7.2 1.8-3.6-2.8zM55 465l-3.2 4.4 1.2-6.1 3.2-4.4L55 465zm-.3-100.2l-3.6-2.1L55 361l3.6 2.1-3.9 1.7zm3.8-54.6l-1.1-7 8.2-.8 1.1 7-8.2.8zm10.8-66l3.8 4.2 1 3.4-3.8-4.2-1-3.4zm5.8 264.1l-3.6-2.1 3.9-1.8 3.6 2.1-3.9 1.8zm5.3-39.2l-8.1-1.6 1-7.1 8.1 1.6-1 7.1zM83 493l-.8-.9 1.2-4.6 1.4 2.6L83 493zm6.5 51l-3.5-2.1 3.9-1.7 3.5 2.1-3.9 1.7zm9.5 43l-5.4-3.2 5.9-2.6 5.4 3.2L99 587zm5.7-290l-3.9 2.3 2.6-5.2 3.9-2.3-2.6 5.2zm2.9-35.7l7.6-1.6 1.7 6.5-7.6 1.6-1.7-6.5zm9.4 174.3l-3.6-2.1 3.9-1.8 3.6 2.1-3.9 1.8zm5.1-89.1l-7.6 1.6-1.7-6.5 7.6-1.6.9 3.5 1 .6-.7.3.5 2.1zm2.7 73.8l-.8-.9 1.2-4.6 1.4 2.6-1.8 2.9zm3 48.9l3.9-1.7 3.5 2.1-3.8 1.7-3.6-2.1zm11.5 232.1L133 699l3-7.2 6.3 2.3-3 7.2zM149 641l-3.6-2.1 3.9-1.8 3.6 2.1-3.9 1.8zm-3.4-111.4l-1.7-6.5 7.6-1.6 1.7 6.5-7.6 1.6zm5.3-135.5l3-7.2 6.3 2.3-3 7.2-6.3-2.3zm18 202.1l-7.6 1.6-1.7-6.5 7.6-1.6.9 3.5 1 .6-.7.3.5 2.1zm.1-189l-1-3.4 3.8 4.2 1 3.5-3.8-4.3zm2.1-58.2l3.9-1.8 3.6 2.1-3.9 1.8-3.6-2.1zM182 554.2l-6.3-2.3 3-7.2 6.3 2.3-3 7.2zm11 36.8l-3.2 4.4 1.2-6.1 3.2-4.4-1.2 6.1zm-5.6-134l-1.7-6.5 7.6-1.6 1.7 6.5-7.6 1.6zm11.6 56l-3.6-2.1 3.9-1.8 3.6 2.1-3.9 1.8zm19.4 82.1l-8.1-1.6 1-7.1 8.1 1.6-1 7.1zm-2.1-96.6l-12.4-8.2s1.5-23.9 20.2-22.3l9.2 8.9c.1.1-21.1 6.2-17 21.6zm17 40.8l-3.6-2.1 3.9-1.8 3.6 2.1-3.9 1.8zm1.8-245.2l-3.9 2.3 2.6-5.2 3.9-2.3-2.6 5.2zm6.1 229.9l-.8-.9 1.2-4.6 1.4 2.6-1.8 2.9zm.2-199.4l8.7-12s23.8 2.6 21.3 21.3l-9.3 8.8c0-.1-5.2-21.5-20.7-18.1zm10.8 111.6l-4.4-5 6.1-4.9 4.4 5-6.1 4.9zm5.6 14.7l-2.7 5.5-.2-4.9 2.7-5.5.2 4.9zM247.7 575l-3.5-2.1 3.9-1.7 3.5 2.1-3.9 1.7zm2.6-54.7l-.2-6.2 2.5 4.2.2 6.2-2.5-4.2zm6.2 15.2l-3.6-2.1 3.9-1.8 3.6 2.1-3.9 1.8zm5.6-170.1l3.9-4.8 5-2.3-3.9 4.8-5 2.3zm11.5 33.2l3.2 5.4-6.4-.5-3.2-5.4 6.4.5zm-3.9 225.5l7.6-1.6 1.7 6.5-7.6 1.6-1.7-6.5zm7 114.8l-3.6-2.1 3.9-1.8 3.6 2.1-3.9 1.8zm.8-307.6l-1.6-4.2 6.9 1.6 1.6 4.2-6.9-1.6zm7.6 48.6l6.1-4.9 4.4 5-6.1 4.9-4.4-5zm12.7 45.7l-.4 6.2-2.7 5.2.4-6.2 2.7-5.2zm205.7 224.9c-5.3 4.2-11 7.4-17.3 9.2-1.7 2.8-5.3 2.8-7.5 1-1.4-.4-2.6-1.4-3.2-2.7-.7.6-1.4 1-2.2 1.4-3.1 4.8-8.4 5.7-14.2 4.7-4.8-.8-8.7-3.8-12.8-6.2-5.7 1-11.6 1.3-17.3.5-3.6.3-7.3.6-11 .6-.9 0-1.8-.2-2.4-.6-2.4.3-4.8.8-7.2 1.4-1.5.4-2.9 1-4.4 1.4-.1.1-.3.2-.5.3-1.1.7-1.6 1.1-2.9 1.4-3.2.7-7.1.1-10.4.1-3.3 0-6.5 0-9.8-.1-4.2-.1-8.4-.2-12.5-.4-4.8.3-9.5.5-14.3.4-6.3-.1-13.7-.3-20.1-2.4-5.2.3-10.6.1-15.7-.4-4.8.3-9.7.4-14.5 0-.8.7-1.9 1.1-3.4 1-3.5-.4-5.8-1.3-8.5-3.5-2.8-2.2-1.3-6.1 1-7.9 1.5-1.1 3.1-2.1 4.7-3 .2-1.9 1.3-3.7 3.5-4.5 3.4-1.1 6.7-2 10.3-2.2 1.5-.1 2.6.5 3.5 1.4 6.2-.4 12.3-.9 18.5-.4 2.1.2 3.7 1.5 4.5 3.1 1.2-.1 2.3-.1 3.5-.1 1.1 0 1.9.2 2.6.6 9.8-1.2 19.7-1.3 29.6-1.1-.2-2.5 1.5-5.2 4.8-5.5 3.8-.4 11.5-.9 18 .4 7.7 0 15.4 0 23-.2 8-.6 16-.3 24-.3 2.2 0 3.6 1.1 4.3 2.6 8.6-1.1 17.4-1.6 25.8.9 1.3-.2 2.6-.3 3.9-.5 2.7-.3 4.2 1.2 4.6 3.1 6.1-.4 12.3-1.4 18.4-2.1 4.3-.4 6.9 6 3.6 8.6zm1-213l-3.6-2.1 3.9-1.8 3.6 2.1-3.9 1.8zm-4.6-280.8c-.9-.6-1.4-1.4-1.7-2.1-4.3-6.8 6.2-25.6 6.2-25.6l1.7-.7-6.4-4.2-2.7-6.3 7.3 4.7 2.4 5.5 1.2-.5c-.7 2-5.9 12.3-8.3 19.6-.7 2.3-1.1 4.2-1.3 5.5 1.8 1.4 6.1 2.9 6.1 2.9l11.5 1.9s6.2.9 9.6 2.3c3.4 1.4 2.2 4.4 2.2 4.4l-6.4-2.2-11.1-1.8c.1.2-7.9-1.6-10.3-3.4zm12.6 133.2l-.3-1.2 3.2-3.4v2.9l-2.9 1.7zm5.3-110.1l-6.7-4.9 3.9-6 6.7 4.9-3.9 6zm4.7 32.8l5.9 1.9 4 3.7-5.9-1.9-4-3.7zM533 609l-3.6-2.1 3.9-1.8 3.6 2.1-3.9 1.8zm2-154l-6.7-2.3 3.2-7.2 6.7 2.3-3.2 7.2zm-.8-271.4l6.1 1.3 4.7 3.4-6.1-1.3-4.7-3.4zm12.5 74l1.8 4.2-4.9-3.2-1.8-4.2 4.9 3.2zm-1.4 276.2l-2.7 5.2.4-6.2 2.7-5.2-.4 6.2zm-.1-66.5l-.3-6.2 2.7 4.2.3 6.2-2.7-4.2zm-.4-79.2l3-4.3 4.2 1.9-3 4.3-4.2-1.9zm7 174.5l-1.7-6.5 7.6-1.6 1.7 6.5-7.6 1.6zm4.4-124l-3.6-2.9 7.2-1.9 3.6 2.9-7.2 1.9zM571 261.4l-6.7-2.6 4.1-1.7 4.1 3.2-1.5 1.1zm5.3-67.9l6.7 1.5-3.6 3.5-6.7-1.5 3.6-3.5zm2.4 209.1l6.7 4.9-3.9 6-6.7-4.9 3.9-6zM591 571l-6.3-2.3 3-7.2 6.3 2.3-3 7.2zm3.2-64.1s-11.8-8.9-18.5-.5l-.6-10s13.5-8.8 20.1 1.9l-1 8.6zm3.5-119.2l-2.8-2.1 1-.7 4.5 1.7-2.7 1.1zm-.8-81.3l-2.7-6.3 7.3 4.7 2.7 6.3-7.3-4.7zm5.6-268l1.2-1.4 7.1.8-3.5 2.7-4.8-2.1zm6.6 20.5l7.5 1.9-1.3 6.6-7.5-1.9 1.3-6.6zm5.7 265.1l.7 7.8-6.6.9-.7-7.8 6.6-.9zm.2 38l-6.7-4.9 3.9-6 6.7 4.9-3.9 6zm8.7 36.5l-4-3.7 5.9 1.9 4 3.7-5.9-1.9zm.5-99.1l-4.8-3.3 6.1 1.2 4.8 3.3-6.1-1.2zm-.2-69.1l-.8-4.4 6.5 2.8.8 4.4-6.5-2.8zm13.5 36.7l4.7 3.4-6.1-1.3-4.7-3.4 6.1 1.3zm-5.4 156.2l6.5 2.8.8 4.4-6.5-2.8-.8-4.4zm2.6 53.4l3.2-4.4-1.2 6.1-3.2 4.4 1.2-6.1zm6.3 158.8l-6.7-2.4 3.1-7.7 6.7 2.4-3.1 7.7zm2.2-26.5l-3.7-4 5.8 2.3 3.7 4-5.8-2.3zm2.7-24.9l-.8.9-.2-.8-2.2.1-.1-7.8 6.7-.4.1 7.8-3.5.2zm1.8-50.6l-6.3-2.3 3-7.2 6.3 2.3-3 7.2zm3.8-146.2l-7.1.2.2-8.3 7.1-.2-.2 8.3zm3.6 86.5l8.1 1.6-1 7.1-8.1-1.6 1-7.1zm10.1 14.4l-3.6-2.1 3.9-1.8 3.6 2.1-3.9 1.8zm3.1-144.6l-6.7-2.6 4.1-1.7 4.1 3.2-1.5 1.1zm1.6-47.8l-1.3-4 2.5-3.2 1.3 4-2.5 3.2zm3.5 64.4l6.5 2.8.8 4.4-6.5-2.8-.8-4.4zm9.3 35.8l8.6.7-6.2 2.8-8.6-.7 6.2-2.8zm1.2 125.7l-.8-.9 1.2-4.5 1.4 2.5-1.8 2.9zm1.1-79l5.9 1.9 4 3.7-5.9-1.9-4-3.7zM697 641l-6.3-2.3 3-7.2 6.3 2.3-3 7.2zm.6-147.1l4.2-3.2 3.4 3.1-4.2 3.2-3.4-3.1zm7.4 24.4l-3.6-2.1 3.9-1.8 3.6 2.1-3.9 1.8zm22 40.7l-6.3-2.3 3-7.2 6.3 2.3-3 7.2zm15.9-48.8l-7.6 1.6-1.7-6.5 7.6-1.6.9 3.5 1 .6-.8.3.6 2.1zm4.9-46.3v-.3C741.3 476.4 714 489 714 489l-6.3-1.7c3.1-2.2 21-11.3 31.9-19.3 3.6-2.6 6.1-5.1 7.7-6.8-1.5-3.9-5.5-9.4-5.5-9.4l-14.4-14.6s-7.9-7.7-11.2-13.2c-3.3-5.5 1.3-8.5 1.3-8.5l5.4 7.6 2.2-2.9 1.9 6.2-.7.9 11.8 11.9s9.5 10.8 11.1 15.8c1.9 5.1-1.4 8.9-1.4 8.9zm-.8-51.3l-1-7 3.3-3 1 7-3.3 3zm-.3-27.6l-1.9-6.2 3.8-5 1.9 6.2-3.8 5zm5.6-137.1l2.5-3.3 1.3 4.1-2.5 3.3-1.3-4.1zm2.2 185.6l3-6 6.8 3.9-3 6-6.8-3.9zM767 505l-3.2 4.4 1.2-6.1 3.2-4.4-1.2 6.1zm.8-169.9l-4.5-1.7 2.7-1.1 2.8 2.1-1 .7zm-1.6-10.1l-6.2-.5 4.4-2 6.2.5-4.4 2zm11.4 98.3l-6.2-.5 4.4-2 6.2.5-4.4 2zm2.9-76l-1.3-4.1 2.5-3.3 1.3 4.1-2.5 3.3zm11.9 161.8l-8.1-1.6 1-7.1 8.1 1.6-1 7.1zm3.4-130.5l-3 6-6.8-3.9 3-6 6.8 3.9zm-1.2-113.3l-2.5 3.3-1.3-4.1 2.5-3.3 1.3 4.1zM796 26.8l1.1.6.2 4.8-2.1-2 .8-3.4z"/><path class="st0" d="M139.8 275.2c.6.8 1.3 1.5 2.3 2.2l.1-2c-.9-.2-1.8-.2-2.4-.2z"/><path class="st1" d="M120.7 122.2l2.3-1.8-4.8-.5-.8.9zM10.1 64.3l2.3-1.8-4.8-.5-.7 1zm-5 79.2l2.4-1.8-4.8-.5-.8 1zM21 184.1l2.3-1.8-4.8-.5-.7 1z"/><path class="st2" d="M97 101.5l-.5 1.1.9-.4z"/><path class="st3" d="M90.8 78.2l-6.2-.3 4.8 2.6 6.2.3zM55.1 188l-4.8-2.6-6.2-.2 4.8 2.5z"/><path class="st4" d="M186.7 97.2l1.6-3.9-2.3-3.6-1.6 3.9z"/><path class="st5" d="M47.4 123.9l2.9 3.6 5.5 1.7-2.8-3.5z"/><path class="st4" d="M6 168.4l3.2-1.5 3.6-4.4-3.3 1.5zm50.8-13l3.3-1.5 3.5-4.4-3.2 1.5zm99.4-113.8l-3.3 1.5-3.5 4.4 3.3-1.5z"/><path class="st3" d="M179.7 74.8l1.5-3.9-2.3-3.6-1.6 3.9z"/><path class="st6" d="M167.1 79.4l3.8-3.1-6.1 1.1-2.3 1.9c.1.3.3.6.4.8l4.2-.7zM29.6 91.5l-5.5-2-6.2.5 5.5 1.9zm1.4 63.2l2.2-6.7-7.8-3-2.2 6.8zM51.8 7.9h-7.2l-.4 8.3h7.1zm38.9 52.8l.4-8.3H84l-.4 8.3z"/><path class="st2" d="M49 37l-1.4 6.6 7.6 2 1.3-6.6zm-1 39.2l-1.3 6.5 7.5 2 1.3-6.6zm88.1-18.9l-1.3 6.6 7.5 2 1.4-6.6z"/><path class="st4" d="M64.5 99.1L72 101l1.4-6.6-7.6-1.9z"/><path class="st5" d="M176.2 108l-6.7.7.5 7.8 6.7-.7z"/><path class="st4" d="M104.1 21.8l7.5 2 1.4-6.6-7.6-1.9zm81.5 158.8l-1.3 6.6 7.5 1.9 1.4-6.5z"/><path class="st2" d="M215.8 30.8l-6.7.7.5 7.8 6.7-.8z"/><path class="st3" d="M70.7 161.4l-6.8 2.1 2 8 6.8-2z"/><path class="st6" d="M193.9 56.4l-1.3 6.5 5.1-.6 3.8-4zm-69.8 130.7l-1.3 6.5 5.1-.6 3.8-4z"/><path class="st3" d="M0 75.7v4.6l3.5-3.7z"/><path class="st6" d="M161.9 202.4l-7.8-2.9-2.2 6.8 7.8 2.9z"/><path class="st2" d="M4.4 210.2l7.8 3 2.1-6.8-7.7-3z"/><path class="st3" d="M97.4 102.2l1.9 2.8-1.6 3.8-2.3-3.5 1.1-2.7-3.2 1.4 2.7 7.3 6.1-2.7-2.7-7.3z"/><path class="st3" d="M97.7 108.8l1.6-3.8-1.9-2.8-.9.4-1.1 2.7zm92.6-93l2.7 7.3 6.2-2.6-2.7-7.3zM26.2 19.7l6.1-2.7-2.7-7.3-6.1 2.7zm-2.8 105.8l-2.7-7.4-6.1 2.7 2.7 7.3z"/><path class="st2" d="M202.2 121.4l-1.4 6.6 7.6 2 1.3-6.6z"/><path class="st5" d="M2.9 103.2l-2.9-.9v3.9l7.2 2.3z"/><path class="st1" d="M70.3 122.2l7.2.8 1.1-1.5-4.8-2zm38.5 76.1l-4.8-2-3.5 2.6 7.2.8z"/><path class="st2" d="M163 131.2l-2.4 5.8 3.5 5.4 2.3-5.8zm-12.8 56.7l3.5 5.5 2.3-5.8-3.4-5.4z"/><path class="st4" d="M142.5 123.2l-2.4 5.7 3.5 5.5 2.4-5.8z"/><path class="st5" d="M207.2 109.3l8.3 2.7-4.3-5.3-8.3-2.7z"/><path class="st2" d="M88.7 0h-4.1l2.5 3.9z"/><path class="st3" d="M97.4 15.8l2.5-3.9-3.8-3.6-2.5 3.8z"/><path class="st6" d="M201.6 169.3l-3.8 3.1 6.1-1.2 3.7-3.1z"/><path class="st1" d="M172.1 87.8l-3.3-1.4-2.3 1.8 4.8.5z"/><path class="st3" d="M118.8 8.7l1.6-3.9-2.3-3.6-1.6 3.8z"/><path class="st6" d="M99.9 174.1l8.5-1.6 5.3-4.3-8.6 1.6z"/><path class="st2" d="M121.3 25.7l4.7.5.7-.9-3.1-1.3zm-1.9 35.1l4.9-2.4 1.7-3.7-4.9 2.4z"/><path class="st4" d="M27 59.6l6.2-.4-5.4-2.1-4.3.2.3.9 3.2 1.4z"/><path class="st6" d="M42.5 28.6l-6.8.3-2.6 4.4 6.8-.4z"/><path class="st2" d="M132.2 91.9l-2.8 6.1 6.9 3.6 2.8-6.1z"/><path class="st6" d="M115.3 88.7l6.8-.3 2.6-4.4-6.8.3z"/><path class="st5" d="M1.5 43.6L0 43.4v3.8l3.5.5zM12 26.3l-1.9-4.1-7-.9 2 4zm162.1 138.9l-2.9-6.5-2.4 3.8 2.8 6.5zm-80.4-26.6l-6.9-1 1.9 4 7 1zm-28.2 74.8l6.9 1-1.9-4-7-1z"/><path class="st2" d="M0 2zm85.6 14.6L83.4 13l-1.6 3.8 2.3 3.6z"/><path class="st3" d="M215.5 3.3L210.7.7l-6.2-.3 4.8 2.6zm-91.1 213.5l6.2.3-4.8-2.6-6.2-.3z"/><path class="st4" d="M135.8 12.3l1.5-3.9-2.3-3.6-1.5 3.9zm41.5 5.9l1.6-3.9-2.3-3.6-1.6 3.9zm-52.2 143.5l-1.6 3.8 2.3 3.7 1.6-3.9z"/><path class="st5" d="M33.4 0h-1.6l2.1.7z"/><path class="st2" d="M66.5 76.3l1.5-3.7-2.3-3.6-1.5 3.8zm151.2-2.2l2.3 3.6 1.5-3.8-2.2-3.6z"/><path class="st3" d="M182.7 52.3l1.6-3.8-2.3-3.7-1.6 3.9z"/><path class="st4" d="M96.3 48.6L94 45l-1.5 3.8 2.3 3.6zM62.1 7.9L63.7 4 61.4.4l-1.6 3.9z"/><path class="st6" d="M117.4 142.7l6.1-1.2 3.7-3.1-6.1 1.2zm59.7-109.6l-5.5-2-6.2.5 5.5 2z"/><path class="st1" d="M707.4 352l2.7 2.1 2.7-1.1-4.4-1.8zm-114.3-7.6l2.7-1.1-4.5-1.8-1 .8zm1.8 41.2l2.8 2.1 2.7-1.1-4.5-1.7z"/><path class="st2" d="M692.7 327.9l-.7.9 1-.1z"/><path class="st3" d="M690.9 305.7l5.9 1.9-4-3.8-5.9-1.9zm-61.3 94.7l-4-3.8-5.9-1.8 4 3.7z"/><path class="st4" d="M780.5 347.3l2.5-3.3-1.3-4.1-2.5 3.3z"/><path class="st5" d="M640.9 340.7l4.8 3.2-1.8-4.2-4.9-3.1z"/><path class="st4" d="M587.3 368.6l3.6-.6 4.5-3.3-3.5.6zm178.3-82.9l-3.6.6-4.5 3.3 3.5-.6zm-144.8-71.2l-3.6.6-4.5 3.3 3.5-.6z"/><path class="st3" d="M779.5 323.9l2.5-3.4-1.2-4.1-2.6 3.3z"/><path class="st6" d="M770.6 322.9l-6.2-.5-4.4 2.1 6.2.5zm-140.3-22.3l-4.8-3.4-6.1-1.1 4.8 3.3zM618.9 356l-6.7-4.8-3.9 5.9 6.7 4.9zm74.1-78.8l-2.5 7.8 6.8 1.9 2.6-7.9z"/><path class="st2" d="M652.1 290.6l-3 6 6.7 3.9 3.1-6zm-210.8-21.4l-3.1 5.9 6.8 3.9 3-6zm307.5 30.3l-6.7-3.9-3.1 6 6.8 3.8z"/><path class="st4" d="M727.2 256.8l3.1-6-6.8-3.9-3 6zm37.1 174.6l-6.8-3.9-3 6 6.7 3.9z"/><path class="st3" d="M651.5 387.2l.1-8.3-7.1.2-.1 8.3z"/><path class="st6" d="M795.1 315.8l4.9.8v-5.7l-1.9-1.1z"/><path class="st2" d="M585.5 407.4l-6.8-4.8-3.8 6 6.7 4.8zM551 343l6.7 4.9 3.9-6-6.7-4.9z"/><path class="st3" d="M695.8 336.2l-.7-7.8-2.1.3 1 3.2-2.5 3.3-1.3-4 1.8-2.4-3.5.5.7 7.8z"/><path class="st3" d="M691.5 335.2l2.5-3.3-1-3.2-1 .1-1.8 2.4zm-45.6-104.8l6.6-.9-.7-7.8-6.6.9zm-30.4 101.3l-.7-7.7-6.7.9.7 7.8zm-31.8-47.5l.7 7.7 6.6-.9-.7-7.8z"/><path class="st2" d="M786 380.8l6.7 3.8 3.1-6-6.8-3.8z"/><path class="st5" d="M596.9 306.4l7.3 4.8-2.7-6.3-7.4-4.7z"/><path class="st1" d="M669.8 342.5l-4.2-3.2-4 1.6 6.7 2.6z"/><path class="st2" d="M746.7 385l3.8-5-1.9-6.1-3.8 5zm-155.5 63l3.8-5-1.9-6.2-3.8 5zm135.2-20.6l.7-.9-1.9-6.1-2.3 2.9 1.5 2z"/><path class="st4" d="M729.1 371.9l3.8-5-1.9-6.1-3.8 4.9z"/><path class="st2" d="M710.6 220.2l-3.7 4.9 1.9 6 3.7-4.8zm-11.9-36.1L695 189l1.9 6 3.7-4.8z"/><path class="st3" d="M719 242.3l-2.7-4.5-3.4 3 2.7 4.5z"/><path class="st6" d="M775.9 420.8l-4.5 2 6.2.5 4.4-2z"/><path class="st1" d="M768.8 334.4l-2.8-2.1-2.7 1.1 4.5 1.7z"/><path class="st3" d="M740.7 240.8l-1.3-4.1-2.5 3.3 1.3 4.1z"/><path class="st6" d="M685.1 399.5l6.2-2.9-8.6-.7-6.3 2.9z"/><path class="st2" d="M741.4 262.2l-2.7-2.1-2.7 1.1 4.4 1.7zm-13.8 29.2l-2.5 3.2 5.3-1.1 2.6-3.1z"/><path class="st4" d="M642.2 270.4l-4.7-3.4-6.1-1.3 4.7 3.4z"/><path class="st1" d="M493.1 260.1l2.7 2.1 2.7-1.1-4.4-1.7zm7.4 45.5l2.7-1.2-4.5-1.7-1 .7z"/><path class="st3" d="M528.4 314.5l-5.9-1.9 4 3.8 5.9 1.8z"/><path class="st5" d="M546.7 257.6l-4.9-3.2 1.8 4.2 4.9 3.1z"/><path class="st4" d="M490.1 286.5l3.5-.6 4.6-3.3-3.5.6z"/><path class="st6" d="M533.1 218.4l-4.8-3.3-6.1-1.2 4.8 3.4zm-15.3 61.4l3.9-5.9-6.7-4.9-3.9 6z"/><path class="st2" d="M554.9 208.5l-3.1 6 6.8 3.8 3-6z"/><path class="st3" d="M547.3 296.9l-.2 8.3 7.2-.2.1-8.3zm-36.4-54.1l.7 7.7 6.6-.9-.7-7.8z"/><path class="st5" d="M504.3 222.7l-7.4-4.7 2.8 6.3 6.4 4.1.5-.2z"/><path class="st1" d="M572.5 260.3l-4.1-3.2-4.1 1.7 6.7 2.6z"/><path class="st4" d="M545 188.3l-4.7-3.4-6.1-1.3 4.7 3.4z"/><path class="st6" d="M649 245.3l6.7 1.5 3.6-3.5-6.7-1.5zm-72.7-51.8l-3.6 3.6 6.7 1.4 3.6-3.5zM724 318.3l-6.6-1.5-3.7 3.6 6.7 1.5z"/><path class="st5" d="M610.2 248.7l6.4 2.8-.8-4.4-6.5-2.8zm13.8-18.4l6.5 2.8-.8-4.4-6.5-2.8zm123 182.3l3.4-3-1.1-6.9-3.3 3zm-72.8-48.1l6.5 2.8-.8-4.4-6.5-2.8zm-41.3 63.2l6.5 2.7-.8-4.4-6.5-2.8z"/><path class="st2" d="M619.9 205.5l4.4 1.7.9-.7-2.7-2.1z"/><path class="st3" d="M690.9 444.5l-5.9-1.9 4 3.8 5.9 1.9z"/><path class="st4" d="M459.8 246.9l3-6-6.8-3.9-3 6z"/><path class="st2" d="M423.7 229.8l-3.8 5 1.9 6.2 3.9-5z"/><path class="st6" d="M474.4 230.3l-4.4 2 6.1.5 4.4-2z"/><path class="st3" d="M389.4 254l-5.9-1.9 4 3.8 5.9 1.9z"/><path class="st4" d="M265.9 242.6l-4.9-6.1-5 4.5 4.9 6.1z"/><path class="st2" d="M233.7 217.9l-5.4 3.2-.5 6.4 5.4-3.2z"/><path class="st6" d="M281.3 240.1l4.8-.3-5.5-2.7-4.9.2z"/><path class="st3" d="M192.9 227.6l-4.8-4 2.3 5 4.8 4z"/><path class="st4" d="M753.6 252l2.5-3.3-1.3-4.1-2.5 3.3zm38.5 16.6l2.5-3.3-1.2-4.1-2.6 3.3zm-88 124.8l-2.6 3.3 1.3 4.1 2.5-3.3z"/><path class="st5" d="M656.5 209.9l-4.9-3.2 1.8 4.2 4.9 3.2z"/><path class="st2" d="M669.9 295.7l2.5-3.3-1.3-4-2.5 3.2z"/><path class="st3" d="M788.3 303l2.6-3.3-1.3-4.1-2.5 3.3z"/><path class="st4" d="M706 276.7l-1.3-4.1-2.5 3.3 1.3 4.1zm-22.4-48.3l2.6-3.3-1.3-4.1-2.6 3.3z"/><path class="st6" d="M707.7 373.5l4.5-2-6.2-.5-4.4 2zM788 283l-4.8-3.4-6.1-1.2 4.8 3.4z"/><path class="st1" d="M100.1 361.5l-1.8 3 1.4 2.5 1.2-4.6zm-4.6-111.9l1.2-4.6-.8-.9-1.8 3zM53 259.4l1.2-4.7-.8-.9-1.8 3z"/><path class="st2" d="M122.2 344.1l-.9-.6.2.9z"/><path class="st3" d="M147.4 335.2l-3.3 4.4-1.1 6.1 3.2-4.4zM47.2 279.5l-3.2 4.4-1.2 6.1 3.2-4.4z"/><path class="st4" d="M117.3 431.7l-3.9 1.8 3.6 2.1 3.9-1.7z"/><path class="st5" d="M104.7 297l2.6-5.2-3.9 2.3-2.6 5.2z"/><path class="st4" d="M70.3 247.7l3.8 4.2-1-3.5-3.8-4.2zM169 407.2l3.8 4.2-1-3.5-3.8-4.1zm56.3-151.5l-3.8-4.1 1 3.4 3.8 4.2z"/><path class="st3" d="M144.1 430.1l-3.6-2.1-3.9 1.7 3.6 2.2z"/><path class="st6" d="M136.4 420.8l-.2-6.2-2.5-4.1.2 6.1zm6.2-145.3c-.1 0-.3-.1-.4-.1l-.1 2c.2.1.3.2.5.3l1-1.8c-.1-.1-.2-.1-.2-.2-.4-.1-.6-.2-.8-.2zm2.2-3.2l.3-4.8-1.9 3.6c.4.3.9.7 1.4 1 .1.1.1.2.2.2zm-59.2 1.8l4-7.2-6.4-3.2-4 7.3zm79 62.6l-1.1 7.1 8.1 1.6 1.1-7.1z"/><path class="st2" d="M148.2 297l-3.1 7.2 6.3 2.3 3.1-7.2zm575.5 252.5l-3 7.2 6.3 2.3 3-7.2zm-700 104l-3 7.2L27 663l3-7.2zM136 691.8l-3 7.2 6.3 2.3 3-7.2zm17.9-304.9l-3 7.2 6.3 2.3 3-7.2z"/><path class="st4" d="M206.3 365l-6.3-2.3-3 7.2 6.3 2.3zm-27.6 179.7l-3 7.2 6.3 2.3 3-7.2zM28.2 533.8l-6.7-2.3-3.2 7.2L25 541z"/><path class="st3" d="M58.5 310.2l8.3-.9-1.1-7-8.2.8z"/><path class="st2" d="M30.5 247l4.1-7.2-6.4-3.2-4 7.2z"/><path class="st3" d="M118.4 345.8l-3.5-2.1 3.8-1.7 2.6 1.5-1-3.5-7.6 1.6 1.7 6.5 7.7-1.6-.6-2.1z"/><path class="st3" d="M114.9 343.7l3.5 2.1 3.1-1.4-.2-.9-2.6-1.5zM279 629l-1.7-6.5-7.6 1.6 1.7 6.5z"/><path class="st2" d="M409 565.7l-.9-.5.2.9z"/><path class="st3" d="M429.8 567.4l3.2-4.4 1.2-6.1-3.3 4.4z"/><path class="st6" d="M459.5 560l-8.1-1.6-1.1 7.1 8.1 1.6z"/><path class="st3" d="M408.9 568.2l-.6-2.1-3.1 1.4-3.5-2.1 3.8-1.7 2.6 1.5-1-3.5-7.6 1.6 1.7 6.5z"/><path class="st3" d="M401.7 565.4l3.5 2.1 3.1-1.4-.2-.9-2.6-1.5z"/><path class="st2" d="M31 467.7l-.9-.5.2.9z"/><path class="st3" d="M51.8 469.4L55 465l1.2-6.1-3.3 4.4z"/><path class="st6" d="M80.4 469.1l1.1-7.1-8.1-1.6-1.1 7.1z"/><path class="st3" d="M27.2 469.5l-3.5-2.1 3.8-1.7 2.6 1.5-1-3.5-7.6 1.6 1.7 6.5 7.7-1.6-.6-2.1z"/><path class="st3" d="M23.7 467.4l3.5 2.1 3.1-1.4-.2-.9-2.6-1.5z"/><path class="st2" d="M169 593.7l-.9-.5.2.9z"/><path class="st3" d="M189.8 595.4l3.2-4.4 1.2-6.1-3.3 4.4z"/><path class="st6" d="M219.5 588l-8.1-1.6-1.1 7.1 8.1 1.6z"/><path class="st3" d="M165.2 595.5l-3.5-2.1 3.8-1.7 2.6 1.5-1-3.5-7.6 1.6 1.7 6.5 7.7-1.6-.6-2.1z"/><path class="st3" d="M161.7 593.4l3.5 2.1 3.1-1.4-.2-.9-2.6-1.5z"/><path class="st2" d="M743 507.7l-.9-.5.2.9z"/><path class="st3" d="M763.8 509.4l3.2-4.4 1.2-6.1-3.3 4.4z"/><path class="st6" d="M793.5 502l-8.1-1.6-1.1 7.1 8.1 1.6z"/><path class="st3" d="M739.2 509.5l-3.5-2.1 3.8-1.7 2.6 1.5-1-3.5-7.6 1.6 1.7 6.5 7.7-1.6-.6-2.1z"/><path class="st3" d="M735.7 507.4l3.5 2.1 3.1-1.4-.2-.9-2.6-1.5z"/><path class="st2" d="M645.1 584.8l.8-.8h-1z"/><path class="st3" d="M643.2 608.9l5.7 2.3-3.7-4.1-5.7-2.3z"/><path class="st6" d="M637.4 625.4l-3.1 7.6 6.7 2.4 3.1-7.6z"/><path class="st3" d="M642.6 576.4l.1 7.8 2.2-.2-.8-3.3 2.8-3 .9 4.1-1.9 2.2 3.5-.3-.1-7.8z"/><path class="st3" d="M646.9 577.7l-2.8 3 .8 3.3h1l1.9-2.2zM195.1 455.4l-1.8-6.5-7.6 1.6 1.7 6.5zm27.7-164.6l-1.7-6.5-7.6 1.7 1.7 6.4zm-107.6-31.1l-7.6 1.6 1.7 6.5 7.6-1.6z"/><path class="st5" d="M132.2 246.4l-3.8 7.8 5.9-3.5 3.8-7.8z"/><path class="st2" d="M83.2 405l-5.3-3.2-5.9 2.7 5.4 3.1zm16.3 176.2l-5.9 2.6L99 587l5.9-2.6zM34.3 387.3l-5.4-3.2-5.9 2.6 5.4 3.2z"/><path class="st4" d="M94.2 385.9l-5.4-3.1-5.9 2.6 5.4 3.2z"/><path class="st3" d="M207 357l3.4 3 4.2-3.2-3.5-3.1z"/><path class="st6" d="M37.6 439.6l2.7 4.2-.3-6.2-2.7-4.1z"/><path class="st1" d="M125.2 414.8l-1.2 4.6.8.9 1.8-3z"/><path class="st3" d="M214.8 377.5l-3.9 1.7 3.6 2.2 3.9-1.8z"/><path class="st2" d="M193.6 379.2l-1.1 4.5.8.9 1.7-2.9z"/><path class="st4" d="M173.9 280.9l-.6 6.2 2.9-5.1.5-6.2z"/><path class="st6" d="M199.1 290.8l-.7 6.8 4 3.2.6-6.8zM132.2 364l-.6 6.8 3.9 3.2.7-6.8z"/><path class="st5" d="M193.4 258.1l2-6.8-4.3 1.4-2 6.7zM209 271l4.3-1.3 2-6.8-4.3 1.4zM45 408.1l3.6 2.9 7.2-1.8-3.6-3z"/><path class="st4" d="M538.2 447.8l-6.7-2.3-3.2 7.2 6.7 2.3z"/><path class="st6" d="M545.2 467.3l2.7 4.1-.3-6.1-2.6-4.2z"/><path class="st5" d="M552.6 435.7l3.6 2.9 7.2-1.8-3.6-3z"/><path class="st4" d="M281 281l-6.7-2.3-3.2 7.2 6.7 2.3z"/><path class="st6" d="M288 300.4l2.7 4.2-.3-6.2-2.7-4.1z"/><path class="st5" d="M295.4 268.9l3.6 2.9 7.2-1.8-3.6-3zM83.7 330l-2 6.8 4.3-1.4 2-6.7zm-65.3-28l2-6.8-4.3 1.3-2 6.8z"/><path class="st2" d="M235.2 257.2l-1.2 4.6.8.9 1.8-3z"/><path class="st3" d="M206.5 465.2l-3.2 4.4-1.2 6.1 3.3-4.4zM3 360.5l3.2-4.4 1.2-6.1-3.2 4.4z"/><path class="st4" d="M208.4 397.6l3.9-1.8-3.5-2.1-4 1.8zm-11.5 36.3l-4 1.8 3.6 2.1 3.9-1.7zM55 361l-3.9 1.7 3.6 2.1 3.9-1.7z"/><path class="st5" d="M233.8 291.2l-2.6 5.2 3.9-2.3 2.6-5.3z"/><path class="st2" d="M151.6 317.5l3.5 2.1 3.8-1.7-3.5-2.1zm-16.4 152.1l-3.5-2.1-3.9 1.7 3.5 2.1z"/><path class="st4" d="M178.6 349.4l-3.6-2.1-3.9 1.7 3.6 2.2z"/><path class="st3" d="M637.9 472.2l-3.2 4.4-1.2 6.1 3.3-4.4z"/><path class="st6" d="M655.1 473.7l-1 7.1 8.1 1.6 1.1-7.1z"/><path class="st2" d="M641.4 531.1l6.3 2.3 3.1-7.2-6.3-2.3z"/><path class="st4" d="M693.7 631.5l-3 7.2 6.3 2.3 3-7.2zm-106-70l-3 7.2 6.3 2.3 3-7.2z"/><path class="st3" d="M697.6 493.9l3.4 3.1 4.2-3.2-3.5-3.1zm7.8 20.6l-4 1.7 3.6 2.1 4-1.7z"/><path class="st2" d="M685.6 518.6l-1.4-2.5-1.2 4.6.9.9z"/><path class="st4" d="M665.6 484.3l-3.9 1.7 3.5 2.1 4-1.7zM223.9 321.5l-4 1.7 3.6 2.1 4-1.7z"/><path class="st6" d="M81 362.4l-2.5-4.2.2 6.2 2.6 4.2zm100 65.7l.4-6.1-2.7 5.1-.5 6.2z"/><path class="st4" d="M75.5 504.4l-4 1.8 3.6 2.1 4-1.8z"/><path class="st3" d="M94.7 502.4l3.6 2.1 4-1.7-3.6-2.1z"/><path class="st6" d="M94.6 493.5l-.2-6.2-2.6-4.2.3 6.2z"/><path class="st3" d="M153.2 528l-1.7-6.5-7.6 1.7 1.7 6.4z"/><path class="st1" d="M83.4 487.5l-1.2 4.6.8.9 1.8-3z"/><path class="st2" d="M93.3 542.2l-3.5-2-3.8 1.7 3.5 2.1z"/><path class="st6" d="M139.1 500.8l.5-6.2-2.8 5.2-.4 6.2z"/><path class="st4" d="M233.7 535.4l-3.9 1.8 3.5 2.1 4-1.8z"/><path class="st3" d="M256.9 531.7l-4 1.7 3.6 2.1 4-1.7z"/><path class="st6" d="M252.8 524.5l-.2-6.2-2.6-4.2.3 6.2z"/><path class="st3" d="M302.1 554.1l1.7 6.5 7.6-1.6-1.7-6.5z"/><path class="st1" d="M241.6 518.4l-1.2 4.7.8.9 1.8-3z"/><path class="st2" d="M248 571.2l-3.8 1.7 3.5 2.1 3.9-1.8z"/><path class="st6" d="M297.3 531.8l.5-6.2-2.8 5.2-.4 6.2z"/><path class="st4" d="M461.3 663.1l-3.9 1.8 3.6 2.1 3.9-1.8zm-315.9-24.2l3.6 2.1 3.9-1.8-3.6-2.1zm53.9-129.8l-3.9 1.8 3.6 2.1 3.9-1.8zm334 96l-3.9 1.8 3.6 2.1 3.9-1.8z"/><path class="st3" d="M500.9 535.4l3.6 2.1 4-1.7-3.6-2.1z"/><path class="st6" d="M498 516.1l.3 6.2 2.5 4.2-.2-6.2z"/><path class="st3" d="M550.1 556.1l1.7 6.5 7.6-1.6-1.7-6.5z"/><path class="st1" d="M491 523l-1.4-2.6-1.2 4.7.8.9z"/><path class="st2" d="M496 573.2l-3.8 1.7 3.5 2.1 3.9-1.8z"/><path class="st6" d="M545.3 533.8l.5-6.2-2.8 5.2-.4 6.2z"/><path class="st4" d="M347.7 617.4l-3.9 1.8 3.5 2.1 4-1.8zM277 735l-3.9 1.8 3.6 2.1 3.9-1.8z"/><path class="st3" d="M366.9 615.4l3.6 2.1 4-1.7-3.6-2.1z"/><path class="st6" d="M364 596.1l.3 6.2 2.5 4.2-.2-6.2z"/><path class="st3" d="M416.1 636.1l1.7 6.5 7.6-1.6-1.7-6.5z"/><path class="st1" d="M355.6 600.4l-1.2 4.7.8.9 1.8-3z"/><path class="st2" d="M362 653.2l-3.8 1.7 3.5 2.1 3.9-1.8z"/><path class="st6" d="M411.3 613.8l.5-6.2-2.8 5.2-.4 6.2z"/><path class="st1" d="M347 412.6l-3 1.8v2.9l3.3-3.5zm52.2-105.2l-3 1.7v3l3.3-3.5zm-42-11.7l-3 1.8.1 2.9 3.2-3.5z"/><path class="st2" d="M374.7 407.8l-.6-.9-.2.9z"/><path class="st3" d="M392.1 419.2l5-2.3 3.9-4.8-4.9 2.3zm-52.6-103.9l-4.9 2.3-3.9 4.8 4.9-2.3z"/><path class="st4" d="M330.8 486.1l-2.2-3.5-4.3-.4 2.2 3.6z"/><path class="st5" d="M386.5 354.7l-4.5.2-4.8 3.4 4.6-.2z"/><path class="st4" d="M376.4 303.8l.8-3.5-1.4-5.4-.8 3.5zm10.7 187.3l.8-3.5-1.4-5.5-.8 3.6zm118.2-113.8l1.4 5.5.7-3.5-1.3-5.5z"/><path class="st3" d="M352.9 493.9l-2.1-3.6-4.3-.3 2.1 3.6z"/><path class="st6" d="M353.4 476.5l-.3-4.8-2.7 5.5.2 4.9zm69.8-116.6l4.8-3.2 3.4-5.2-4.9 3.2zm-40.4-35.4l-4.1-5.9-7 4.5 4.1 5.8zm-21.2-93.1l7-4.4-4.2-5.9-6.9 4.5zm12.8 35.2l-4.2-5.8-6.9 4.4 4.1 5.8zm51.5-4.5l-4.1-5.8-7 4.4 4.1 5.8zM615.1 190l7-4.4-4.1-5.8-7 4.4zm-29 46.6l-4.1-5.8-7 4.4 4.1 5.8zM421.8 426.9l-6.4-5.3-4.2 5.7 6.3 5.3z"/><path class="st2" d="M424.4 383.9l-4.5-5.1-6 4.9 4.4 5zm-37.8 81.7l-4.5-5-6.1 4.9 4.5 5z"/><path class="st4" d="M432.6 471.2l6.1-4.9-4.5-5-6.1 4.9zm-180.4-35l6.1-4.9-4.5-5-6.1 4.8z"/><path class="st2" d="M360 545.3l3.4-5.8-6.5-4.2-3.4 5.7z"/><path class="st3" d="M342.5 350.9l2.4-6.7-7.6-3.2-2.4 6.7z"/><path class="st6" d="M352.7 512.5l-4.5-5-2.6 4.4 1 5.4z"/><path class="st2" d="M343.3 268.5l-7 4.5 4.1 5.8 7-4.4z"/><path class="st3" d="M373.9 407.8l-3.4-.3-2.1-3.5 4.2.3 1.5 2.6.9-3.5-7.5-2.2-1.6 6.5 7.5 2.2z"/><path class="st3" d="M368.4 404l2.1 3.5 3.4.3.2-.9-1.5-2.6zm17.3 136.4l1.6-6.5-7.5-2.2-1.6 6.5zm104.4-137.9l-7.4-2.2-1.6 6.5 7.4 2.2zm-81.4-72.2l-7.4-2.2-1.6 6.5 7.5 2.2z"/><path class="st2" d="M291.2 475l-6.1 4.9 4.5 5 6.1-4.9z"/><path class="st5" d="M436.9 326.5l-6.8.2-7.1 5.1 6.8-.3z"/><path class="st1" d="M374.1 374.1l-4.9 5.2.5 1.8 4.5-2.6z"/><path class="st2" d="M311.4 442.8l-3.2-5.3-6.4-.5 3.2 5.3zm-34.6-38.9l-3.2-5.3-6.4-.5 3.2 5.3z"/><path class="st4" d="M330.1 431.3l-3.2-5.4-6.5-.5 3.3 5.4z"/><path class="st2" d="M468.2 464.2l-3.1-5.2-6.3-.5 3.1 5.3z"/><path class="st3" d="M449.8 463.1l-1.5-4.4-5.2.9 1.6 4.3z"/><path class="st6" d="M254.8 451.5l.2 4.9 2.8-5.5-.3-4.9z"/><path class="st1" d="M340.7 476.1l3-1.7-.1-3-3.2 3.5z"/><path class="st3" d="M442.3 484.9l-2.1-3.6-4.3-.3 2.1 3.6z"/><path class="st6" d="M311 374.3l.4 6.9 3.8-7.8-.3-6.8z"/><path class="st2" d="M417.9 477.3l2.9-1.7v-2.9l-3.2 3.5zm-24.1-27.1l-1 5.4 2 3.5 1-5.4z"/><path class="st4" d="M455.1 373.8l-4.9 3.1-3.4 5.2 4.9-3.1z"/><path class="st6" d="M469.6 402.4l-2-4.7-3.8 5.6 2 4.7zm-93.7 32.4l-1.9-4.6-3.8 5.6 1.9 4.7z"/><path class="st5" d="M483.2 361.2l-4.4-.9-4.9 5 4.4.9zm2.7 23.8l4.4.9 4.9-5-4.4-.9zm-208.4 46.3l6.9 1.6-1.6-4.2-6.9-1.6zM352 378l-4.4-.8-5 4.9 4.4.9zm-43.5-61.7l-4.4-.8-5 5 4.4.8z"/><path class="st2" d="M512.2 388.8l.3 1.1 2.9-1.7v-2.9z"/><path class="st3" d="M391.1 554.5l-5 2.3-3.9 4.8 5-2.3zm-129-189.1l4.9-2.3 4-4.8-5 2.3z"/><path class="st4" d="M422.8 492.4l2.2 3.6 4.3.3-2.2-3.6zM399.6 526l-2.1-3.6-4.3-.3 2.1 3.6zm-89.9-131.8l-2.1-3.6-4.3-.3 2.1 3.6z"/><path class="st5" d="M502.5 414.3l-4.5.2-4.8 3.4 4.6-.2z"/><path class="st2" d="M419.5 402.3l-2.1-3.5-4.2-.3 2.1 3.5zM320 520.5l2.1 3.5 4.2.3-2.1-3.5z"/><path class="st3" d="M369.1 509.8l-2.2-3.6-4.2-.3 2.1 3.6z"/><path class="st4" d="M421.7 439.4l-2.1-3.6-4.3-.3 2.1 3.6zm55.3.6l-2.2-3.6-4.2-.3 2.1 3.6z"/><path class="st6" d="M326.8 405l.2 4.9 2.8-5.6-.3-4.9zm54.6 108l4.9-3.3 3.3-5.2-4.9 3.2z"/><path class="st1" d="M329.5 115.1l.5-4.8-1-.7-1.3 3.2zM387.3 4.5l.5-4.5h-1.3l-1 2.2zM267.5 15.4l.5-4.7-.9-.8-1.4 3.2z"/><path class="st2" d="M348.4 89.1l-1.1-.4.4.9z"/><path class="st3" d="M371.9 76.7l-2.5 4.9-.3 6.2 2.6-4.9zM264.4 42.4l.3-6.2-2.6 4.8-.2 6.2z"/><path class="st4" d="M352.7 178.9l3.8 1.6 3.7-2.4-3.9-1.5z"/><path class="st5" d="M326 39.6l-3.6 2.8-1.8 5.6 3.6-2.9z"/><path class="st4" d="M287.3 4.9l-1.5-3.3-2-1.6h-1.5l.6 1.4zm8.6 47.3l4.4 3.6-1.5-3.3-4.4-3.5zm106.4 89.3l1.6 3.3 4.3 3.5-1.5-3.2z"/><path class="st3" d="M375.1 171.8l3.8 1.6 3.7-2.4-3.9-1.5z"/><path class="st6" d="M372.5 156.9l-3.1-3.8 1.1 6.1 3.1 3.8zM358.4 21.7l2-5.5-.1-1.4c-.7.6-1.5 1.2-2.2 1.9l.3 5zm-56.5 3.6l2.9-7.8-6.7-2.1-3 7.7zM442 36.8l-8.3-.5v7.2l8.3.4zm-44.6 39.3l-8.2-.4v7.1l8.2.4z"/><path class="st2" d="M412.8 41.1l-6.6-1.3-1.9 7.5 6.6 1.4zm-45.7-2.3l-1.9 7.5 6.6 1.4 1.9-7.6zm25.4 89.5l-6.5-1.4-2 7.5 6.6 1.4z"/><path class="st4" d="M350.8 56.6l-1.9 7.5 6.5 1.4 2-7.5z"/><path class="st5" d="M341.1 161.7l-7.7.4.7 6.7 7.8-.5z"/><path class="st4" d="M434.6 97.6l-6.6-1.4-1.9 7.6 6.6 1.3zm-171.9 78.8l-2 7.5 6.6 1.4 2-7.5z"/><path class="st2" d="M418.4 201.3l-7.8.4.7 6.7 7.8-.5z"/><path class="st3" d="M288.4 62.9l-2.1-6.9-8 2.1 2.1 6.8z"/><path class="st6" d="M387.5 189.8l4.1 3.8 1.9-7.5-6.6-1.4zm-126.6-66l1.9-7.5-6.6-1.4.6 5.1zm-20.2 28l6.8 2.2 2.9-7.8-6.8-2.1z"/><path class="st2" d="M239.9 0h-1.5l-.8 2.1c.8-.7 1.6-1.4 2.3-2.1zm2.7 3.7c.7.1 1.2.3 1.7.6l1.6-4.3h-1.6c-.1.7-.4 1.9-1.3 3.1-.1.2-.2.4-.4.6z"/><path class="st3" d="M341.2 94.3l7.4-2.7-.9-2-2.9 1.8-3.8-1.6 3.6-2.2 2.7 1.1-1.4-3.3-7.3 2.7z"/><path class="st3" d="M341 89.8l3.8 1.6 2.9-1.8-.4-.9-2.7-1.1zm95.7 98.8l-2.7-6.2-7.3 2.7 2.7 6.2zm-6.5-170.3l2.6 6.2 7.3-2.7-2.6-6.2zm-98.5-5.4l-2.6-6.2-7.3 2.7 2.6 6.2z"/><path class="st2" d="M321.8 193l-1.9 7.5 6.6 1.3 1.9-7.5z"/><path class="st1" d="M330.3 65.9l-2.6-3.4-.8 7.1 1.4 1.2zm-80.1 33.9l1.4 1.2 2-4.9-2.7-3.4z"/><path class="st2" d="M313.3 158.6l5.4-3.5-5.8-2.4-5.4 3.5zm-45.6-13.9l-5.8-2.4-5.4 3.5 5.8 2.4z"/><path class="st4" d="M320.9 132.3l-5.4 3.4 5.8 2.4 5.4-3.5z"/><path class="st5" d="M343.2 203.4l2.7-8.3-5.4 4.3-2.6 8.3z"/><path class="st2" d="M446 79.2l5.7 2.3 5.3-3.4-5.7-2.3z"/><path class="st3" d="M441.6 88.2l-3.9-2.5-3.6 3.8L438 92z"/><path class="st6" d="M280.6 193.7l-3.1-3.8 1.1 6.1 3.1 3.8z"/><path class="st1" d="M361.1 163.4l1 .8 1.3-3.2-1.8-2.4z"/><path class="st3" d="M444.8 108.7l-3.6 2.3 3.9 1.6 3.6-2.4z"/><path class="st6" d="M280.1 97.3l-4.4-5.3 1.6 8.5 4.4 5.3z"/><path class="st2" d="M424.1 113.4l-.5 4.7 1 .7 1.3-3.1zm-31.3-.2l-3.7-1.6 2.4 4.9 3.7 1.6z"/><path class="st4" d="M392.7 19.9l-.4-6.2-2.1 5.4.4 6.2z"/><path class="st6" d="M421 27.8l-4.4-2.6.3 6.9 4.4 2.5z"/><path class="st2" d="M351.9 121.5l-3.6 6.9 6.1 2.9 3.6-7z"/><path class="st6" d="M365.5 110l-4.3-2.6.3 6.8 4.4 2.6z"/><path class="st5" d="M427.6 2.2l.3-2.2h-3.7l-.6 4.2zM280.9 163.8l3.8 2.4 6.4-2.8-3.8-2.5zm26.3-76l4.1-1.9 1-7-4.1 2zm-67.7-25.2l1-7-4 2-1 7z"/><path class="st2" d="M436.8 75.5l-3.8-1.6-3.5 2.3 3.8 1.6z"/><path class="st3" d="M446.9 201.5l-.3 6.2 2.6-4.9.2-6.2zm-211.5-83.6l.2-6.2-2.5 4.9-.3 6.2z"/><path class="st4" d="M441.4 129.5l3.7-2.3-3.9-1.6-3.6 2.3zm-5.9 41.5l3.7-2.3-3.9-1.6-3.6 2.3zm-150.9-51.5l3.6-2.3-3.9-1.5-3.6 2.3z"/><path class="st6" d="M456.3 149.9l-3.1-3.8 1.1 6.1 3.2 3.8z"/><path class="st5" d="M452.8 23.2l1.7-5.6-3.5 2.9-1.8 5.5z"/><path class="st2" d="M373.5 58.6l3.8 1.5 3.6-2.2-3.8-1.6zm-1.3 153.5l3.8 1.6 3.5-2.3-3.8-1.6z"/><path class="st3" d="M401.4 176.4l3.6-2.3-3.8-1.6-3.6 2.3z"/><path class="st4" d="M401.1 84.6l-3.7 2.3 3.9 1.6 3.6-2.3zM442 54.2l3.8 1.6 3.7-2.3-3.9-1.6z"/><path class="st6" d="M310.3 113.3l-3.1-3.8 1.1 6.1 3.1 3.7zm108.4 50.4l-.4-6.2-2 5.6.5 6.1z"/><path class="st1" d="M560.5 37.8l-2.3 1.7 4.7.6.8-1zm108.2 59.6l4.8.5.8-.9-3.2-1.4zm9.7-78.7l.8-.9-3.2-1.4-2.3 1.8z"/><path class="st2" d="M584.2 58.5l.4-1.1-.9.4z"/><path class="st3" d="M590.4 81.8l6.2.2-4.9-2.5-6.2-.3z"/><path class="st4" d="M495.1 70.2l1.6-3.8-2.3-3.6-1.6 3.8z"/><path class="st5" d="M625.3 30.7l2.9 3.6 5.5 1.7-2.9-3.5z"/><path class="st4" d="M617.5 10.4l3.3-1.5 3.5-4.4-3.2 1.5zm-92.6 107.9l3.3-1.5 3.5-4.4-3.2 1.5zM683.3 149l3.3-1.5 3.6-4.4-3.3 1.5z"/><path class="st3" d="M503.8 88.8l-2.3-3.6-1.6 3.8 2.3 3.6z"/><path class="st6" d="M510.3 83.7l6.1-1.1 3.7-3.2-6 1.2zM663.2 70l-5.5-2-6.1.5 5.5 1.9zm-5.3-61.9l-7.7-2.9L648 12l7.7 2.9zm-28.1 135.7l-.4 8.2h7.1l.4-8.2zm-39.3-44.5l-.5 8.2h7.2l.4-8.3z"/><path class="st2" d="M626 114.4l-1.4 6.5 7.5 2 1.4-6.6zm.9-39.1l-1.3 6.5 7.5 2 1.4-6.6zM545 102.6l1.4-6.6-7.6-1.9-1.3 6.6z"/><path class="st4" d="M609.1 58.9l-1.3 6.6 7.5 2 1.4-6.6z"/><path class="st5" d="M511.6 51.2l-.5-7.8-6.6.8.4 7.8z"/><path class="st4" d="M569.5 136.2l-1.3 6.5 7.5 2 1.4-6.6z"/><path class="st2" d="M471.5 120.7l-6.6.7.4 7.8 6.7-.8z"/><path class="st6" d="M479.7 101.6l7.5 2 1.4-6.6-5.2.6z"/><path class="st3" d="M681.4 79.3l-3.7 4 7.5 2 1.4-6.6zM579 51.3l2.7 7.3 2-.8-1.8-2.9 1.5-3.8 2.3 3.6-1.1 2.7 3.3-1.4-2.7-7.3z"/><path class="st3" d="M583.4 51.1l-1.5 3.8 1.8 2.9.9-.4 1.1-2.7zm-95.3 85.7l-6.1 2.6 2.7 7.3 6.1-2.6zm160.7 6.1l2.7 7.3 6.2-2.6-2.7-7.3zm8.9-108.4l2.7 7.3 6.2-2.6-2.7-7.4z"/><path class="st2" d="M471.4 36.5l7.6 2 1.3-6.6-7.5-1.9z"/><path class="st5" d="M673.9 51.4l4.3 5.3 8.4 2.7-4.3-5.3z"/><path class="st1" d="M607.3 40.4l3.5-2.7-7.1-.7-1.2 1.4z"/><path class="st2" d="M518.2 28.8l2.3-5.8-3.4-5.5-2.4 5.8z"/><path class="st4" d="M538.6 36.8L541 31l-3.5-5.4-2.3 5.7z"/><path class="st5" d="M473.9 50.6l-8.3-2.6 4.3 5.3 8.3 2.6z"/><path class="st2" d="M594.1 156.1l-2.4 5.7 3.4 5.3 2.4-5.7z"/><path class="st3" d="M585 151.7l2.6-3.9-3.8-3.6-2.6 3.8z"/><path class="st1" d="M509.9 71.2l-.8 1 3.2 1.3 2.3-1.8z"/><path class="st3" d="M562.3 151.3l-1.6 3.8 2.3 3.7 1.6-3.9z"/><path class="st2" d="M559.9 134.2l-4.7-.5-.8 1 3.2 1.3zm-3.1-32.7l-1.6 3.7 4.9-2.4 1.6-3.7z"/><path class="st4" d="M659.6 102.4l-5.4-2.1-6.2.4 5.4 2z"/><path class="st6" d="M638.6 131.4l6.8-.3 2.6-4.4-6.8.3z"/><path class="st2" d="M548.9 68l2.8-6-6.9-3.7-2.8 6.1z"/><path class="st6" d="M556.5 75.9l6.8-.3 2.6-4.4-6.9.4z"/><path class="st5" d="M684.6 113.2l-7-.9 2 4 7 1zm-8.5 21.4l-7-1 2 4.1 6.9 1zM510.7 0h-1.3l.5 1.2zm74.7 17.3l2 4.1 7 1-2-4.1z"/><path class="st2" d="M681.1 157.9l3.2 1.3 2.3-1.7-4.7-.5zm-84-18.3l-1.6 3.7 2.3 3.6 1.5-3.8z"/><path class="st3" d="M465.6 156.7l4.8 2.5 6.2.3-4.8-2.6z"/><path class="st4" d="M547.7 151.3l-2.3-3.6-1.6 3.8 2.3 3.6zm-41.6-5.9l-2.3-3.6-1.6 3.8 2.4 3.6z"/><path class="st6" d="M517.3 167.5l6.1-1.1 3.7-3.1-6 1.1z"/><path class="st5" d="M650.1 162.8l5.5 1.8-2.8-3.6-5.6-1.7z"/><path class="st2" d="M615.4 90.9l1.5-3.7-2.2-3.6-1.6 3.8zm-154.2-8.6l-1.6 3.7 2.3 3.6 1.5-3.8z"/><path class="st3" d="M499.2 115.1l1.6-3.8-2.4-3.7-1.5 3.9z"/><path class="st4" d="M584.8 111.4l2.3 3.6 1.6-3.9-2.3-3.6zm35 48.1l1.6-3.8-2.4-3.6-1.5 3.8z"/><path class="st6" d="M560 20.4l3.8-3.1-6.1 1.1-3.8 3.1zm-55.9 106.4l5.5 2 6.1-.4-5.5-2z"/><path class="st1" d="M797.8 190.5l-2.1-2 .3 4.7 1 .7z"/><path class="st3" d="M799.8 114.8l.2-.7v-8.2l-.9 2.7z"/><path class="st4" d="M795.7 12.7l4.1 1 .2-.2v-3.3l-1.1-.3zm-36 42.7l-2-2.9-4.9-2.9 2 3zM749 213.9l4.9 2.8-2-3-4.9-2.8z"/><path class="st3" d="M778.7 24.2l3.2-2.9-4-.9-3.2 2.8z"/><path class="st6" d="M784.8 29.8l2 5.8 3.7 3.3-2.1-5.8zM735.7 158l1.1 7.1 8.2-.9-1.1-7zm39-38.7l8.2-.8-1.1-7.1-8.2.9z"/><path class="st2" d="M765.6 148.5l-.7 7.8 6.7.3.7-7.8zm13.3-88.9l-6.7-.3-.7 7.7 6.7.4z"/><path class="st4" d="M740.7 96.4l-5.3-.3-.3 2.9c1-.3 2.1-.5 3.2-.7 1-.7 1.8-1.4 2.4-1.9zm0 6.8c-.2 0-.5.1-.8.2-.3.2-.6.4-.8.7l2.3.1.1-1.1c-.3 0-.6.1-.8.1z"/><path class="st6" d="M768.2 10.4l-1.3-5-4.6-3.1-.8 7.8z"/><path class="st3" d="M718.5 14.3l3.6 5.6 6.8-3.8-3.6-5.6zm22.4 165.3l3.6 5.7 6.8-3.8-3.6-5.7z"/><path class="st2" d="M720.2 122.3l-4.7 4.2 5.9 1.4 4.8-4.1z"/><path class="st3" d="M547.8 383.8l-3 4.3 4.2 1.9 3-4.3z"/><path class="st1" d="M797 27.5l-1-.7-.9 3.4 2.2 2z"/><path class="st3" d="M718.7 93.5l2.6.6-.8-2.1z"/><path class="st2" d="M742.5 86.6l-.2-4.7-.4-.2c0 .4 0 1.7-1 3.3l1.6 1.6zm27.9-9.1l3.2 4.4 3.9 1.1-3.2-4.5z"/><path class="st4" d="M789.3 168.5l-1.2 5.7 1.3 6 1.2-5.7z"/><path class="st6" d="M763.6 172.5l-1.4-6.6-4.7-1.9 1.4 6.7zM800 76.4v-2l-.5-.2z"/><path class="st5" d="M782.4 199.6l-3.7 2.5.1 7 3.7-2.5zm-22.4-5.2l-3.7 2.6.1 7 3.7-2.5z"/><path class="st2" d="M738.9 210.7l-1-.6-.8 3.3 2 2zm.1-87.5l-3.2 2.8 4 1 3.2-2.8z"/><path class="st3" d="M704.2 4l1.1-.4c-.2.4-.5 1.2-.9 2.1l.3 2.6 1.8-5.2-.4-3.1h-1.4l-.7 2.1.2 1.9z"/><path class="st4" d="M721.9 76.8l1.9.4.5-.4c-.8-.1-1.6-.1-2.4 0zm.4-45.4l-3.2 2.9 4.1.9 3.2-2.8z"/><path class="st6" d="M708.7 58.8l-2-5.9-3.7-3.2 2.1 5.8z"/><path class="st5" d="M727.3 185.9l3.1-3.4.9-5.7-3.1 3.4z"/><path class="st2" d="M793.9 134.8l3.9.9 2.2-1.9v-1.1l-3-.7z"/><path class="st3" d="M756 24.6l3.3-2.8-4.1-1-3.2 2.9z"/><path class="st4" d="M765.7 110.5l4.1 1 3.2-2.8-4.1-1zm-38.9 39.2l4 1 3.2-2.9-4-.9z"/><path class="st6" d="M740.1 36.1l1.4 6 1.1-5.8-1.4-6z"/><path class="st2" d="M473.7 489.9s0-3 1.4-7.3c2.4-7.3 7.6-17.5 8.3-19.6l-3.4 1.3c-.1 0-10.6 18.8-6.3 25.6z"/><path class="st7" d="M525.5 260c-3.4-1.4-9.6-2.3-9.6-2.3l-11.5-1.9s-4.4-1.4-6.1-2.9c-.1 1.1-.1 1.8-.1 1.8.3.7.8 1.5 1.7 2.1 2.4 1.7 10.4 3.6 10.4 3.6l11.1 1.8 6.4 2.2c-.1-.1 1.1-3-2.3-4.4z"/><path class="st4" d="M154.1 69.7c.6.7 2.2 2.7 3.8 6 3.4 6.9 6.7 17.9 7.6 19.8l1.6-3.4s-1.6-6.1-4.3-12l-1.8.3 1.4-1.2c-2.1-4.3-4.7-8.4-7.8-9.6-.1 0-.3 0-.5.1z"/><path class="st4" d="M162.8 80.2c-.1-.3-.3-.6-.4-.8l-1.4 1.2 1.8-.4z"/><path class="st8" d="M129.5 83.4c3.4-1.3 8.5-5 8.5-5l9.6-6.6s4.2-2 6.4-2.2c-.1-.2-.2-.3-.2-.3.3.1.5.2.8.3.1 0 .2 0 .3.1 0 0-1.8-2.2-4.8-1.8-3 .4-10 4.7-10 4.7L131 79l-6.1 2.8s1.2 3 4.6 1.6z"/><path class="st8" d="M154.1 69.7h.6c-.3-.1-.5-.2-.8-.3 0 0 .1.1.2.3z"/><path class="st6" d="M747.3 461.3c-1.6 1.7-4.1 4.2-7.7 6.8-10.9 8-28.8 17.1-31.9 19.3l6.3 1.7s27.3-12.6 33.8-25.4c0-.7-.1-1.5-.5-2.4z"/><path class="st8" d="M738.3 439.3l-11.8-11.9-3.1 4.1-1.9-6.2 1.6-2-5.4-7.6s-4.7 2.9-1.3 8.5c3.3 5.5 11.2 13.2 11.2 13.2L742 452s4 5.5 5.5 9.4c1.3-1.4 1.9-2.2 1.9-2.2-.1 1.5-.6 3-1.4 4.6v.3s3.3-3.8 1.6-8.8c-1.8-5.2-11.3-16-11.3-16z"/><path class="st8" d="M723.3 431.5l3.1-4.1-2-2.1-1.5-2-1.5 2zm24 29.8c.3.9.5 1.7.5 2.3.8-1.5 1.3-3.1 1.4-4.6 0 .1-.6.9-1.9 2.3z"/><path class="st6" d="M359.9 10C349 18 331.1 27.1 328 29.3l6.3 1.7s13.5-6.2 23.8-14.4l-.1-1.1 1.9-5.5z"/><path class="st6" d="M359.9 10l.4 4.7c5-4.4 8.9-9.1 9.2-13.7-.1 0-3.2 4.3-9.6 9zm-2 5.5l.1 1.1c.8-.6 1.5-1.2 2.2-1.9l-.4-4.7-1.9 5.5z"/><path class="st9" d="M368.9 1.4s.4-.5.9-1.4h-1c.1.5.1 1 .1 1.4z"/><path class="st6" d="M23.6 76.7l3.1-5.7s-1-5.6-3.1-12.6l-2.1-.8 1.8-.1c-3.3-11.1-9-25.3-17.1-27.9 0 0 3.4 4.1 6.4 11.4 5.2 12.5 9.7 32.1 11 35.7z"/><path class="st6" d="M23.6 58.4l-.3-.9-1.8.1 2.1.8z"/><path class="st9" d="M6.5 30.1S4.2 26.8 0 26.4v4.3c2.6-.6 5.2-1.1 6.5-.6z"/><path class="st8" d="M57.2 118.3v-12.8c-11.8-14.6-30.1.9-30.1.9l2.7 14.6c8.2-13.6 27.4-2.7 27.4-2.7zM558.8 10.9c8.2-13.7 27.3-2.7 27.3-2.7V0h-29.4l2.1 10.9zM435.1 286.6l-8.7 12c15.6-3.4 20.7 18 20.7 18l9.3-8.8c2.5-18.6-21.3-21.2-21.3-21.2zm-173 56l9.3-8.8c2.5-18.6-21.3-21.3-21.3-21.3l-8.7 12c15.5-3.3 20.7 18.1 20.7 18.1zm385.5-174l-8.7 12c15.6-3.4 20.7 18 20.7 18l9.3-8.8c2.5-18.6-21.3-21.2-21.3-21.2zm-180.5 33.2l12.4 8.2c-4.1-15.4 17-21.6 17-21.6l-9.2-8.9c-18.7-1.5-20.2 22.3-20.2 22.3zM224.2 468.1c-18.7-1.6-20.2 22.3-20.2 22.3l12.4 8.2c-4.1-15.4 17-21.6 17-21.6l-9.2-8.9zM14.9 426l-9.2-8.9c-2.1-.2-4 0-5.7.4v18.2c4.9-6.8 14.9-9.7 14.9-9.7zm-.2-112.5l-9.2-8.9c-2-.2-3.9 0-5.5.3v18c5-6.6 14.7-9.4 14.7-9.4z"/><path class="st10" d="M594.2 506.9l1.1-8.5c-6.7-10.7-20.1-1.9-20.1-1.9l.6 10c6.5-8.5 18.4.4 18.4.4zM342.1 238.6l1.1-8.5c-6.7-10.7-20.1-1.9-20.1-1.9l.6 10c6.5-8.5 18.4.4 18.4.4zm144.1 100.5l.6 10c6.6-8.4 18.5.5 18.5.5l1.1-8.5c-6.8-10.8-20.2-2-20.2-2zM246.1 198.6l1.1-8.5c-6.7-10.7-20.1-1.9-20.1-1.9l.6 10c6.5-8.5 18.4.4 18.4.4zM150.6 6.4c6.6-8.4 18.5.5 18.5.5L170 0h-19.7l.3 6.4zm351.9.5l.9-6.9h-19.7l.4 6.4c6.6-8.4 18.4.5 18.4.5zm181.1 243.5c-6.7-10.7-20.1-1.9-20.1-1.9l.6 10c6.6-8.4 18.5.5 18.5.5l1-8.6z"/><path class="st7" d="M695.5 41.1c3.1 2.2 13.1 4.5 13.1 4.5l14 2.3 7.3 2.5c.4-1.3.6-2.5.6-2.8-.4-.9-1.2-1.8-2.7-2.4-4.3-1.8-12.1-2.9-12.1-2.9l-14.5-2.4s-6.4-2.1-8.2-4c-.1 1-.1 1.6-.1 1.7.4 1 1.1 2.4 2.6 3.5zm13.8 33.8c.2.1 4 2.4 11.6 1.9h1l-2.2-.5 3.2-2.8 4.1 1-2.7 2.4c5.8.1 12 1.3 14.8 2.7.4-1.5.4-3 .4-3.4-.2-.4-.5-.8-.9-1-1.8-.9-5.7-3-10.6-3-4.9 0-10.3-.3-10.3-.3s-3.5-.3-4.9-.4c-2 1.5-3.3 3.1-3.5 3.4z"/><path class="st7" d="M722.9 73.4l-3.2 2.8 2.2.5h2.4l2.7-2.4-4.1-.9z"/><path class="st2" d="M730.7 50.6l-.7-.2c-.4 1.3-1 2.6-1.9 3.4-2 1.6-9.2 7.9-13.1 9.7-3.9 1.8-7.5 6.6-7.5 6.6l1.7 4.9s1.9-3.1 2.9-3.5c.1 0 .3 0 .6.1 1.2-1 2.6-2.1 4.2-2.8 4.2-2 11.2-8 11.2-8s4.7-4 4.5-7.4c-.2-3.4-1.9-5.7-1.9-5.7v.1c.6 1.3 0 2.8 0 2.8z"/><path class="st2" d="M730.7 50.6s.6-1.5-.1-3.1c0 .3-.2 1.5-.6 2.8l.7.3zm-21.5 24.3s.1 0 0 0c.2-.3 1.6-1.8 3.4-3.4-.3 0-.5 0-.6-.1-.9.3-2.8 3.5-2.8 3.5z"/><path class="st7" d="M735.5 90.4c2.5-.3 6.9.8 8.4 1.2.3-.9.4-1.7.5-1.9-.2-1-.9-2.2-2.4-3-.5-.3-1.1-.5-1.9-.6-1 1.2-2.4 2.6-4.6 4.3zm-14.1.8l.6-.5.9.2c3.1-.9 7.8-3.1 9.1-4 .5-.3 1-.7 1.5-1.1-2.8.2-5.7.8-7.9 1.5-4.8 1.5-5.7 3-5.7 3l.4.9c.1.1.5.1 1.1 0z"/><path class="st7" d="M721.4 91.2c.4-.1.9-.2 1.5-.3l-.9-.2-.6.5z"/><path class="st2" d="M739.1 79.5c-.2.8-.6 1.6-1.1 2.1-1.2 1.4-3 2.9-4.6 4.1 2.5-.2 4.9-.2 6.7.2.1-.2.3-.4.4-.6.1-.2.2-.3.3-.5l-.4-.4.8-3.3.6.4v-.1l-2.3-5.5v.1c.9 1.6.9 4.3.9 4.3-.3-.2-.7-.5-1.3-.8zm-17.8 14.6l.8 1.9zm-1.1-3c-.1 0-.1 0 0 0l.3.9-.3-.9zm1.9 4.9s4.4.9 9.4-2.6c1.6-1.1 2.9-2.1 4-3-.2 0-.4.1-.6.1-2.7.8-12.8 5.5-12.8 5.5zm-1.6-4l.8 2.1z"/><path class="st2" d="M740.4 84.6l.4.4c1-1.6 1-3 1-3.3l-.6-.4-.8 3.3zm-1.3-5.1c.6.3 1 .6 1.3.9 0 0 0-2.7-.9-4.3 0 .4 0 1.9-.4 3.4zm-5.7 6.3c-.5.4-1 .8-1.5 1.1-1.3 1-5.9 3.1-9.1 4l3.2.7-3.2 2.8-1.5-.3.7 1.9s10.1-4.8 12.9-5.5c.2 0 .4-.1.6-.1 2.2-1.7 3.6-3.1 4.6-4.4-1.8-.4-4.2-.4-6.7-.2zm-12 5.4c-.5.1-.9 0-1.2-.1l.3.8.9-.7z"/><path class="st2" d="M720.5 92l.8 2.2 1.5.3 3.2-2.8-3.2-.7c-.6.2-1.1.3-1.5.3l-.8.7z"/><path class="st7" d="M741.5 102.1l-.1 1c1 0 1.9.1 2.5.3 1.2-1.8 1.7-3.4 1.7-3.4v-.1c-.3-.4-.7-.6-1.1-.9-.6.9-1.7 2-3 3.1zm-13.6 1.2c2 0 4.6-1.2 7-2.7l.2-1.6c-1.1.3-2.1.6-2.9.8-3.6 1-4.4 3.3-4.4 3.3l1.8 5.2c0 .1-1.1-3.2-1.7-5z"/><path class="st7" d="M739.9 103.4c.3-.1.6-.2.8-.2.2 0 .5-.1.7-.1l.1-1c-.5.4-1 .9-1.6 1.3zm-1.6-5.1c-1.1.2-2.2.4-3.2.7l-.2 1.6c1.2-.7 2.4-1.5 3.4-2.3z"/><path class="st2" d="M744.4 91.7s-.2-.1-.5-.1c-.4 1.3-1.1 3-2.1 3.9-.3.2-.6.6-1.1.9l1.4.1-.2 1.7c.9.1 1.8.4 2.6.9.1-.1.1-.2.2-.2 1.1-1.8 1.6-4.5 1.6-4.5l-1.9-4.7c.3 1.1 0 2 0 2zm-14.8 16.7s3.6-.1 6.6-2.2c.9-.6 1.9-1.3 2.8-2.1h-.7c-3.3 1.4-8.7 4.3-8.7 4.3zm8.8-4.3h.7c.3-.2.6-.4.8-.7-.4.2-.9.4-1.5.7z"/><path class="st2" d="M741.9 98.2l.2-1.7-1.4-.1c-.7.5-1.5 1.2-2.4 1.9 1.2-.2 2.5-.3 3.6-.1zm2.5-6.5s.2-.9 0-2c0 .2-.2 1-.5 1.9.3.1.5.1.5.1zm-6 12.4l-3.7-.2.3-3.3c-2.4 1.5-5 2.7-7 2.7l1.7 5.1s5.3-2.9 8.7-4.3z"/><path class="st2" d="M741.5 102.1c1.3-1.1 2.4-2.2 3-3-.8-.5-1.7-.8-2.6-.9l-.4 3.9zm-3.2-3.8c-1 .8-2.2 1.6-3.4 2.3l-.3 3.3 3.7.2c.6-.3 1.1-.5 1.5-.6.6-.4 1.1-.9 1.6-1.3l.4-3.9c-1-.3-2.3-.2-3.5 0zm6.3 5.3s-.2-.1-.6-.2c-1.1 1.6-2.8 3.3-5.3 3.8.2 1.6.7 5.2.7 5.2s3.3-1.2 5.9-3.8c2.6-2.6 2.1-3.5 2.1-3.5l-1.6-5.1c.3 2.6-1.2 3.6-1.2 3.6z"/><path class="st2" d="M743.9 103.4c.4.1.6.2.6.2s1.5-1 1.1-3.6c.1 0-.5 1.7-1.7 3.4zm-43-98.2s-13.3 23.6-7.9 32.2c-.3-1.2-.2-2.1-.2-2.1.1.2.2.3.4.5.2-1.6.6-4.3 1.6-7.5 2.5-7.7 7.4-17.8 9.6-22.5l-.2-1.8-3.3 1.2zm3.3-1.2l.2 1.7c.4-1 .7-1.7.9-2.1l-1.1.4z"/><path class="st2" d="M692.8 35.3s-.1.9.2 2.1c0-.1 0-.7.1-1.7-.1-.1-.2-.3-.3-.4z"/><path class="st7" d="M234.4 4.6c.5-.3 1-.7 1.5-1.1-2.8.2-5.7.8-7.9 1.5-4.8 1.5-5.7 3-5.7 3l.4.9c1.6.7 9.9-3 11.7-4.3zm6.5 1c-.8.7-1.7 1.6-2.9 2.4 2.5-.3 6.9.8 8.4 1.2.3-.9.4-1.7.5-1.9-.2-1-.9-2.2-2.4-3 0 0-.1 0-.1-.1l-.8 2.2-2.7-.8z"/><path class="st7" d="M240.9 5.6l2.6.9.8-2.2c-.5-.2-1.1-.4-1.7-.6-.5.6-1 1.2-1.7 1.9z"/><path class="st2" d="M237.5 2.1c-.5.5-1.1.9-1.6 1.3.4 0 .8-.1 1.2-.1l.4-1.2zm-14.9 6.7l2 4.9-2-4.9zm2 4.9s4.4.9 9.4-2.6c1.6-1.1 2.9-2.1 4-3-.2 0-.4.1-.6.1-2.7.8-12.8 5.5-12.8 5.5z"/><path class="st2" d="M237.5 2.1l-.5 1.2c2.1-.1 4 0 5.6.3.1-.2.3-.4.4-.6.9-1.3 1.2-2.4 1.3-3.1h-4.4c-.7.8-1.5 1.5-2.4 2.2zm3.4 3.5l-4.1-1.3.3-.9c-.4 0-.8 0-1.2.1-.5.4-1 .8-1.5 1.1-1.8 1.3-10.1 5.1-11.8 4.2l1.9 4.9s10.1-4.8 12.9-5.5c.2 0 .4-.1.6-.1 1.1-.9 2.1-1.7 2.9-2.5z"/><path class="st2" d="M240.9 5.6c.7-.7 1.3-1.3 1.8-1.9-1.5-.3-3.5-.4-5.6-.3l-.3.9 4.1 1.3z"/><path class="st7" d="M242.4 21.1c.3-.1.6-.2.8-.2 1.2-.2 2.5 0 3.2.2 1.2-1.8 1.7-3.4 1.7-3.4v-.1c-.3-.4-.7-.6-1.1-.9-.8 1.2-2.6 2.8-4.6 4.4zm-1.6-5.1c-2.3.4-4.5 1.1-6.1 1.6-3.6 1-4.4 3.3-4.4 3.3l1.8 5.2-1.7-5.1c3.1 0 7.3-2.7 10.4-5z"/><path class="st2" d="M238.7 23.9c1.1-.8 2.4-1.8 3.7-2.8-2.9 1-10.3 5-10.3 5s3.6-.1 6.6-2.2zm8.2-14.5s-.2-.1-.5-.1c-.4 1.3-1.1 3-2.1 3.9-.6.6-1.9 1.7-3.5 2.9 2.2-.3 4.4-.3 6.2.8.1-.1.1-.2.2-.2 1.1-1.8 1.6-4.5 1.6-4.5l-1.9-4.7c.3 1 0 1.9 0 1.9z"/><path class="st2" d="M246.9 9.4s.2-.9 0-2c0 .2-.2 1-.5 1.9.3 0 .5.1.5.1zm-6.1 6.6c-3.1 2.3-7.3 5-10.4 5l1.7 5.1s7.4-3.9 10.3-5c2-1.6 3.8-3.2 4.6-4.4-1.8-1-4-1.1-6.2-.7zm6.2 5.3s-.2-.1-.6-.2c-1.1 1.6-2.8 3.3-5.3 3.8.2 1.6.7 5.2.7 5.2s3.3-1.2 5.9-3.8c2.6-2.6 2.1-3.5 2.1-3.5l-1.6-5.1c.3 2.6-1.2 3.6-1.2 3.6z"/><path class="st2" d="M246.4 21.1c.4.1.6.2.6.2s1.5-1 1.1-3.6c0 0-.5 1.6-1.7 3.4z"/><path class="st7" d="M150.1 236.4c0 .2.2 1.1.6 2.1l6.4-.9 12.2.2s8.8-.4 11.4-1.6c1.3-.6 1.9-1.5 2.1-2.3 0-.1 0-.5-.1-1.2-1.5 1.2-7.1 1.8-7.1 1.8l-12.6-.1s-6.8-.2-10.5.6c-1.4.2-2.1.8-2.4 1.4zm16.3 19.7c-1.3-.1-4.3-.3-4.3-.3s-4.7-.5-9-1.2c-4.3-.6-7.7.4-9.2.8-.3.1-.6.3-.8.6 0 .2 0 1.4.4 2.5 2.9-.8 10.1-.7 15.9.4 6.6 1.3 10 .2 10.1.1-.2-.2-1.4-1.5-3.1-2.9z"/><path class="st2" d="M150.1 236.4c0-.1 0-.1 0 0 0 0-1.4 1.4-1.5 3.8s4.1 5.9 4.1 5.9 6.3 5.3 10 7.3c1.4.7 2.6 1.7 3.7 2.6h.5c.9.4 2.6 2.9 2.6 2.9l1.4-3.3s-3.3-3.9-6.8-5.8c-3.4-1.8-10-7.4-11.7-8.8-.8-.7-1.4-1.7-1.7-2.7l-.6.1c0 .2-.6-1 0-2z"/><path class="st2" d="M150.1 238.6l.6-.1c-.4-1-.6-1.9-.6-2.1-.6 1 0 2.2 0 2.2zm16.8 17.5h-.5c1.7 1.4 2.9 2.7 3.1 3s-1.8-2.6-2.6-3z"/><path class="st7" d="M160.3 269.4l.3-.6s-.8-1.2-5-2.9c-1.9-.8-4.5-1.6-7-2.1.5.4.9.7 1.3 1 1.6 1.2 9 5 10.4 4.6zm-17.6-6.3c-.6 0-1.2.1-1.6.2-1.3.4-1.9 1.2-2 1.9 0 .1.2.7.5 1.4 1.3-.1 5.2-.3 7.3.3-2-1.6-3.3-2.8-4.2-3.8z"/><path class="st2" d="M160.4 269.4s-.1 0 0 0l-1.6 3.3 1.6-3.3zM143 256c0-.1 0-.1 0 0l-1.9 3.6s-.1 1.3 1.2 3c.1.2.3.3.4.5 1.6-.1 3.7.2 5.9.7-1.4-1.1-3.1-2.5-4.2-3.6-.5-.5-.8-1.1-1-1.7-.5.1-.9.3-1.1.5 0-.1 0-2 .7-3zm3.8 10.8c1 .8 2.2 1.7 3.6 2.7 4.5 3.2 8.3 3.2 8.3 3.2s-9-4.8-11.4-5.7c-.1-.1-.3-.1-.5-.2z"/><path class="st2" d="M142.3 258.9c.2-.2.6-.3 1.1-.5-.4-1.1-.4-2.3-.4-2.5-.7 1.1-.7 3-.7 3zm.4 4.2c.9 1.1 2.2 2.3 4.1 3.8.2 0 .3.1.5.2 2.4.9 11.4 5.7 11.4 5.7l1.5-3.3c-1.4.4-8.8-3.4-10.4-4.6-.4-.3-.9-.6-1.3-1-2.1-.6-4.2-.9-5.8-.8z"/><path class="st7" d="M139.8 275.2c.6 0 1.5 0 2.4.2v-.5c-1.3-1.1-2.5-2.2-3.1-2.9-.3.1-.7.3-1 .5.1 0 .6 1.3 1.7 2.7zm14 2c-.5 1.2-1.4 3.5-1.4 3.5l1.4-3.5c.1-.1-.7-1.9-3.9-3.1-1.4-.5-3.2-1.3-5.1-1.9v.1c2.7 2.1 6.4 4.5 9 4.9zm-9-4.8v-.1c-.1 0-.2 0-.2-.1l.2.2z"/><path class="st7" d="M142.2 275.4c.1 0 .3.1.4.1.2 0 .4.1.7.3-.4-.3-.7-.6-1-.8l-.1.4z"/><path class="st2" d="M143.6 275.8c1 .9 2.1 1.7 3 2.4 2.7 2 5.9 2.5 5.9 2.5s-6.2-3.6-8.9-4.9zm-4.6-10.6c0-.1 0-.1 0 0l-1.6 3.1s.5 2 1.5 3.5c0 .1.1.1.2.2 1.1-.4 2.4-.4 3.7-.1l.3-.7c-.8-.6-1.4-1.2-1.8-1.5-.9-.8-1.5-2.1-1.9-3.1h-.5s-.1-.7.1-1.4zm5.6 7c-.5-.4-.9-.7-1.4-1l-.3.7c.5 0 1.1.1 1.7.3zm-1.3 3.5l.2.2v-.1s-.1 0-.2-.1z"/><path class="st2" d="M139 266.6h.5c-.3-.7-.4-1.3-.5-1.4-.2.7 0 1.4 0 1.4zm5.8 5.8l-.1 1.3-1.2 2.2c2.7 1.2 8.9 4.8 8.9 4.8s.8-2.3 1.4-3.5c-2.6-.4-6.3-2.8-9-4.8zm-2.5 2.5l.2-2.2.5-.9c-1.4-.2-2.6-.2-3.7.1.4.8 1.6 1.9 3 3z"/><path class="st2" d="M142.3 274.9c.3.3.7.6 1 .8.1 0 .2.1.3.1l1.2-2.2.1-1.3c-.1-.1-.2-.1-.2-.2-.6-.2-1.1-.3-1.7-.4l-.5.9-.2 2.3zm-.2 2.5c-.9-.7-1.7-1.5-2.3-2.2-.3 0-.6.1-.6.1s-1.3-.9-1.1-2.8l-1.3 3.5s-.5.5 1.9 2.8 5.3 3.6 5.3 3.6.4-2.6.5-3.7c-.7-.2-1.4-.5-2-.9l-.6 1.1.2-1.5z"/><path class="st2" d="M142 278.8l.6-1.1c-.2-.1-.3-.2-.5-.3l-.1 1.4zm-2.8-3.5s.2 0 .6-.1c-1.1-1.4-1.6-2.7-1.6-2.7-.3 1.8 1 2.8 1 2.8zm43.7-42.9s.1.7-.2 1.5c4.5-5.5-7.7-24.4-7.7-24.4l-3.8-1.8c.8 2 6.9 12.2 9.8 19.3 1 2.5 1.4 4.5 1.6 5.7.2-.1.3-.2.3-.3z"/><path class="st2" d="M182.9 232.4l-.3.3c.1.7.1 1.2.1 1.2.3-.8.2-1.5.2-1.5z"/><path class="st7" d="M14 251c1.3-.6 1.9-1.5 2.1-2.3 0-.1 0-.5-.1-1.2-1.5 1.2-7.1 1.8-7.1 1.8l-8.9-.1v3.3h2.6s8.8-.3 11.4-1.5zM0 271v3.2c1.8-.1 2.8-.4 2.8-.5-.2-.2-1.2-1.4-2.8-2.7z"/><path class="st2" d="M2.9 273.8s-.1 0 0 0l1.4-3.3s-1.9-2.2-4.3-4.1v4.5h.3c.8.3 2.6 2.9 2.6 2.9z"/><path class="st2" d="M2.8 273.8s.1 0 0 0c0 0-1.7-2.5-2.6-2.9h-.3v.2c1.7 1.2 2.7 2.4 2.9 2.7zm13.5-26.7s.1.7-.2 1.5c4.5-5.5-7.7-24.4-7.7-24.4l-3.8-1.8c.8 2 6.9 12.2 9.8 19.3 1 2.5 1.4 4.5 1.6 5.7.1-.1.2-.1.3-.3z"/><path class="st2" d="M16.3 247.1l-.3.3c.1.7.1 1.2.1 1.2.3-.8.2-1.5.2-1.5zm481.4 5c.1.2.3.5.6.7.2-1.3.5-3.2 1.3-5.5 2.4-7.3 7.6-17.5 8.3-19.6l-1.2.5.3.8-.9-.6-1.7.7s-10.6 18.8-6.2 25.6c-.6-1.4-.5-2.6-.5-2.6z"/><path class="st2" d="M506.6 228.2l-.5.2.9.6zm-8.9 23.9s-.1 1.2.5 2.5c0 0 0-.7.1-1.8-.3-.2-.5-.4-.6-.7z"/></g><g id="Background_1_"><g class="st11" id="Background"><g class="st12"><defs><path id="SVGID_1_" class="st12" d="M.2.8h799.6v798.3H.2z"/></defs><clipPath id="SVGID_2_"><use xlink:href="#SVGID_1_" overflow="visible"/></clipPath><g class="st13"><defs><path id="SVGID_3_" d="M-.9.8h802.4v798.3H-.9z"/></defs><clipPath id="SVGID_4_"><use xlink:href="#SVGID_3_" overflow="visible"/></clipPath></g></g></g></g></svg>