<?xml version="1.0" encoding="utf-8"?>
<!-- Svg Vector Icons : http://www.onlinewebfonts.com/icon -->
<!DOCTYPE svg PUBLIC "-//W3C//DTD SVG 1.1//EN" "http://www.w3.org/Graphics/SVG/1.1/DTD/svg11.dtd">
<svg version="1.1" xmlns="http://www.w3.org/2000/svg" xmlns:xlink="http://www.w3.org/1999/xlink" x="0px" y="0px" viewBox="-250 -250 1500 1500" enable-background="new 0 0 1000 1000" xml:space="preserve">
<g><g><g id="Search"><g><g><polyline fill= "rgba(0%, 0%, 0%, 0)" points="890.8,959.6 650.9,720.4 719,652.3 958.9,891.5 "/><path fill="rgba(0%, 0%, 0%, 0.3)" d="M890.8,980c-5.2,0-10.4-2-14.4-6L636.5,734.8c-3.8-3.8-6-9-6-14.4c0-5.4,2.1-10.6,6-14.5l68.1-68.1c8-8,20.8-8,28.8,0L973.3,877c8,8,8,20.9,0,28.8c-8,8-20.9,8-28.8,0L719,681.1l-39.2,39.3l225.4,224.7c8,8,8,20.9,0,28.8C901.2,977.9,896,980,890.8,980z"/></g><g><path fill="rgba(0%, 0%, 0%, 0.3)" d="M959.1,891.7c15.9,15.8,13.6,44.1-5.2,62.8c-18.8,18.7-46.9,21.1-62.9,5.3"/><path fill="rgba(0%, 0%, 0%, 0.1)" d="M917.6,990.6c-15.2,0-29.9-5.4-41-16.3c-8-8-8.1-20.9-0.1-28.8c7.9-8.1,20.8-8.1,28.8-0.2c7.9,7.8,23.5,5.4,34.1-5.2c6.2-6.2,9.8-14.2,9.8-21.8c0-3.5-0.8-8.4-4.5-12.1c-8-7.9-8.1-20.9-0.2-28.8c7.9-8,20.8-8.1,28.8-0.2c10.7,10.6,16.6,25.1,16.6,41c0,18.4-7.9,37-21.8,50.8C954,983.3,935.4,990.6,917.6,990.6z"/></g></g><path fill="rgba(0%, 0%, 0%, 0.3)" d="M415.6,820.9c-108.4,0-210.3-42.2-287-118.9c-158.2-158.1-158.2-415.5,0-573.8C205.3,51.6,307.2,9.4,415.6,9.4c108.4,0,210.3,42.2,286.9,118.8c76.7,76.7,118.9,178.5,118.9,286.9c0,108.4-42.2,210.3-118.9,286.8C625.9,778.7,524,820.9,415.6,820.9z M415.6,50.3c-97.5,0-189.1,37.9-258.1,106.8c-142.2,142.3-142.2,373.7,0,516C226.5,742,318.1,780,415.6,780c97.5,0,189.1-38,257.9-106.9c69-68.9,106.9-160.5,106.9-257.9s-38-189.1-106.9-258C604.7,88.2,513.1,50.3,415.6,50.3z"/><path fill="rgba(0%, 0%, 0%, 0.3)" d="M415.6,726.1c-83.1,0-161.2-32.3-219.9-91c-121.3-121.3-121.3-318.6,0-439.8c58.7-58.7,136.8-91.1,219.8-91.1c83.1,0,161.1,32.4,219.9,91.1c58.8,58.7,91.1,136.8,91.1,219.9s-32.4,161.2-91.1,219.9C576.7,693.8,498.6,726.1,415.6,726.1z M415.6,145.1c-72.1,0-139.9,28.1-190.9,79.1c-105.3,105.2-105.3,276.6,0,382c51,50.9,118.8,79,190.9,79s139.9-28.1,191-79c51-51,79.1-118.9,79.1-191s-28.1-140-79.1-191C555.5,173.2,487.7,145.1,415.6,145.1z"/><path fill="rgba(0%, 0%, 0%, 0.3)" d="M263,510.4c-11.2,0-20.3-9-20.5-20.2c-0.5-47,17.3-91.3,50.1-124.8c32.9-33.6,76.8-52.3,123.8-52.7c0.7,0,1.3,0,2,0c46.2,0,89.7,17.8,122.8,50.2c33.6,32.9,52.3,76.9,52.7,123.9c0.1,11.3-9,20.5-20.3,20.7c-0.1,0-0.1,0-0.2,0c-11.2,0-20.3-9-20.5-20.3c-0.3-36-14.7-69.8-40.5-95c-25.8-25.2-59.3-38.1-95.8-38.5c-36.1,0.4-69.8,14.7-95,40.5c-25.2,25.7-38.9,59.7-38.5,95.8c0.1,11.3-8.9,20.6-20.2,20.7C263.1,510.4,263,510.4,263,510.4z"/><path fill="rgba(0%, 0%, 0%, 0.3)" d="M418.3,542.6c-43.6,0-79.5-35.5-80.1-79.2c-0.4-44.2,35.2-80.5,79.3-80.9c44.4,0,80.2,35.5,80.8,79.2c0.2,21.4-7.9,41.6-22.8,56.9c-14.9,15.3-35,23.8-56.4,24C419,542.6,418.3,542.6,418.3,542.6z M418.4,423.4c-22,0.2-39.5,18-39.3,39.6c0.3,21.3,17.8,38.7,39.2,38.7v20.5l0.4-20.5c10.5-0.1,20.3-4.3,27.6-11.7c7.3-7.4,11.3-17.3,11.2-27.8C457.2,440.8,439.7,423.4,418.4,423.4z"/><path d="M326.9,350.6c-7,0-13.8-3.6-17.6-10.1l-29.4-49.8c-5.7-9.7-2.5-22.3,7.2-28c9.7-5.7,22.3-2.5,28,7.2l29.4,49.8c5.7,9.7,2.5,22.3-7.2,28C334,349.7,330.5,350.6,326.9,350.6z" fill="rgba(0%, 0%, 0%, 0.3)"/><path d="M417,325.7c-11.2,0-20.3-9-20.5-20.2l-0.6-57.6c-0.1-11.3,9-20.6,20.2-20.7c0.1,0,0.1,0,0.2,0c11.2,0,20.3,9,20.5,20.2l0.6,57.6c0.1,11.3-9,20.6-20.2,20.7C417.2,325.7,417.1,325.7,417,325.7z" fill="rgba(0%, 0%, 0%, 0.3)"/><path d="M509.1,350.2c-3.4,0-6.8-0.8-10-2.6c-9.8-5.5-13.3-18-7.8-27.8l28.3-50.3c5.5-9.8,17.9-13.4,27.8-7.8c9.8,5.5,13.3,18,7.8,27.8l-28.3,50.3C523.1,346.5,516.2,350.2,509.1,350.2z" fill="rgba(0%, 0%, 0%, 0.3)"/></g><g></g><g></g><g></g><g></g><g></g><g></g><g></g><g></g><g></g><g></g><g></g><g></g><g></g><g></g><g></g></g><g></g><g></g><g></g><g></g><g></g><g></g><g></g><g></g><g></g><g></g><g></g><g></g><g></g><g></g><g></g></g>
</svg>