<svg xmlns="http://www.w3.org/2000/svg" viewBox="-250 -250 1500 1500"><path fill="rgba(0%, 0%, 0%, 0.3)" d="M990 233.6v296.7s-63.5 12.5-76.6 14.2c-13 1.6-54 14.9-83.7-13.7-45.8-43.9-208.5-205.7-208.5-205.7s-28.1-27.5-73.1-3.7c-41.3 21.8-102.6 53.7-128.2 66.2-48.4 25.8-88.5-15.1-88.5-46.2 0-24.1 15.1-40.5 36.6-52.6 58.4-35.4 181.4-104.5 232.7-131.7 31.2-16.6 53.6-18 96.4 18 52.7 44.3 99.5 84.7 99.5 84.7s15.3 12.8 39.7 7.6c59.8-12.8 153.7-33.8 153.7-33.8zM342.4 736.3c7.9-20.2 5.2-42.9-9.9-58.4-13.6-13.9-33.4-17.6-52.3-13.2 5.3-18.7 2.4-38.7-11.3-52.8-13.6-13.9-33.4-17.6-52.3-13.2 5.2-18.7 2.3-38.7-11.3-52.7-21.4-21.9-58.4-21-82.7 2.2-24.1 23.1-39.6 65.1-18 89.8 21.5 24.6 46.3 9.6 65.1 5.3-5.2 18.7-21 36.1-1.6 60.6 19.3 24.5 46.3 9.6 65.2 5.4-5.3 18.6-20.3 37.8-1.7 60.5 18.8 22.8 49.6 10.6 69.9 4.3-7.8 20.2-24.6 41.9-3.1 66.3 21.5 24.5 71.3 13.2 95.6-10 24.2-23.2 26.6-59.9 5.2-81.9-14.6-15.1-36.6-18.6-56.8-12.2zM786 581.9c-175.7-175.7-93.1-93-187.7-187.8 0 0-28.4-28.3-65.9-11.9-26.3 11.5-60.2 27.2-85.6 39.2-28 14.7-48.1 19.2-57.6 19.2-54.1-.4-98-43.9-98-97.9 0-35.1 18.6-65.6 46.4-82.9 39.1-27 128.9-74.8 128.9-74.8s-27.4-34.7-87.4-34.7c-60 0-185.3 82.1-185.3 82.1s-35.5 22.8-86.2 2.3l-97.7-34V540s27.9 8.1 52.9 18.3c5.7-16.1 14.8-31 27.5-43.4 41.6-39.6 110.5-40 148.3-1.1 11.4 11.8 19.3 26 23.4 41.6 15.2 4.7 29 13 40.1 24.5 11.4 11.8 19.3 26 23.4 41.5 15.2 4.7 29 13.1 40.1 24.5 12.5 12.9 20.9 28.5 24.8 45.5 15.9 4.6 30.3 13.3 41.9 25.1 22.7 23.3 30.8 55 25.9 85.6 0 0 .1 0 .2.1.4.5 14.1 15.8 22.6 24.4 16.8 16.8 44.1 16.8 60.9 0 16.7-16.8 16.8-44.1 0-60.9-.6-.6-60.5-63.2-55.6-68.1 4.8-4.8 81 74.5 82.5 76 16.7 16.7 44.1 16.7 60.9 0 16.8-16.8 16.7-44.1 0-60.9-.8-.8-4.3-4.1-5.5-5.4 0 0-75.6-67.3-69.8-73.1 5.8-5.8 99.7 81.8 99.9 81.8 16.9 15.2 42.9 15.1 59.1-1.2 15.8-15.8 16.1-40.8 2.1-57.6-.3-.9-71.6-75.4-66-81 5.6-5.7 76.2 66.9 76.3 67.1 16.7 16.7 44.1 16.7 60.9 0 16.7-16.7 16.7-44.1 0-61-.2-.1-.5-.2-.7-.4z"/></svg>