<svg xmlns="http://www.w3.org/2000/svg" viewBox="0 0 1000 1000"><g fill="rgba(94.1%, 28.4%, 10.2%, 1)"><path d="M153.7 153.7C57.9 249.5 10 365.3 10 499c0 135.7 47.9 251.5 143.7 347.3C249.5 942.1 363.3 990 499 990c135.7 0 251.5-47.9 347.3-143.7C942.1 750.5 990 634.7 990 499c0-135.7-47.9-249.5-143.7-345.3C750.5 57.9 634.7 10 499 10c-133.7 0-249.5 47.9-345.3 143.7zm55.9 57.9l2-2C289.4 129.7 387.2 89.8 499 89.8c113.8 0 209.6 39.9 291.4 121.8 79.8 77.8 119.8 175.6 119.8 287.4 0 113.8-39.9 209.6-119.8 291.4-81.8 79.9-177.6 119.8-291.4 119.8-111.8 0-209.6-39.9-287.4-119.8C129.8 708.6 89.8 612.8 89.8 499c0-111.8 40-209.6 119.8-287.4z"/><path d="M293.4 331.3c0 12 4 22 12 29.9L443.1 497 305.4 632.7c-8 8-12 18-12 29.9 0 10 4 18 12 26s18 12 28 12c12 0 20-4 27.9-10L499 552.9l135.7 137.7c8 6 16 10 28 10s21.9-4 27.9-10c8-8 12-18 12-28 0-12-4-21.9-12-29.9L554.9 497l135.7-135.7c8-8 12-18 12-27.9 0-12-4-22-12-29.9-6-8-16-12-25.9-12-12 0-21.9 4-29.9 12L499 441.1 363.3 303.4c-8-8-18-12-29.9-12-10 0-20 4-28 12s-12 18-12 27.9z"/></g></svg>