<svg height="27.333" viewBox="0 0 27.334 27.333" width="27.334"><path d="M20.872 13.666l5.152-5.152a4.484 4.484 0 0 0 .002-6.329l-.879-.877A4.433 4.433 0 0 0 21.983 0a4.438 4.438 0 0 0-3.164 1.309l-5.152 5.152-5.153-5.153A4.44 4.44 0 0 0 5.351 0a4.442 4.442 0 0 0-3.167 1.31l-.874.873a4.485 4.485 0 0 0-.002 6.33l5.153 5.153-5.152 5.153a4.482 4.482 0 0 0-.001 6.328l.877.877a4.446 4.446 0 0 0 3.165 1.309 4.44 4.44 0 0 0 3.165-1.31l5.152-5.151 5.152 5.152c.843.844 1.967 1.309 3.164 1.309s2.322-.465 3.166-1.309l.875-.876a4.483 4.483 0 0 0 .002-6.328l-5.154-5.154zm3.738 10.068l-.875.876a2.475 2.475 0 0 1-1.752.723 2.46 2.46 0 0 1-1.75-.723l-6.566-6.566L7.1 24.61a2.472 2.472 0 0 1-1.75.723c-.635 0-1.27-.24-1.751-.723l-.876-.876a2.484 2.484 0 0 1 0-3.501l6.566-6.567L2.723 7.1a2.485 2.485 0 0 1 0-3.502l.876-.875A2.462 2.462 0 0 1 5.35 2c.635 0 1.27.24 1.75.722l6.567 6.567 6.566-6.567A2.47 2.47 0 0 1 21.983 2c.636 0 1.271.24 1.752.723l.875.875a2.484 2.484 0 0 1 0 3.502l-6.566 6.566 6.566 6.567a2.482 2.482 0 0 1 0 3.501z"/></svg>