<svg xmlns="http://www.w3.org/2000/svg" viewBox="0 0 123.99999 114.49999"><path d="M-310.2 295.2c-6.6 0-11.9-5.4-11.9-11.9v-27.4h-27.4c-6.6 0-11.9-5.4-11.9-11.9v-4.2c0-6.6 5.4-11.9 11.9-11.9h27.4v-27.4c0-6.6 5.4-11.9 11.9-11.9h4.2c6.6 0 11.9 5.4 11.9 11.9v27.4h27.4c6.6 0 11.9 5.4 11.9 11.9v4.2c0 6.6-5.4 11.9-11.9 11.9h-27.4v27.4c0 6.6-5.4 11.9-11.9 11.9h-4.2z" fill="#fff"/><path d="M-306.1 191.1c5.2 0 9.4 4.2 9.4 9.4v29.9h29.9c5.2 0 9.4 4.2 9.4 9.4v4.2c0 5.2-4.2 9.4-9.4 9.4h-29.9v29.9c0 5.2-4.2 9.4-9.4 9.4h-4.2c-5.2 0-9.4-4.2-9.4-9.4v-29.9h-29.9c-5.2 0-9.4-4.2-9.4-9.4v-4.2c0-5.2 4.2-9.4 9.4-9.4h29.9v-29.9c0-5.2 4.2-9.4 9.4-9.4h4.2m0-5h-4.2c-8 0-14.4 6.5-14.4 14.4v24.9h-24.9c-8 0-14.4 6.5-14.4 14.4v4.2c0 8 6.5 14.4 14.4 14.4h24.9v24.9c0 8 6.5 14.4 14.4 14.4h4.2c8 0 14.4-6.5 14.4-14.4v-24.9h24.9c8 0 14.4-6.5 14.4-14.4v-4.2c0-8-6.5-14.4-14.4-14.4h-24.9v-24.9c0-7.9-6.4-14.4-14.4-14.4z"/><path d="M-400.1 115.5c-1.4 0-2.5-1.1-2.5-2.5V50.4l-7 5.9c-.1.1-.2.1-.2.2-1 .6-2.1 1-3.2 1-2 0-3.8-1-4.9-2.6l-10.7-16.1c-1.8-2.7-1-6.3 1.7-8.1l29.7-20.7c.2-.1.4-.3.7-.3.1 0 2.8-.9 6.6-1h3.1c.7 0 1.4.3 1.8.8.5.5.7 1.2.6 1.9 0 .1 0 .3-.1.4.2 7.5 8.1 14.5 16.5 14.5s16.3-7 16.5-14.5c0-.1 0-.3-.1-.4-.1-.7.2-1.4.6-1.9.4-.5 1.1-.8 1.8-.8h6.1c2.4 0 4.3 1.1 4.5 1.2.1 0 .1.1.2.1l28.7 20.7c2.6 1.7 3.4 5.4 1.6 8.1L-318.8 54c-1 1.6-2.9 2.6-4.9 2.6-1.2 0-2.3-.3-3.2-1-.1 0-.1-.1-.2-.2l-6.4-5.3-.2 62.9c0 1.4-1.1 2.5-2.5 2.5h-63.9z" fill="#fff"/><path d="M-343 11.2c1.8 0 3.1.9 3.1.9l28.7 20.6c1.6 1 2 3.1.9 4.7L-321 52.5c-.6 1-1.7 1.5-2.8 1.5-.6 0-1.3-.2-1.9-.6l-10.5-8.6-.2 68.2h-63.7V45l-11.2 9.4c-.6.4-1.2.6-1.9.6-1.1 0-2.2-.5-2.8-1.5l-10.6-16.1c-1-1.6-.6-3.6.9-4.7L-396 12s2.4-.8 5.8-.9h3.1v.4c0 9 9.1 17.3 19 17.3s19-8.3 19-17.3v-.2-.2H-343c-.1.1 0 .1 0 .1m0-5s-.1 0 0 0H-349.1c-1.4 0-2.7.6-3.7 1.6-.9 1-1.4 2.4-1.3 3.8v.4c-.3 6.1-7.1 11.9-14 11.9s-13.7-5.8-14-11.9v-.4c.1-1.4-.3-2.8-1.3-3.8-.9-1-2.3-1.6-3.7-1.6h-3.1-.1c-4 .1-6.9 1-7.3 1.1-.5.2-.9.4-1.3.7l-29.5 20.6c-3.8 2.6-4.8 7.7-2.3 11.6l10.7 16.1c1.6 2.3 4.2 3.7 7 3.7 1.6 0 3.2-.5 4.6-1.4.2-.1.3-.2.5-.3l2.9-2.5V113c0 2.8 2.2 5 5 5h63.8c2.8 0 5-2.2 5-5l.1-57.7 2.3 1.9c.1.1.3.2.4.3 1.4.9 3 1.4 4.6 1.4 2.8 0 5.4-1.4 6.9-3.7l10.6-15 .1-.1c2.5-3.8 1.5-9-2.3-11.5l-28.6-20.7c-.1-.1-.2-.1-.3-.2-.3-.2-2.6-1.5-5.6-1.5z"/><path d="M-138.6 78.9c-3.1-81-14.4-66.2-14.4-66.2V108.9c0 2.1 1.7 3.8 3.8 3.8 2.1 0 3.8-1.7 3.8-3.8V79h6.8z" fill="#fff"/><path d="M-151 11.6c3.4 0 10.1 7.9 12.4 67.3h-6.8v29.9c0 2.1-1.7 3.8-3.8 3.8-2.1 0-3.8-1.7-3.8-3.8V12.6s.8-1 2-1m0-5.5c-2.9 0-5.1 1.6-6.3 3.2-.7.9-1.1 2.1-1.1 3.3V108.8c0 5.1 4.1 9.3 9.2 9.3s9.2-4.2 9.2-9.3V84.3h1.4c1.5 0 2.9-.6 3.9-1.7s1.6-2.5 1.5-4c-1-26.3-3-45.5-5.9-57-1.1-4.2-4-15.5-11.9-15.5z"/><path d="M-186.8 12c-6 0-10.8 1.2-10.9 7.2l-.1 14c0 4.8 3.1 8.9 7.5 10.4-.4.6-.6 1.3-.6 2.1l-.3 63c0 2.2 1.7 3.9 3.9 3.9s3.9-1.7 3.9-3.9l.3-63c0-.8-.2-1.5-.6-2.1 4.4-1.4 7.6-5.4 7.6-10.3l.1-14c0-6-4.8-7.3-10.8-7.3z" fill="#fff"/><path d="M-187 12h.2c6 0 10.8 1.3 10.8 7.3l-.1 14c0 4.8-3.2 8.9-7.6 10.3.4.6.6 1.3.6 2.1l-.3 63c0 2.2-1.8 3.9-3.9 3.9-2.2 0-3.9-1.8-3.9-3.9l.3-63c0-.8.2-1.5.6-2.1-4.4-1.4-7.5-5.5-7.5-10.4l.1-14c.1-6 4.8-7.2 10.7-7.2m0-5.5c-4.4 0-7.6.7-10.2 2-3.8 2.1-6 5.9-6 10.6l-.1 14c0 5.4 2.6 10.4 6.8 13.4l-.3 62.1c0 2.5 1 4.9 2.7 6.7 1.8 1.8 4.1 2.8 6.7 2.8 5.2 0 9.5-4.2 9.5-9.4l.3-62.1c4.3-3 7-7.9 7-13.3l.1-14c0-4.8-2.1-8.6-6-10.8-2.6-1.4-5.8-2.1-10.3-2.1l-.2.1z"/><path d="M-192.336 11.893l2.9.017-.118 20.4-2.9-.017z"/><path d="M-189.6 32.9h-2.9c-.4 0-.7-.3-.7-.7l.1-20.4c0-.2.1-.4.2-.5.1-.1.4-.3.5-.2h2.9c.4 0 .7.3.7.7l-.1 20.4c0 .2-.1.4-.2.5-.2.2-.3.2-.5.2zm-2.2-1.3h1.5l.1-19h-1.5l-.1 19z"/><g><path d="M-183.836 11.893l2.9.017-.118 20.4-2.9-.017z"/><path d="M-181.1 33h-2.9c-.4 0-.7-.3-.7-.7l.1-20.4c0-.2.1-.4.2-.5.1-.1.3-.2.5-.2h2.9c.4 0 .7.3.7.7l-.1 20.4c0 .2-.1.4-.2.5-.1.1-.3.2-.5.2zm-2.1-1.4h1.5l.1-19h-1.5l-.1 19z"/></g><g><path d="M9.8 268.1c-.4 0-.8-.1-1.1-.3l-19.3-9.6c-8.9 6.4-20.3 9.9-32.2 9.9-27 0-48.9-17.9-48.9-39.9s21.9-39.9 48.9-39.9 48.9 17.9 48.9 39.9c0 5.4-1.3 10.7-4 15.7l9.9 20.6c.5 1 .3 2.1-.5 2.9-.5.4-1.1.7-1.7.7z" fill="#fff"/><path d="M-42.8 190.9c25.6 0 46.4 16.7 46.4 37.4 0 5.6-1.6 10.8-4.3 15.6l10.5 21.8-20.7-10.3c-8.3 6.4-19.6 10.3-32 10.3-25.6 0-46.4-16.7-46.4-37.4.1-20.7 20.8-37.4 46.5-37.4m0-5c-28.3 0-51.4 19-51.4 42.4s23.1 42.4 51.4 42.4c11.9 0 23.3-3.4 32.4-9.5l18 9c.7.4 1.5.5 2.2.5 1.3 0 2.6-.5 3.5-1.4 1.5-1.5 1.9-3.8 1-5.7l-9.4-19.5c2.4-5 3.7-10.3 3.7-15.7-.1-23.5-23.1-42.5-51.4-42.5z"/><g><path d="M-147.4 294.6c-.6 0-1.3-.2-1.8-.7-.8-.8-1-1.9-.5-2.9l9.9-20.6c-2.6-5-4-10.3-4-15.7 0-22 21.9-39.9 48.9-39.9S-46 232.7-46 254.7s-21.9 39.9-48.9 39.9c-11.9 0-23.3-3.5-32.2-9.9l-19.3 9.6c-.3.2-.6.3-1 .3z" fill="#fff"/><path d="M-94.8 217.4c25.6 0 46.4 16.7 46.4 37.4 0 20.6-20.8 37.4-46.4 37.4-12.4 0-23.6-3.9-32-10.3l-20.6 10.2 10.5-21.8c-2.7-4.7-4.3-10-4.3-15.6 0-20.6 20.8-37.3 46.4-37.3m0-5c-28.3 0-51.4 19-51.4 42.4 0 5.4 1.2 10.7 3.7 15.7l-9.4 19.5c-.9 1.9-.5 4.2 1 5.7 1 .9 2.2 1.4 3.5 1.4.8 0 1.5-.2 2.2-.5l18-9c9.2 6.1 20.5 9.5 32.4 9.5 28.3 0 51.4-19 51.4-42.4 0-23.3-23.1-42.3-51.4-42.3z"/></g></g><g><path d="M42.6 112c-.2 0-.4 0-.6-.1l-37.6-9.6c-1.1-.3-1.9-1.3-1.9-2.4V5c0-.8.4-1.5 1-2 .4-.3 1-.5 1.5-.5.2 0 .4 0 .6.1l37.6 9.6c1.1.3 1.9 1.3 1.9 2.4v94.9c0 .8-.4 1.5-1 2-.4.3-1 .5-1.5.5z" fill="#fff"/><path d="M5 5l37.6 9.6v94.9L5 99.9V5m0-5C3.9 0 2.8.4 1.9 1.1.7 2 0 3.5 0 5v94.9c0 2.3 1.6 4.3 3.8 4.8l37.6 9.6c.4.1.8.2 1.2.2 1.1 0 2.2-.4 3.1-1.1 1.2-.9 1.9-2.4 1.9-3.9V14.6c0-2.3-1.6-4.3-3.8-4.8L6.2.2C5.8.1 5.4 0 5 0z"/><path d="M42.6 112c-.5 0-1.1-.2-1.5-.5-.6-.5-1-1.2-1-2V14.6c0-1.1.8-2.1 1.9-2.4l37.6-9.6c.2-.1.4-.1.6-.1.5 0 1.1.2 1.5.5.6.5 1 1.2 1 2v94.9c0 1.1-.8 2.1-1.9 2.4l-37.6 9.6c-.2.1-.4.1-.6.1z" fill="#fff"/><path d="M80.2 5v94.9l-37.6 9.6V14.6L80.2 5m0-5c-.4 0-.8.1-1.2.2L41.4 9.8c-2.2.6-3.8 2.6-3.8 4.8v94.9c0 1.5.7 3 1.9 3.9.9.7 2 1.1 3.1 1.1.4 0 .8-.1 1.2-.2l37.6-9.6c2.2-.6 3.8-2.6 3.8-4.8V5c0-1.5-.7-3-1.9-3.9-1-.7-2-1.1-3.1-1.1z"/><g><path d="M118.9 112c-.2 0-.4 0-.6-.1l-37.6-9.6c-1.1-.3-1.9-1.3-1.9-2.4V5c0-.8.4-1.5 1-2 .4-.3 1-.5 1.5-.5.2 0 .4 0 .6.1l37.6 9.6c1.1.3 1.9 1.3 1.9 2.4v94.9c0 .8-.4 1.5-1 2-.4.3-.9.5-1.5.5z" fill="#fff"/><path d="M81.4 5l37.6 9.6v94.9l-37.6-9.6V5m0-5c-1.1 0-2.2.4-3.1 1.1-1.2.9-1.9 2.4-1.9 3.9v94.9c0 2.3 1.6 4.3 3.8 4.8l37.6 9.6c.4.1.8.2 1.2.2 1.1 0 2.2-.4 3.1-1.1 1.2-.9 1.9-2.4 1.9-3.9V14.6c0-2.3-1.6-4.3-3.8-4.8L82.6.2c-.4-.1-.8-.2-1.2-.2z"/></g><path stroke-miterlimit="10" d="M3.4 68.2c3.9 13.4 26.9 6 34 .9C52 58.9 58 36.9 78 34.5c20.6-2.4 24.5 25.7 42.1 26.3" fill="none" stroke="#f0481a" stroke-width="3" stroke-linecap="round" stroke-linejoin="bevel" stroke-dasharray="8,10,8,10,8,10"/></g><g><path d="M273.9 119.1c-5.1 0-9.3-4.2-9.3-9.3v-7.1c0-5.1 4.2-9.3 9.3-9.3h8c5.1 0 9.3 4.2 9.3 9.3v7.1c0 5.1-4.2 9.3-9.3 9.3h-8zm-6.7-38.5c-1.4 0-2.5-1.1-2.5-2.5v-6.3c0-3.2.4-5.9 1.3-8.2.9-2.3 2.4-4.5 4.5-6.5 2.6-2.5 5.1-4.8 7.5-6.8 2.2-1.8 4.1-3.6 5.6-5.2 1.5-1.5 2.6-3 3.4-4.3.7-1.1 1-2.2 1-3.3 0-2.4-.7-4.2-2.1-5.5-1.5-1.3-3.3-2-5.7-2-3.8 0-6.5 1-8.4 2.9-1.9 2.1-3 4.5-3.3 7.5-.1 1.3-1.2 2.3-2.5 2.3h-.2l-22-1.4c-.7 0-1.3-.4-1.7-.9-.4-.5-.6-1.2-.6-1.9 1.1-10.7 5.2-19 12-24.7 6.8-5.6 15.6-8.5 26.2-8.5 4.6 0 9 .6 13.1 1.9 4.1 1.3 7.9 3.2 11 5.8 3.2 2.6 5.8 5.9 7.7 9.7 1.9 3.9 2.8 8.3 2.8 13.2 0 3-.3 5.7-.9 8.1-.6 2.5-1.7 5-3.2 7.4-1.5 2.3-3.4 4.7-5.8 7.1-2.3 2.3-5.2 4.9-8.7 7.6-1.9 1.5-3.1 2.8-3.7 4.1-.6 1.3-.9 2.5-.9 3.8v4.1c0 1.4-1.1 2.5-2.5 2.5h-21.4z" fill="#fff"/><path d="M279.7 7.9c4.4 0 8.5.6 12.4 1.8 3.9 1.2 7.3 3 10.2 5.4 3 2.4 5.3 5.3 7 8.9 1.7 3.5 2.6 7.6 2.6 12.1 0 2.8-.3 5.3-.9 7.5-.6 2.2-1.5 4.5-2.9 6.6-1.4 2.2-3.2 4.4-5.4 6.6-2.2 2.2-5.1 4.7-8.5 7.4-2.2 1.7-3.7 3.4-4.4 5-.8 1.6-1.1 3.2-1.1 4.9v4.1h-21.4v-6.3c0-2.9.4-5.3 1.1-7.3.8-2 2-3.9 3.9-5.6 2.7-2.6 5.1-4.8 7.4-6.7 2.2-1.9 4.2-3.7 5.8-5.4 1.6-1.7 2.9-3.2 3.8-4.7.9-1.5 1.4-3 1.4-4.6 0-3.1-1-5.6-2.9-7.4-2-1.8-4.4-2.6-7.4-2.6-4.5 0-7.9 1.2-10.2 3.7-2.3 2.5-3.6 5.5-3.9 9l-22-1.4c1-10.1 4.8-17.8 11.1-23.1 6.1-5.3 14.3-7.9 24.3-7.9m2.2 88.1c3.7 0 6.8 3 6.8 6.8v7.1c0 3.7-3 6.8-6.8 6.8h-8c-3.7 0-6.8-3-6.8-6.8v-7.1c0-3.7 3-6.8 6.8-6.8h8m-2.2-93.1c-11.1 0-20.5 3.1-27.8 9.1-7.4 6.1-11.7 15-12.9 26.4-.1 1.4.3 2.7 1.2 3.7.9 1 2.1 1.7 3.5 1.8l22 1.4h.3c2.6 0 4.8-2 5-4.6.2-2.4 1-4.3 2.6-6 1.4-1.4 3.5-2.1 6.6-2.1 2.2 0 3.4.8 4 1.4.5.5 1.3 1.4 1.3 3.6 0 .7-.2 1.3-.6 2-.7 1.2-1.8 2.5-3.1 3.8-1.5 1.6-3.3 3.2-5.4 5-2.4 2-4.9 4.3-7.6 6.9-2.3 2.2-4 4.7-5.1 7.4-1 2.6-1.5 5.6-1.5 9.1v6.3c0 2.8 2.2 5 5 5h21.4c2.8 0 5-2.2 5-5V74c0-.9.2-1.8.7-2.7.2-.5.9-1.6 3-3.2 3.6-2.8 6.6-5.4 9-7.8 2.5-2.5 4.6-5 6.1-7.5 1.7-2.6 2.8-5.3 3.5-8.1.7-2.6 1-5.6 1-8.7 0-5.3-1-10.1-3.1-14.3-2-4.2-4.8-7.7-8.4-10.6-3.4-2.8-7.4-4.9-11.9-6.2-4.3-1.4-8.9-2-13.8-2zm2.2 88.1h-8c-6.5 0-11.8 5.3-11.8 11.8v7.1c0 6.5 5.3 11.8 11.8 11.8h8c6.5 0 11.8-5.3 11.8-11.8v-7.1c0-6.5-5.3-11.8-11.8-11.8z"/></g><g><path d="M157.4 218.8c-.9 0-1.8-.5-2.2-1.3l-14.3-26.4c-.4-.8-.4-1.7.1-2.5s1.3-1.2 2.1-1.2h76.2c.9 0 1.8.5 2.2 1.3l14.3 26.4c.4.8.4 1.7-.1 2.5s-1.3 1.2-2.1 1.2h-76.2z" fill="#fff"/><path d="M219.3 190l14.3 26.4h-76.2L143.1 190h76.2m0-5h-76.2c-1.8 0-3.4.9-4.3 2.4-.9 1.5-.9 3.4-.1 4.9l14.3 26.4c.9 1.6 2.6 2.6 4.4 2.6h76.2c1.8 0 3.4-.9 4.3-2.4.9-1.5.9-3.4.1-4.9l-14.3-26.4c-.8-1.6-2.5-2.6-4.4-2.6z"/><path d="M139.3 300.5c-1.4 0-2.5-1.1-2.5-2.5V189.7c0-1.4 1.1-2.5 2.5-2.5h78.2c1.4 0 2.5 1.1 2.5 2.5V298c0 1.4-1.1 2.5-2.5 2.5h-78.2z" fill="#fff"/><path d="M217.5 189.7V298h-78.2V189.7h78.2m0-5h-78.2c-2.8 0-5 2.2-5 5V298c0 2.8 2.2 5 5 5h78.2c2.8 0 5-2.2 5-5V189.7c0-2.8-2.2-5-5-5z"/><path d="M138.7 300.5c-.8 0-1.6-.4-2.1-1.1l-14.3-21.7c-.5-.8-.5-1.8-.1-2.6s1.3-1.3 2.2-1.3h76.2c.8 0 1.6.4 2.1 1.1l14.3 21.7c.5.8.5 1.8.1 2.6s-1.3 1.3-2.2 1.3h-76.2z" fill="#fff"/><path d="M200.7 276.2l14.3 21.7h-76.2l-14.3-21.7h76.2m0-5h-76.2c-1.8 0-3.5 1-4.4 2.6-.9 1.6-.8 3.6.2 5.1l14.3 21.8c.9 1.4 2.5 2.3 4.2 2.3H215c1.8 0 3.5-1 4.4-2.6.9-1.6.8-3.6-.2-5.1l-14.3-21.7c-.9-1.5-2.5-2.4-4.2-2.4z"/><path stroke-miterlimit="10" fill="#fff" stroke="#f0481a" stroke-width="5" stroke-linecap="round" stroke-linejoin="round" d="M160.3 209.2h42.4M160.3 223.5h42.4M174 237.9h28.7M160.3 253.1h42.4"/><g><path d="M141.7 228.1c-1.6 0-3.2-.6-4.3-1.8l-25.2-25.2c-2.4-2.4-2.4-6.2 0-8.6 1.2-1.2 2.7-1.8 4.3-1.8 1.6 0 3.2.6 4.3 1.8l25.2 25.2c2.4 2.4 2.4 6.2 0 8.6-1.2 1.1-2.7 1.8-4.3 1.8z" fill="#fff"/><path d="M116.5 193.2c.9 0 1.8.4 2.5 1.1l25.2 25.2c1.4 1.4 1.4 3.7 0 5.1-.7.7-1.6 1.1-2.5 1.1-.9 0-1.8-.4-2.5-1.1L114 199.4c-1.4-1.4-1.4-3.7 0-5.1.7-.7 1.6-1.1 2.5-1.1m0-5c-2.3 0-4.5.9-6.1 2.5-3.4 3.4-3.3 8.8 0 12.2l25.2 25.2c1.6 1.6 3.8 2.5 6.1 2.5s4.5-.9 6.1-2.5c3.3-3.4 3.3-8.8 0-12.2l-25.2-25.2c-1.6-1.6-3.8-2.5-6.1-2.5z"/></g><path stroke-miterlimit="10" stroke="#f0481a" stroke-width="5" stroke-linecap="round" stroke-linejoin="round" d="M139.3 227.1l11.5 3.7-4-11.2z"/></g></svg>