<svg xmlns="http://www.w3.org/2000/svg" viewBox="-250 -250 1500 1500"><path d="M347.42 12.89c-38.88 8.25-101.13 34.95-137.46 58.91C130.64 124.23 73.1 197.28 39.33 288.78c-8.64 23.17-16.89 54.98-16.89 65 0 20.81 21.4 33.58 38.68 22.98 8.84-5.3 11.78-10.6 15.32-27.49 15.71-74.62 64.8-155.13 125.67-205.79 44.77-37.51 101.52-66.18 153.75-78.15 11.19-2.36 22.58-5.89 25.14-7.66 16.1-10.41 15.51-32.6-.98-43.59-7.66-5.12-13.35-5.31-32.6-1.19zm420.22 51.25c-5.5 2.16-13.35 5.89-17.67 8.84-10.41 6.48-154.34 151.59-159.45 160.43-7.85 13.55-11 26.9-10.01 43.99 1.38 24.15 7.07 34.36 34.76 62.64l22.58 23.17-143.74 143.54-143.54 143.74-22.19-21.99c-31.22-31.22-51.84-40.45-78.74-35.54-26.71 4.71-27.29 5.3-110.75 88.56-80.31 80.31-83.46 84.04-89.15 106.43-3.34 13.75-1.37 33.58 5.11 48.3 5.11 11.39 11 18.26 55.77 63.43 52.82 53.41 65 63.62 88.76 75.01 25.72 12.18 41.83 15.32 76.39 15.32 27.49 0 32.01-.39 47.91-5.3 20.03-6.09 41.24-16.1 54.2-25.72 4.91-3.73 134.9-132.74 288.85-287.08C961.28 377.17 952.24 386.59 965.2 356.16c10.02-22.97 12.37-36.92 12.37-68.73 0-31.61-1.96-43.4-11.98-67.75-11.39-27.49-16.89-34.36-72.85-90.72-63.62-64.21-67.35-66.76-97.59-67.75-13.57-.6-20.04.18-27.51 2.93zm55.97 70.3l20.62 20.42-85.03 85.03-84.83 84.83-20.62-20.82-20.62-20.81v-21.01l73.24-73.24c50.07-50.27 74.82-73.83 78.94-75.01 11.79-3.35 16.7-.79 38.3 20.61zm73.44 73.64c21.01 22.78 32.59 51.05 32.59 79.33 0 17.48-3.93 33.19-12.96 52.04-7.07 14.33-13.16 20.81-291.21 298.67C349.39 914.2 341.14 922.25 326.81 929.13c-29.26 14.33-57.34 16.69-86.79 7.46-15.12-4.91-37.9-19.44-50.66-32.4l-8.84-9.03 350.51-350.52c192.83-192.83 351.1-350.51 351.88-350.51.59 0 7.07 6.29 14.14 13.95zM291.46 666.39l20.62 20.62-85.03 85.03-84.83 84.83-20.62-20.81-20.62-20.81v-21.01l72.26-72.46c39.67-39.86 74.81-73.64 77.96-75.21 11.79-5.51 17.68-2.76 40.26 19.82zm94.26-495.82c-64.02 15.91-123.52 57.14-160.43 111.34-21.8 31.81-42.61 80.31-45.16 105.45-1.96 18.07 8.25 30.63 24.94 30.63 12.37 0 21.8-6.28 24.94-16.69 1.37-4.32 4.71-15.71 7.66-25.53 10.21-34.76 31.22-69.32 58.52-96.22 27.88-27.29 64.02-47.72 100.74-57.14 21.8-5.5 26.71-8.05 31.22-16.89 6.87-13.16.2-30.04-14.34-36.13-7.87-3.33-9.83-3.33-28.09 1.18z" fill="rgba(0%, 0%, 0%, 0.3)"/></svg>