<svg xmlns="http://www.w3.org/2000/svg" viewBox="-250 -250 1500 1500"><path fill="rgba(0%, 0%, 0%, 0)" d="M890.8 959.6L650.9 720.4l68.1-68.1 239.9 239.2"/><path fill="rgba(0%, 0%, 0%, 0.3)" d="M890.8 980c-5.2 0-10.4-2-14.4-6L636.5 734.8c-3.8-3.8-6-9-6-14.4s2.1-10.6 6-14.5l68.1-68.1c8-8 20.8-8 28.8 0L973.3 877c8 8 8 20.9 0 28.8-8 8-20.9 8-28.8 0L719 681.1l-39.2 39.3 225.4 224.7c8 8 8 20.9 0 28.8-4 4-9.2 6.1-14.4 6.1z"/><path fill="rgba(0%, 0%, 0%, 0.3)" d="M959.1 891.7c15.9 15.8 13.6 44.1-5.2 62.8-18.8 18.7-46.9 21.1-62.9 5.3"/><path fill="rgba(0%, 0%, 0%, 0.1)" d="M917.6 990.6c-15.2 0-29.9-5.4-41-16.3-8-8-8.1-20.9-.1-28.8 7.9-8.1 20.8-8.1 28.8-.2 7.9 7.8 23.5 5.4 34.1-5.2 6.2-6.2 9.8-14.2 9.8-21.8 0-3.5-.8-8.4-4.5-12.1-8-7.9-8.1-20.9-.2-28.8 7.9-8 20.8-8.1 28.8-.2 10.7 10.6 16.6 25.1 16.6 41 0 18.4-7.9 37-21.8 50.8-14.1 14.3-32.7 21.6-50.5 21.6z"/><path fill="rgba(0%, 0%, 0%, 0.3)" d="M415.6 820.9c-108.4 0-210.3-42.2-287-118.9-158.2-158.1-158.2-415.5 0-573.8C205.3 51.6 307.2 9.4 415.6 9.4s210.3 42.2 286.9 118.8c76.7 76.7 118.9 178.5 118.9 286.9 0 108.4-42.2 210.3-118.9 286.8-76.6 76.8-178.5 119-286.9 119zm0-770.6c-97.5 0-189.1 37.9-258.1 106.8-142.2 142.3-142.2 373.7 0 516C226.5 742 318.1 780 415.6 780c97.5 0 189.1-38 257.9-106.9 69-68.9 106.9-160.5 106.9-257.9s-38-189.1-106.9-258c-68.8-69-160.4-106.9-257.9-106.9z"/><path fill="rgba(0%, 0%, 0%, 0.3)" d="M415.6 726.1c-83.1 0-161.2-32.3-219.9-91-121.3-121.3-121.3-318.6 0-439.8 58.7-58.7 136.8-91.1 219.8-91.1 83.1 0 161.1 32.4 219.9 91.1 58.8 58.7 91.1 136.8 91.1 219.9s-32.4 161.2-91.1 219.9c-58.7 58.7-136.8 91-219.8 91zm0-581c-72.1 0-139.9 28.1-190.9 79.1-105.3 105.2-105.3 276.6 0 382 51 50.9 118.8 79 190.9 79s139.9-28.1 191-79c51-51 79.1-118.9 79.1-191s-28.1-140-79.1-191c-51.1-51-118.9-79.1-191-79.1z"/><path fill="rgba(0%, 0%, 0%, 0.3)" d="M263 510.4c-11.2 0-20.3-9-20.5-20.2-.5-47 17.3-91.3 50.1-124.8 32.9-33.6 76.8-52.3 123.8-52.7h2c46.2 0 89.7 17.8 122.8 50.2 33.6 32.9 52.3 76.9 52.7 123.9.1 11.3-9 20.5-20.3 20.7h-.2c-11.2 0-20.3-9-20.5-20.3-.3-36-14.7-69.8-40.5-95-25.8-25.2-59.3-38.1-95.8-38.5-36.1.4-69.8 14.7-95 40.5-25.2 25.7-38.9 59.7-38.5 95.8.1 11.3-8.9 20.6-20.2 20.7.2-.3.1-.3.1-.3z"/><path fill="rgba(0%, 0%, 0%, 0.3)" d="M418.3 542.6c-43.6 0-79.5-35.5-80.1-79.2-.4-44.2 35.2-80.5 79.3-80.9 44.4 0 80.2 35.5 80.8 79.2.2 21.4-7.9 41.6-22.8 56.9-14.9 15.3-35 23.8-56.4 24h-.8zm.1-119.2c-22 .2-39.5 18-39.3 39.6.3 21.3 17.8 38.7 39.2 38.7v20.5l.4-20.5c10.5-.1 20.3-4.3 27.6-11.7 7.3-7.4 11.3-17.3 11.2-27.8-.3-21.4-17.8-38.8-39.1-38.8zm-91.5-72.8c-7 0-13.8-3.6-17.6-10.1l-29.4-49.8c-5.7-9.7-2.5-22.3 7.2-28 9.7-5.7 22.3-2.5 28 7.2l29.4 49.8c5.7 9.7 2.5 22.3-7.2 28-3.3 2-6.8 2.9-10.4 2.9zm90.1-24.9c-11.2 0-20.3-9-20.5-20.2l-.6-57.6c-.1-11.3 9-20.6 20.2-20.7h.2c11.2 0 20.3 9 20.5 20.2l.6 57.6c.1 11.3-9 20.6-20.2 20.7h-.2zm92.1 24.5c-3.4 0-6.8-.8-10-2.6-9.8-5.5-13.3-18-7.8-27.8l28.3-50.3c5.5-9.8 17.9-13.4 27.8-7.8 9.8 5.5 13.3 18 7.8 27.8l-28.3 50.3c-3.8 6.7-10.7 10.4-17.8 10.4z"/></svg>